<svg xmlns="http://www.w3.org/2000/svg" xmlns:xlink="http://www.w3.org/1999/xlink" width="750" height="68" viewBox="0 0 750 68">
  <defs>
    <clipPath id="clip-path">
      <rect width="750" height="68" fill="none"/>
    </clipPath>
  </defs>
  <g id="リピートグリッド_12" data-name="リピートグリッド 12" clip-path="url(#clip-path)" style="isolation: isolate">
    <g transform="translate(0 -2964)">
      <path id="パス_55096" data-name="パス 55096" d="M459.771,1098.433c-17.214,0-31.357-6.7-49.465-16.166-14.67-7.668-29.237-11.394-44.531-11.394s-29.861,3.726-44.53,11.394c-18.109,9.465-32.26,16.166-49.474,16.166v41.076h188Z" transform="translate(-271.771 1893.127)" fill="#dde9ec"/>
    </g>
    <g transform="translate(188 -2964)">
      <path id="パス_55096-2" data-name="パス 55096" d="M459.771,1098.433c-17.214,0-31.357-6.7-49.465-16.166-14.67-7.668-29.237-11.394-44.531-11.394s-29.861,3.726-44.53,11.394c-18.109,9.465-32.26,16.166-49.474,16.166v41.076h188Z" transform="translate(-271.771 1893.127)" fill="#dde9ec"/>
    </g>
    <g transform="translate(376 -2964)">
      <path id="パス_55096-3" data-name="パス 55096" d="M459.771,1098.433c-17.214,0-31.357-6.7-49.465-16.166-14.67-7.668-29.237-11.394-44.531-11.394s-29.861,3.726-44.53,11.394c-18.109,9.465-32.26,16.166-49.474,16.166v41.076h188Z" transform="translate(-271.771 1893.127)" fill="#dde9ec"/>
    </g>
    <g transform="translate(564 -2964)">
      <path id="パス_55096-4" data-name="パス 55096" d="M459.771,1098.433c-17.214,0-31.357-6.7-49.465-16.166-14.67-7.668-29.237-11.394-44.531-11.394s-29.861,3.726-44.53,11.394c-18.109,9.465-32.26,16.166-49.474,16.166v41.076h188Z" transform="translate(-271.771 1893.127)" fill="#dde9ec"/>
    </g>
  </g>
</svg>
