<svg xmlns="http://www.w3.org/2000/svg" width="68" height="68" viewBox="0 0 68 68">
  <g id="グループ_8507" data-name="グループ 8507" transform="translate(0.186 -0.001)">
    <rect id="長方形_5731" data-name="長方形 5731" width="68" height="68" transform="translate(-0.186 0.001)" fill="none"/>
    <g id="レイヤー_2" data-name="レイヤー 2" transform="translate(5.425 6.221)">
      <g id="使用アイコン">
        <path id="パス_1592" data-name="パス 1592" d="M28.009,5.048c7.478,0,8.358,0,11.315.159a15.642,15.642,0,0,1,5.2.966,8.762,8.762,0,0,1,3.224,2.1,8.654,8.654,0,0,1,2.091,3.216,15.491,15.491,0,0,1,.966,5.2c.137,2.957.159,3.844.159,11.322s0,8.358-.159,11.315a15.447,15.447,0,0,1-.966,5.2,9.223,9.223,0,0,1-5.315,5.315,15.447,15.447,0,0,1-5.2.966c-2.957.137-3.837.159-11.315.159s-8.365,0-11.322-.159a15.491,15.491,0,0,1-5.2-.966,8.654,8.654,0,0,1-3.216-2.091,8.762,8.762,0,0,1-2.1-3.224,15.642,15.642,0,0,1-.966-5.2c-.159-2.957-.159-3.837-.159-11.315s0-8.365.159-11.322a15.685,15.685,0,0,1,.966-5.2,8.733,8.733,0,0,1,2.1-3.216,8.733,8.733,0,0,1,3.216-2.1,15.685,15.685,0,0,1,5.2-.966c2.957-.159,3.844-.159,11.322-.159m0-5.048C20.4,0,19.471,0,16.457.166A20.553,20.553,0,0,0,9.663,1.442,13.7,13.7,0,0,0,4.7,4.7a13.7,13.7,0,0,0-3.26,4.962A20.553,20.553,0,0,0,.166,16.457C0,19.471,0,20.4,0,28.009s0,8.56.166,11.538a20.6,20.6,0,0,0,1.276,6.808A13.644,13.644,0,0,0,4.673,51.31,13.7,13.7,0,0,0,9.635,54.54a20.553,20.553,0,0,0,6.793,1.305c2.993.137,3.945.166,11.538.166s8.56,0,11.538-.166a20.6,20.6,0,0,0,6.8-1.305,14.351,14.351,0,0,0,8.236-8.185,20.6,20.6,0,0,0,1.305-6.8c.137-2.986.166-3.945.166-11.538s0-8.56-.166-11.538A20.553,20.553,0,0,0,54.54,9.685,13.7,13.7,0,0,0,51.31,4.724a13.644,13.644,0,0,0-4.954-3.281,20.6,20.6,0,0,0-6.8-1.276C36.569,0,35.61,0,28.009,0Z" fill="#222"/>
        <path id="パス_1593" data-name="パス 1593" d="M33.238,18.89a14.35,14.35,0,1,0,10.155,4.218A14.35,14.35,0,0,0,33.238,18.89Zm0,23.658a9.315,9.315,0,1,1,9.308-9.308,9.315,9.315,0,0,1-9.308,9.308Z" transform="translate(-5.228 -5.231)" fill="#222"/>
        <ellipse id="楕円形_173" data-name="楕円形 173" cx="3.37" cy="3.37" rx="3.37" ry="3.37" transform="translate(39.584 9.696)" fill="#222"/>
      </g>
    </g>
  </g>
</svg>
