<svg xmlns="http://www.w3.org/2000/svg" width="37.315" height="6.819" viewBox="0 0 37.315 6.819">
  <path id="パス_55126" data-name="パス 55126" d="M38.289,5.476,35.014,2.721a.64.64,0,0,0-.684-.043L31.1,4.62a.391.391,0,0,1-.359-.005l-2.4-1.537a.72.72,0,0,0-.69-.018L25.172,4.478a.211.211,0,0,1-.256-.051L20.619.661a.384.384,0,0,0-.625,0L15.7,4.427a.2.2,0,0,1-.25.047L13.094,3.067a.7.7,0,0,0-.689.016L10.1,4.611a.366.366,0,0,1-.348,0L6.274,2.428a.609.609,0,0,0-.681.047l-3.3,3" transform="translate(-1.618 0.578)" fill="none" stroke="#135d39" stroke-width="2"/>
</svg>
