<svg xmlns="http://www.w3.org/2000/svg" xmlns:xlink="http://www.w3.org/1999/xlink" width="753" height="115" viewBox="0 0 753 115">
  <defs>
    <clipPath id="clip-path">
      <rect width="753" height="115" fill="none"/>
    </clipPath>
  </defs>
  <g id="リピートグリッド_8" data-name="リピートグリッド 8" clip-path="url(#clip-path)">
    <g id="グループ_8786" data-name="グループ 8786" transform="translate(0.001 0.001)">
      <path id="パス_55063" data-name="パス 55063" d="M460.271,1079.269c-17.168,0-32.274-6.7-50.333-16.166-14.631-7.668-29.16-11.4-44.413-11.4s-29.782,3.728-44.411,11.4c-18.061,9.466-32.174,16.166-49.343,16.166v29.716c11.709,0,20.693-.3,47.385-14.076,18.135-9.356,28.124-14.511,46.369-14.511s28.232,5.154,46.365,14.511c26.69,13.769,36.672,14.076,48.381,14.076Z" transform="translate(-271.771 -1022.016)" fill="#53a2b7"/>
      <path id="パス_55064" data-name="パス 55064" d="M460.271,1098.433c-17.168,0-32.274-6.7-50.333-16.165-14.631-7.668-29.16-11.394-44.413-11.394s-29.782,3.726-44.411,11.394c-18.061,9.465-32.174,16.165-49.343,16.165v21.076h188.5Z" transform="translate(-271.771 -1004.147)" fill="#53a2b7"/>
      <path id="パス_55065" data-name="パス 55065" d="M460.271,1063.906c-17.26,0-31.441-6.7-49.6-16.166-14.709-7.668-29.315-11.4-44.65-11.4s-29.941,3.728-44.648,11.4c-18.158,9.466-32.346,16.166-49.606,16.166v22.369c11.771,0,20.8-.3,47.638-14.077,18.231-9.355,28.274-14.511,46.616-14.511s28.383,5.154,46.612,14.511c26.832,13.769,35.862,14.077,47.634,14.077Z" transform="translate(-271.771 -1036.344)" fill="#53a2b7"/>
    </g>
    <g id="グループ_8786-2" data-name="グループ 8786" transform="translate(188.001 0.001)">
      <path id="パス_55063-2" data-name="パス 55063" d="M460.271,1079.269c-17.168,0-32.274-6.7-50.333-16.166-14.631-7.668-29.16-11.4-44.413-11.4s-29.782,3.728-44.411,11.4c-18.061,9.466-32.174,16.166-49.343,16.166v29.716c11.709,0,20.693-.3,47.385-14.076,18.135-9.356,28.124-14.511,46.369-14.511s28.232,5.154,46.365,14.511c26.69,13.769,36.672,14.076,48.381,14.076Z" transform="translate(-271.771 -1022.016)" fill="#53a2b7"/>
      <path id="パス_55064-2" data-name="パス 55064" d="M460.271,1098.433c-17.168,0-32.274-6.7-50.333-16.165-14.631-7.668-29.16-11.394-44.413-11.394s-29.782,3.726-44.411,11.394c-18.061,9.465-32.174,16.165-49.343,16.165v21.076h188.5Z" transform="translate(-271.771 -1004.147)" fill="#53a2b7"/>
      <path id="パス_55065-2" data-name="パス 55065" d="M460.271,1063.906c-17.26,0-31.441-6.7-49.6-16.166-14.709-7.668-29.315-11.4-44.65-11.4s-29.941,3.728-44.648,11.4c-18.158,9.466-32.346,16.166-49.606,16.166v22.369c11.771,0,20.8-.3,47.638-14.077,18.231-9.355,28.274-14.511,46.616-14.511s28.383,5.154,46.612,14.511c26.832,13.769,35.862,14.077,47.634,14.077Z" transform="translate(-271.771 -1036.344)" fill="#53a2b7"/>
    </g>
    <g id="グループ_8786-3" data-name="グループ 8786" transform="translate(376.001 0.001)">
      <path id="パス_55063-3" data-name="パス 55063" d="M460.271,1079.269c-17.168,0-32.274-6.7-50.333-16.166-14.631-7.668-29.16-11.4-44.413-11.4s-29.782,3.728-44.411,11.4c-18.061,9.466-32.174,16.166-49.343,16.166v29.716c11.709,0,20.693-.3,47.385-14.076,18.135-9.356,28.124-14.511,46.369-14.511s28.232,5.154,46.365,14.511c26.69,13.769,36.672,14.076,48.381,14.076Z" transform="translate(-271.771 -1022.016)" fill="#53a2b7"/>
      <path id="パス_55064-3" data-name="パス 55064" d="M460.271,1098.433c-17.168,0-32.274-6.7-50.333-16.165-14.631-7.668-29.16-11.394-44.413-11.394s-29.782,3.726-44.411,11.394c-18.061,9.465-32.174,16.165-49.343,16.165v21.076h188.5Z" transform="translate(-271.771 -1004.147)" fill="#53a2b7"/>
      <path id="パス_55065-3" data-name="パス 55065" d="M460.271,1063.906c-17.26,0-31.441-6.7-49.6-16.166-14.709-7.668-29.315-11.4-44.65-11.4s-29.941,3.728-44.648,11.4c-18.158,9.466-32.346,16.166-49.606,16.166v22.369c11.771,0,20.8-.3,47.638-14.077,18.231-9.355,28.274-14.511,46.616-14.511s28.383,5.154,46.612,14.511c26.832,13.769,35.862,14.077,47.634,14.077Z" transform="translate(-271.771 -1036.344)" fill="#53a2b7"/>
    </g>
    <g id="グループ_8786-4" data-name="グループ 8786" transform="translate(564 0.001)">
      <path id="パス_55063-4" data-name="パス 55063" d="M460.271,1079.269c-17.168,0-32.274-6.7-50.333-16.166-14.631-7.668-29.16-11.4-44.413-11.4s-29.782,3.728-44.411,11.4c-18.061,9.466-32.174,16.166-49.343,16.166v29.716c11.709,0,20.693-.3,47.385-14.076,18.135-9.356,28.124-14.511,46.369-14.511s28.232,5.154,46.365,14.511c26.69,13.769,36.672,14.076,48.381,14.076Z" transform="translate(-271.771 -1022.016)" fill="#53a2b7"/>
      <path id="パス_55064-4" data-name="パス 55064" d="M460.271,1098.433c-17.168,0-32.274-6.7-50.333-16.165-14.631-7.668-29.16-11.394-44.413-11.394s-29.782,3.726-44.411,11.394c-18.061,9.465-32.174,16.165-49.343,16.165v21.076h188.5Z" transform="translate(-271.771 -1004.147)" fill="#53a2b7"/>
      <path id="パス_55065-4" data-name="パス 55065" d="M460.271,1063.906c-17.26,0-31.441-6.7-49.6-16.166-14.709-7.668-29.315-11.4-44.65-11.4s-29.941,3.728-44.648,11.4c-18.158,9.466-32.346,16.166-49.606,16.166v22.369c11.771,0,20.8-.3,47.638-14.077,18.231-9.355,28.274-14.511,46.616-14.511s28.383,5.154,46.612,14.511c26.832,13.769,35.862,14.077,47.634,14.077Z" transform="translate(-271.771 -1036.344)" fill="#53a2b7"/>
    </g>
    <g id="グループ_8786-5" data-name="グループ 8786" transform="translate(752 0.001)">
      <path id="パス_55063-5" data-name="パス 55063" d="M460.271,1079.269c-17.168,0-32.274-6.7-50.333-16.166-14.631-7.668-29.16-11.4-44.413-11.4s-29.782,3.728-44.411,11.4c-18.061,9.466-32.174,16.166-49.343,16.166v29.716c11.709,0,20.693-.3,47.385-14.076,18.135-9.356,28.124-14.511,46.369-14.511s28.232,5.154,46.365,14.511c26.69,13.769,36.672,14.076,48.381,14.076Z" transform="translate(-271.771 -1022.016)" fill="#53a2b7"/>
      <path id="パス_55064-5" data-name="パス 55064" d="M460.271,1098.433c-17.168,0-32.274-6.7-50.333-16.165-14.631-7.668-29.16-11.394-44.413-11.394s-29.782,3.726-44.411,11.394c-18.061,9.465-32.174,16.165-49.343,16.165v21.076h188.5Z" transform="translate(-271.771 -1004.147)" fill="#53a2b7"/>
      <path id="パス_55065-5" data-name="パス 55065" d="M460.271,1063.906c-17.26,0-31.441-6.7-49.6-16.166-14.709-7.668-29.315-11.4-44.65-11.4s-29.941,3.728-44.648,11.4c-18.158,9.466-32.346,16.166-49.606,16.166v22.369c11.771,0,20.8-.3,47.638-14.077,18.231-9.355,28.274-14.511,46.616-14.511s28.383,5.154,46.612,14.511c26.832,13.769,35.862,14.077,47.634,14.077Z" transform="translate(-271.771 -1036.344)" fill="#53a2b7"/>
    </g>
  </g>
</svg>
