<svg xmlns="http://www.w3.org/2000/svg" width="74" height="74" viewBox="0 0 74 74">
  <g id="グループ_10407" data-name="グループ 10407" transform="translate(0)">
    <g id="レイヤー_2" data-name="レイヤー 2" transform="translate(6.74 6.167)">
      <g id="LINE_LOGO" data-name="LINE LOGO">
        <g id="TYPE_A" data-name="TYPE A">
          <path id="パス_40044" data-name="パス 40044" d="M30.835,0A30.835,30.835,0,1,0,61.67,30.835,30.835,30.835,0,0,0,30.835,0ZM46.951,39.222c-4.3,4.975-13.927,10.987-16.116,11.907s-1.866-.586-1.778-1.1l.293-1.752a4.111,4.111,0,0,0-.057-1.855c-.226-.57-1.136-.869-1.8-1.028-9.867-1.285-17.165-8.176-17.165-16.4,0-9.178,9.2-16.651,20.51-16.651s20.51,7.472,20.51,16.651c0,3.669-1.424,6.979-4.4,10.237Z" fill="#fff"/>
          <path id="パス_40045" data-name="パス 40045" d="M50.15,47.77H48.711a.4.4,0,0,0-.4.4V57.1a.4.4,0,0,0,.4.4H50.15a.4.4,0,0,0,.4-.4V48.166a.4.4,0,0,0-.4-.4" transform="translate(-23.483 -23.22)" fill="#fff"/>
          <path id="パス_40046" data-name="パス 40046" d="M63.494,47.77H62.055a.4.4,0,0,0-.4.4v5.309l-4.111-5.53-.015-.057h0v-.026H55.791a.4.4,0,0,0-.4.4V57.1a.4.4,0,0,0,.4.4h1.454a.4.4,0,0,0,.4-.4V51.8l4.111,5.535a.458.458,0,0,0,.1.1h.057a.328.328,0,0,0,.1,0h1.439a.4.4,0,0,0,.4-.4V48.166a.4.4,0,0,0-.4-.4" transform="translate(-26.924 -23.22)" fill="#fff"/>
          <path id="パス_40047" data-name="パス 40047" d="M39.346,55.263H35.44v-7.1a.4.4,0,0,0-.4-.4H33.621a.4.4,0,0,0-.4.4V57.1h0a.411.411,0,0,0,.113.278h0a.391.391,0,0,0,.278.113h5.735a.4.4,0,0,0,.4-.4V55.653a.4.4,0,0,0-.4-.4" transform="translate(-16.148 -23.22)" fill="#fff"/>
          <path id="パス_40048" data-name="パス 40048" d="M80.821,50.006a.4.4,0,0,0,.4-.4V48.171a.4.4,0,0,0-.4-.4H75.07a.375.375,0,0,0-.272.113h0a.4.4,0,0,0-.108.272h0V57.1h0a.391.391,0,0,0,.113.278h0a.385.385,0,0,0,.272.113h5.746a.4.4,0,0,0,.4-.4V55.653a.4.4,0,0,0-.4-.4H76.9v-1.5h3.911a.4.4,0,0,0,.4-.4V51.917a.4.4,0,0,0-.4-.4H76.9V50.006Z" transform="translate(-36.306 -23.22)" fill="#fff"/>
        </g>
      </g>
    </g>
    <rect id="長方形_5730" data-name="長方形 5730" width="74" height="74" transform="translate(0)" fill="none"/>
  </g>
</svg>
