<svg xmlns="http://www.w3.org/2000/svg" width="68" height="68" viewBox="0 0 68 68">
  <g id="グループ_8605" data-name="グループ 8605" transform="translate(0 -0.001)">
    <rect id="長方形_5732" data-name="長方形 5732" width="68" height="68" transform="translate(0 0.001)" fill="none"/>
    <g id="レイヤー_2" data-name="レイヤー 2" transform="translate(0 9.955)">
      <g id="レイヤー_1" data-name="レイヤー 1">
        <path id="パス_54912" data-name="パス 54912" d="M65.815,7.345A8.423,8.423,0,0,0,59.847,1.4C54.6,0,33.593,0,33.593,0S12.577,0,7.345,1.4A8.412,8.412,0,0,0,1.4,7.345C0,12.582,0,23.516,0,23.516S0,34.45,1.4,39.688a8.412,8.412,0,0,0,5.94,5.94c5.238,1.383,26.248,1.383,26.248,1.383s21.016,0,26.254-1.4a8.423,8.423,0,0,0,5.968-5.918c1.4-5.238,1.4-16.172,1.4-16.172S67.186,12.582,65.815,7.345ZM26.873,33.593V13.439l17.46,10.077Z" fill="#222"/>
      </g>
    </g>
  </g>
</svg>
