<svg xmlns="http://www.w3.org/2000/svg" width="74" height="74" viewBox="0 0 74 74">
  <g id="グループ_10406" data-name="グループ 10406" transform="translate(0.001)">
    <rect id="長方形_5731" data-name="長方形 5731" width="74" height="74" transform="translate(-0.001)" fill="none"/>
    <g id="レイヤー_2" data-name="レイヤー 2" transform="translate(5.57 6.167)">
      <g id="使用アイコン">
        <path id="パス_1592" data-name="パス 1592" d="M30.839,5.558c8.234,0,9.2,0,12.458.175A17.222,17.222,0,0,1,49.021,6.8,9.647,9.647,0,0,1,52.57,9.107a9.528,9.528,0,0,1,2.3,3.541,17.055,17.055,0,0,1,1.064,5.725c.151,3.255.175,4.232.175,12.466s0,9.2-.175,12.458a17.007,17.007,0,0,1-1.064,5.725,10.155,10.155,0,0,1-5.852,5.852A17.007,17.007,0,0,1,43.3,55.937c-3.255.151-4.224.175-12.458.175s-9.21,0-12.466-.175a17.055,17.055,0,0,1-5.725-1.064,9.528,9.528,0,0,1-3.541-2.3A9.647,9.647,0,0,1,6.8,49.021,17.222,17.222,0,0,1,5.733,43.3c-.175-3.255-.175-4.224-.175-12.458s0-9.21.175-12.466A17.269,17.269,0,0,1,6.8,12.648,9.615,9.615,0,0,1,9.107,9.107,9.615,9.615,0,0,1,12.648,6.8a17.269,17.269,0,0,1,5.725-1.064c3.255-.175,4.232-.175,12.466-.175m0-5.558c-8.377,0-9.4,0-12.72.183A22.629,22.629,0,0,0,10.64,1.588,15.086,15.086,0,0,0,5.177,5.177,15.086,15.086,0,0,0,1.588,10.64,22.629,22.629,0,0,0,.183,18.119C0,21.438,0,22.462,0,30.839s0,9.425.183,12.7a22.684,22.684,0,0,0,1.405,7.5,15.022,15.022,0,0,0,3.557,5.455,15.086,15.086,0,0,0,5.463,3.557,22.629,22.629,0,0,0,7.479,1.437c3.3.151,4.343.183,12.7.183s9.425,0,12.7-.183a22.685,22.685,0,0,0,7.487-1.437,15.8,15.8,0,0,0,9.067-9.012,22.684,22.684,0,0,0,1.437-7.487c.151-3.287.183-4.343.183-12.7s0-9.425-.183-12.7a22.629,22.629,0,0,0-1.437-7.479A15.086,15.086,0,0,0,56.493,5.2a15.022,15.022,0,0,0-5.455-3.613A22.684,22.684,0,0,0,43.551.183C40.263,0,39.207,0,30.839,0Z" fill="#fff"/>
        <path id="パス_1593" data-name="パス 1593" d="M34.688,18.89a15.8,15.8,0,1,0,11.181,4.645A15.8,15.8,0,0,0,34.688,18.89Zm0,26.048A10.256,10.256,0,1,1,44.936,34.69,10.256,10.256,0,0,1,34.688,44.938Z" transform="translate(-3.849 -3.851)" fill="#fff"/>
        <ellipse id="楕円形_173" data-name="楕円形 173" cx="3.71" cy="3.71" rx="3.71" ry="3.71" transform="translate(43.582 10.675)" fill="#fff"/>
      </g>
    </g>
  </g>
</svg>
