<svg xmlns="http://www.w3.org/2000/svg" width="140.5" height="86.136" viewBox="0 0 140.5 86.136">
  <g id="グループ_10534" data-name="グループ 10534" transform="translate(0 -663.864)">
    <g id="グループ_8701" data-name="グループ 8701" transform="translate(0 686.031)">
      <path id="パス_54920" data-name="パス 54920" d="M412.271,1072.286c-12.865,0-23.435-5-36.967-12.07a69.334,69.334,0,0,0-66.559,0c-13.534,7.068-24.109,12.07-36.974,12.07v22.188c8.774,0,15.506-.227,35.507-10.51,13.589-6.985,21.074-10.835,34.746-10.835s21.155,3.848,34.743,10.835c20,10.281,26.73,10.51,35.5,10.51Z" transform="translate(-271.771 -1051.706)" fill="#53a2b7"/>
    </g>
    <path id="パス_54921" data-name="パス 54921" d="M412.271,1091.451c-12.865,0-23.435-5-36.967-12.07a69.344,69.344,0,0,0-66.559,0c-13.534,7.067-24.109,12.07-36.974,12.07v15.737h140.5Z" transform="translate(-271.771 -357.188)" fill="#53a2b7"/>
    <path id="パス_54922" data-name="パス 54922" d="M412.271,1056.923c-12.865,0-23.435-5-36.967-12.07a69.334,69.334,0,0,0-66.559,0c-13.534,7.068-24.109,12.07-36.974,12.07v16.7c8.774,0,15.506-.227,35.507-10.51,13.589-6.985,21.074-10.835,34.746-10.835s21.155,3.848,34.743,10.835c20,10.281,26.73,10.51,35.5,10.51Z" transform="translate(-271.771 -372.48)" fill="#53a2b7"/>
  </g>
</svg>
