<svg xmlns="http://www.w3.org/2000/svg" width="68" height="68" viewBox="0 0 68 68">
  <g id="グループ_8508" data-name="グループ 8508" transform="translate(-0.406 -0.001)">
    <rect id="長方形_5732" data-name="長方形 5732" width="68" height="68" transform="translate(0.406 0.001)" fill="none"/>
    <path id="パス_54881" data-name="パス 54881" d="M77.771,23.816a25.272,25.272,0,0,1-8.018,3.131A12.629,12.629,0,0,0,47.9,35.515a12.223,12.223,0,0,0,.328,2.882A35.87,35.87,0,0,1,22.184,25.2a12.655,12.655,0,0,0,3.93,16.861,12.433,12.433,0,0,1-5.725-1.585v.17A12.63,12.63,0,0,0,30.517,53.031a12.669,12.669,0,0,1-3.329.445,12.877,12.877,0,0,1-2.371-.223,12.655,12.655,0,0,0,11.791,8.764A25.651,25.651,0,0,1,17.9,67.258a35.8,35.8,0,0,0,19.363,5.673c23.241,0,35.949-19.258,35.949-35.949V35.358a25.612,25.612,0,0,0,6.3-6.55A25.035,25.035,0,0,1,72.255,30.8,12.655,12.655,0,0,0,77.771,23.816Z" transform="translate(-14.906 -13.713)" fill="#222"/>
  </g>
</svg>
