<svg xmlns="http://www.w3.org/2000/svg" width="74.004" height="74" viewBox="0 0 74.004 74">
  <g id="グループ_10405" data-name="グループ 10405" transform="translate(-0.001)">
    <rect id="長方形_5733" data-name="長方形 5733" width="74" height="74" transform="translate(0.005)" fill="none"/>
    <g id="レイヤー_2" data-name="レイヤー 2" transform="translate(0.001 10.503)">
      <g id="レイヤー_1" data-name="レイヤー 1" transform="translate(0)">
        <path id="パス_40126" data-name="パス 40126" d="M72.463,8.087a9.274,9.274,0,0,0-6.57-6.54C60.12,0,36.986,0,36.986,0S13.847,0,8.087,1.547a9.262,9.262,0,0,0-6.54,6.54C0,13.853,0,25.892,0,25.892S0,37.93,1.547,43.7a9.262,9.262,0,0,0,6.54,6.54c5.767,1.522,28.9,1.522,28.9,1.522s23.139,0,28.906-1.547a9.274,9.274,0,0,0,6.57-6.516C74,37.93,74,25.892,74,25.892S73.973,13.853,72.463,8.087Zm-42.875,28.9V14.8L48.812,25.892Z" transform="translate(0 0)" fill="#fff"/>
      </g>
    </g>
  </g>
</svg>
