<svg id="グループ_8748" data-name="グループ 8748" xmlns="http://www.w3.org/2000/svg" width="63.583" height="59.123" viewBox="0 0 63.583 59.123">
  <path id="パス_54975" data-name="パス 54975" d="M160.634,286.825c-7.306,1.193-9.908,6.3-9.246,10.836a8.337,8.337,0,0,0,4.549,6.543,6.318,6.318,0,0,0,3.635.558,1.424,1.424,0,0,0,1.253-1.4,1.279,1.279,0,0,0-.012-.177,1.434,1.434,0,0,0-1.6-1.23,3.788,3.788,0,0,1-1.99-.277,2.79,2.79,0,0,1-.965-.812,5.266,5.266,0,0,1-.316-5.1,6.029,6.029,0,0,1,5.116-3.617,5.952,5.952,0,0,1,5.229,1.521,8.625,8.625,0,0,1,1.865,7.214c-.826,5.576-4.794,8.2-12.863,8.491-10.493.383-42.938.542-43.2.542a1.424,1.424,0,0,0-1.421,1.417v.767a1.422,1.422,0,0,0,1.382,1.415c.24.008,28.641.721,41.293.721,1.3,0,2.508-.006,3.584-.024,10.017-.155,16.135-4.9,17.228-13.354a13.53,13.53,0,0,0-3.97-11.151A10.94,10.94,0,0,0,160.634,286.825Z" transform="translate(-110.674 -286.661)" fill="#b4b4b5"/>
  <path id="パス_54976" data-name="パス 54976" d="M146.421,305.036c-7.752-.305-31.378.432-32.1.46a1.42,1.42,0,0,0-1.356,1.415v.845a1.415,1.415,0,0,0,1.4,1.417c.116,0,18.236.151,30.407.507,8.578.253,9.525,3.841,9.49,6.52a5.242,5.242,0,0,1-1.84,4.214,4.346,4.346,0,0,1-3.457.947,4.681,4.681,0,0,1-3.113-2.078,2.671,2.671,0,0,1-.161-2.319,1.417,1.417,0,0,0-2.628-1.059,7.408,7.408,0,0,0-.161,6.6c.7,1.311,2.268,3.009,5.8,3.642a9.794,9.794,0,0,0,1.736.159,8.123,8.123,0,0,0,5.761-2.3,9.958,9.958,0,0,0,2.7-8.639C157.949,308.891,153.631,305.319,146.421,305.036Z" transform="translate(-108.299 -267.185)" fill="#b4b4b5"/>
</svg>
