<svg xmlns="http://www.w3.org/2000/svg" width="189" height="115.363" viewBox="0 0 189 115.363">
  <g id="グループ_10534" data-name="グループ 10534" transform="translate(0 0)">
    <path id="パス_55063" data-name="パス 55063" d="M460.771,1079.269c-17.306,0-31.524-6.7-49.728-16.166-14.748-7.668-29.393-11.4-44.768-11.4s-30.02,3.728-44.766,11.4c-18.206,9.466-32.432,16.166-49.737,16.166v29.716c11.8,0,20.859-.3,47.764-14.076,18.28-9.356,28.349-14.511,46.74-14.511s28.458,5.154,46.736,14.511c26.9,13.769,35.958,14.076,47.76,14.076Z" transform="translate(-271.771 -1022.016)" fill="#53a2b7"/>
    <path id="パス_55064" data-name="パス 55064" d="M460.771,1098.433c-17.306,0-31.524-6.7-49.728-16.165-14.748-7.668-29.393-11.394-44.768-11.394s-30.02,3.726-44.766,11.394c-18.206,9.465-32.432,16.165-49.737,16.165v21.076h189Z" transform="translate(-271.771 -1004.146)" fill="#53a2b7"/>
    <path id="パス_55065" data-name="パス 55065" d="M460.771,1063.906c-17.306,0-31.524-6.7-49.728-16.166-14.748-7.668-29.393-11.4-44.768-11.4s-30.02,3.728-44.766,11.4c-18.206,9.466-32.432,16.166-49.737,16.166v22.369c11.8,0,20.859-.3,47.764-14.077,18.28-9.355,28.349-14.511,46.74-14.511s28.458,5.154,46.736,14.511c26.9,13.769,35.958,14.077,47.76,14.077Z" transform="translate(-271.771 -1036.344)" fill="#53a2b7"/>
  </g>
</svg>
