<svg id="グループ_10408" data-name="グループ 10408" xmlns="http://www.w3.org/2000/svg" width="74" height="74" viewBox="0 0 74 74">
  <rect id="長方形_5732" data-name="長方形 5732" width="74" height="74" transform="translate(0)" fill="none"/>
  <path id="パス_54881" data-name="パス 54881" d="M83.818,23.9a27.824,27.824,0,0,1-8.828,3.447,13.9,13.9,0,0,0-24.059,9.433,13.458,13.458,0,0,0,.361,3.173A39.493,39.493,0,0,1,22.617,25.433,13.934,13.934,0,0,0,26.944,44a13.689,13.689,0,0,1-6.3-1.745v.188A13.905,13.905,0,0,0,31.792,56.07a13.949,13.949,0,0,1-3.665.49,14.179,14.179,0,0,1-2.611-.245A13.934,13.934,0,0,0,38.5,65.965a28.243,28.243,0,0,1-20.6,5.77A39.421,39.421,0,0,0,39.219,77.98c25.588,0,39.58-21.2,39.58-39.58V36.612A28.2,28.2,0,0,0,85.737,29.4a27.564,27.564,0,0,1-7.991,2.192A13.934,13.934,0,0,0,83.818,23.9Z" transform="translate(-14.835 -13.462)" fill="#fff"/>
</svg>
