<svg xmlns="http://www.w3.org/2000/svg" xmlns:xlink="http://www.w3.org/1999/xlink" width="1260.5" height="86" viewBox="0 0 1260.5 86">
  <defs>
    <clipPath id="clip-path">
      <rect width="1260.5" height="86" fill="none"/>
    </clipPath>
  </defs>
  <g id="リピートグリッド_1" data-name="リピートグリッド 1" clip-path="url(#clip-path)">
    <g id="グループ_8739" data-name="グループ 8739" transform="translate(0 -663.864)">
      <g id="グループ_8701" data-name="グループ 8701" transform="translate(0 686.031)">
        <path id="パス_54920" data-name="パス 54920" d="M412.271,1072.286c-12.865,0-23.435-5-36.967-12.07a69.334,69.334,0,0,0-66.559,0c-13.534,7.068-24.109,12.07-36.974,12.07v22.188c8.774,0,15.506-.227,35.507-10.51,13.589-6.985,21.074-10.835,34.746-10.835s21.155,3.848,34.743,10.835c20,10.281,26.73,10.51,35.5,10.51Z" transform="translate(-271.771 -1051.706)" fill="#53a2b7"/>
      </g>
      <path id="パス_54921" data-name="パス 54921" d="M412.271,1091.451c-12.865,0-23.435-5-36.967-12.07a69.344,69.344,0,0,0-66.559,0c-13.534,7.067-24.109,12.07-36.974,12.07v15.737h140.5Z" transform="translate(-271.771 -357.188)" fill="#53a2b7"/>
      <path id="パス_54922" data-name="パス 54922" d="M412.271,1056.923c-12.865,0-23.435-5-36.967-12.07a69.334,69.334,0,0,0-66.559,0c-13.534,7.068-24.109,12.07-36.974,12.07v16.7c8.774,0,15.506-.227,35.507-10.51,13.589-6.985,21.074-10.835,34.746-10.835s21.155,3.848,34.743,10.835c20,10.281,26.73,10.51,35.5,10.51Z" transform="translate(-271.771 -372.48)" fill="#53a2b7"/>
    </g>
    <g id="グループ_8739-2" data-name="グループ 8739" transform="translate(140 -663.864)">
      <g id="グループ_8701-2" data-name="グループ 8701" transform="translate(0 686.031)">
        <path id="パス_54920-2" data-name="パス 54920" d="M412.271,1072.286c-12.865,0-23.435-5-36.967-12.07a69.334,69.334,0,0,0-66.559,0c-13.534,7.068-24.109,12.07-36.974,12.07v22.188c8.774,0,15.506-.227,35.507-10.51,13.589-6.985,21.074-10.835,34.746-10.835s21.155,3.848,34.743,10.835c20,10.281,26.73,10.51,35.5,10.51Z" transform="translate(-271.771 -1051.706)" fill="#53a2b7"/>
      </g>
      <path id="パス_54921-2" data-name="パス 54921" d="M412.271,1091.451c-12.865,0-23.435-5-36.967-12.07a69.344,69.344,0,0,0-66.559,0c-13.534,7.067-24.109,12.07-36.974,12.07v15.737h140.5Z" transform="translate(-271.771 -357.188)" fill="#53a2b7"/>
      <path id="パス_54922-2" data-name="パス 54922" d="M412.271,1056.923c-12.865,0-23.435-5-36.967-12.07a69.334,69.334,0,0,0-66.559,0c-13.534,7.068-24.109,12.07-36.974,12.07v16.7c8.774,0,15.506-.227,35.507-10.51,13.589-6.985,21.074-10.835,34.746-10.835s21.155,3.848,34.743,10.835c20,10.281,26.73,10.51,35.5,10.51Z" transform="translate(-271.771 -372.48)" fill="#53a2b7"/>
    </g>
    <g id="グループ_8739-3" data-name="グループ 8739" transform="translate(280 -663.864)">
      <g id="グループ_8701-3" data-name="グループ 8701" transform="translate(0 686.031)">
        <path id="パス_54920-3" data-name="パス 54920" d="M412.271,1072.286c-12.865,0-23.435-5-36.967-12.07a69.334,69.334,0,0,0-66.559,0c-13.534,7.068-24.109,12.07-36.974,12.07v22.188c8.774,0,15.506-.227,35.507-10.51,13.589-6.985,21.074-10.835,34.746-10.835s21.155,3.848,34.743,10.835c20,10.281,26.73,10.51,35.5,10.51Z" transform="translate(-271.771 -1051.706)" fill="#53a2b7"/>
      </g>
      <path id="パス_54921-3" data-name="パス 54921" d="M412.271,1091.451c-12.865,0-23.435-5-36.967-12.07a69.344,69.344,0,0,0-66.559,0c-13.534,7.067-24.109,12.07-36.974,12.07v15.737h140.5Z" transform="translate(-271.771 -357.188)" fill="#53a2b7"/>
      <path id="パス_54922-3" data-name="パス 54922" d="M412.271,1056.923c-12.865,0-23.435-5-36.967-12.07a69.334,69.334,0,0,0-66.559,0c-13.534,7.068-24.109,12.07-36.974,12.07v16.7c8.774,0,15.506-.227,35.507-10.51,13.589-6.985,21.074-10.835,34.746-10.835s21.155,3.848,34.743,10.835c20,10.281,26.73,10.51,35.5,10.51Z" transform="translate(-271.771 -372.48)" fill="#53a2b7"/>
    </g>
    <g id="グループ_8739-4" data-name="グループ 8739" transform="translate(420 -663.864)">
      <g id="グループ_8701-4" data-name="グループ 8701" transform="translate(0 686.031)">
        <path id="パス_54920-4" data-name="パス 54920" d="M412.271,1072.286c-12.865,0-23.435-5-36.967-12.07a69.334,69.334,0,0,0-66.559,0c-13.534,7.068-24.109,12.07-36.974,12.07v22.188c8.774,0,15.506-.227,35.507-10.51,13.589-6.985,21.074-10.835,34.746-10.835s21.155,3.848,34.743,10.835c20,10.281,26.73,10.51,35.5,10.51Z" transform="translate(-271.771 -1051.706)" fill="#53a2b7"/>
      </g>
      <path id="パス_54921-4" data-name="パス 54921" d="M412.271,1091.451c-12.865,0-23.435-5-36.967-12.07a69.344,69.344,0,0,0-66.559,0c-13.534,7.067-24.109,12.07-36.974,12.07v15.737h140.5Z" transform="translate(-271.771 -357.188)" fill="#53a2b7"/>
      <path id="パス_54922-4" data-name="パス 54922" d="M412.271,1056.923c-12.865,0-23.435-5-36.967-12.07a69.334,69.334,0,0,0-66.559,0c-13.534,7.068-24.109,12.07-36.974,12.07v16.7c8.774,0,15.506-.227,35.507-10.51,13.589-6.985,21.074-10.835,34.746-10.835s21.155,3.848,34.743,10.835c20,10.281,26.73,10.51,35.5,10.51Z" transform="translate(-271.771 -372.48)" fill="#53a2b7"/>
    </g>
    <g id="グループ_8739-5" data-name="グループ 8739" transform="translate(560 -663.864)">
      <g id="グループ_8701-5" data-name="グループ 8701" transform="translate(0 686.031)">
        <path id="パス_54920-5" data-name="パス 54920" d="M412.271,1072.286c-12.865,0-23.435-5-36.967-12.07a69.334,69.334,0,0,0-66.559,0c-13.534,7.068-24.109,12.07-36.974,12.07v22.188c8.774,0,15.506-.227,35.507-10.51,13.589-6.985,21.074-10.835,34.746-10.835s21.155,3.848,34.743,10.835c20,10.281,26.73,10.51,35.5,10.51Z" transform="translate(-271.771 -1051.706)" fill="#53a2b7"/>
      </g>
      <path id="パス_54921-5" data-name="パス 54921" d="M412.271,1091.451c-12.865,0-23.435-5-36.967-12.07a69.344,69.344,0,0,0-66.559,0c-13.534,7.067-24.109,12.07-36.974,12.07v15.737h140.5Z" transform="translate(-271.771 -357.188)" fill="#53a2b7"/>
      <path id="パス_54922-5" data-name="パス 54922" d="M412.271,1056.923c-12.865,0-23.435-5-36.967-12.07a69.334,69.334,0,0,0-66.559,0c-13.534,7.068-24.109,12.07-36.974,12.07v16.7c8.774,0,15.506-.227,35.507-10.51,13.589-6.985,21.074-10.835,34.746-10.835s21.155,3.848,34.743,10.835c20,10.281,26.73,10.51,35.5,10.51Z" transform="translate(-271.771 -372.48)" fill="#53a2b7"/>
    </g>
    <g id="グループ_8739-6" data-name="グループ 8739" transform="translate(700 -663.864)">
      <g id="グループ_8701-6" data-name="グループ 8701" transform="translate(0 686.031)">
        <path id="パス_54920-6" data-name="パス 54920" d="M412.271,1072.286c-12.865,0-23.435-5-36.967-12.07a69.334,69.334,0,0,0-66.559,0c-13.534,7.068-24.109,12.07-36.974,12.07v22.188c8.774,0,15.506-.227,35.507-10.51,13.589-6.985,21.074-10.835,34.746-10.835s21.155,3.848,34.743,10.835c20,10.281,26.73,10.51,35.5,10.51Z" transform="translate(-271.771 -1051.706)" fill="#53a2b7"/>
      </g>
      <path id="パス_54921-6" data-name="パス 54921" d="M412.271,1091.451c-12.865,0-23.435-5-36.967-12.07a69.344,69.344,0,0,0-66.559,0c-13.534,7.067-24.109,12.07-36.974,12.07v15.737h140.5Z" transform="translate(-271.771 -357.188)" fill="#53a2b7"/>
      <path id="パス_54922-6" data-name="パス 54922" d="M412.271,1056.923c-12.865,0-23.435-5-36.967-12.07a69.334,69.334,0,0,0-66.559,0c-13.534,7.068-24.109,12.07-36.974,12.07v16.7c8.774,0,15.506-.227,35.507-10.51,13.589-6.985,21.074-10.835,34.746-10.835s21.155,3.848,34.743,10.835c20,10.281,26.73,10.51,35.5,10.51Z" transform="translate(-271.771 -372.48)" fill="#53a2b7"/>
    </g>
    <g id="グループ_8739-7" data-name="グループ 8739" transform="translate(840 -663.864)">
      <g id="グループ_8701-7" data-name="グループ 8701" transform="translate(0 686.031)">
        <path id="パス_54920-7" data-name="パス 54920" d="M412.271,1072.286c-12.865,0-23.435-5-36.967-12.07a69.334,69.334,0,0,0-66.559,0c-13.534,7.068-24.109,12.07-36.974,12.07v22.188c8.774,0,15.506-.227,35.507-10.51,13.589-6.985,21.074-10.835,34.746-10.835s21.155,3.848,34.743,10.835c20,10.281,26.73,10.51,35.5,10.51Z" transform="translate(-271.771 -1051.706)" fill="#53a2b7"/>
      </g>
      <path id="パス_54921-7" data-name="パス 54921" d="M412.271,1091.451c-12.865,0-23.435-5-36.967-12.07a69.344,69.344,0,0,0-66.559,0c-13.534,7.067-24.109,12.07-36.974,12.07v15.737h140.5Z" transform="translate(-271.771 -357.188)" fill="#53a2b7"/>
      <path id="パス_54922-7" data-name="パス 54922" d="M412.271,1056.923c-12.865,0-23.435-5-36.967-12.07a69.334,69.334,0,0,0-66.559,0c-13.534,7.068-24.109,12.07-36.974,12.07v16.7c8.774,0,15.506-.227,35.507-10.51,13.589-6.985,21.074-10.835,34.746-10.835s21.155,3.848,34.743,10.835c20,10.281,26.73,10.51,35.5,10.51Z" transform="translate(-271.771 -372.48)" fill="#53a2b7"/>
    </g>
    <g id="グループ_8739-8" data-name="グループ 8739" transform="translate(980 -663.864)">
      <g id="グループ_8701-8" data-name="グループ 8701" transform="translate(0 686.031)">
        <path id="パス_54920-8" data-name="パス 54920" d="M412.271,1072.286c-12.865,0-23.435-5-36.967-12.07a69.334,69.334,0,0,0-66.559,0c-13.534,7.068-24.109,12.07-36.974,12.07v22.188c8.774,0,15.506-.227,35.507-10.51,13.589-6.985,21.074-10.835,34.746-10.835s21.155,3.848,34.743,10.835c20,10.281,26.73,10.51,35.5,10.51Z" transform="translate(-271.771 -1051.706)" fill="#53a2b7"/>
      </g>
      <path id="パス_54921-8" data-name="パス 54921" d="M412.271,1091.451c-12.865,0-23.435-5-36.967-12.07a69.344,69.344,0,0,0-66.559,0c-13.534,7.067-24.109,12.07-36.974,12.07v15.737h140.5Z" transform="translate(-271.771 -357.188)" fill="#53a2b7"/>
      <path id="パス_54922-8" data-name="パス 54922" d="M412.271,1056.923c-12.865,0-23.435-5-36.967-12.07a69.334,69.334,0,0,0-66.559,0c-13.534,7.068-24.109,12.07-36.974,12.07v16.7c8.774,0,15.506-.227,35.507-10.51,13.589-6.985,21.074-10.835,34.746-10.835s21.155,3.848,34.743,10.835c20,10.281,26.73,10.51,35.5,10.51Z" transform="translate(-271.771 -372.48)" fill="#53a2b7"/>
    </g>
    <g id="グループ_8739-9" data-name="グループ 8739" transform="translate(1120 -663.864)">
      <g id="グループ_8701-9" data-name="グループ 8701" transform="translate(0 686.031)">
        <path id="パス_54920-9" data-name="パス 54920" d="M412.271,1072.286c-12.865,0-23.435-5-36.967-12.07a69.334,69.334,0,0,0-66.559,0c-13.534,7.068-24.109,12.07-36.974,12.07v22.188c8.774,0,15.506-.227,35.507-10.51,13.589-6.985,21.074-10.835,34.746-10.835s21.155,3.848,34.743,10.835c20,10.281,26.73,10.51,35.5,10.51Z" transform="translate(-271.771 -1051.706)" fill="#53a2b7"/>
      </g>
      <path id="パス_54921-9" data-name="パス 54921" d="M412.271,1091.451c-12.865,0-23.435-5-36.967-12.07a69.344,69.344,0,0,0-66.559,0c-13.534,7.067-24.109,12.07-36.974,12.07v15.737h140.5Z" transform="translate(-271.771 -357.188)" fill="#53a2b7"/>
      <path id="パス_54922-9" data-name="パス 54922" d="M412.271,1056.923c-12.865,0-23.435-5-36.967-12.07a69.334,69.334,0,0,0-66.559,0c-13.534,7.068-24.109,12.07-36.974,12.07v16.7c8.774,0,15.506-.227,35.507-10.51,13.589-6.985,21.074-10.835,34.746-10.835s21.155,3.848,34.743,10.835c20,10.281,26.73,10.51,35.5,10.51Z" transform="translate(-271.771 -372.48)" fill="#53a2b7"/>
    </g>
    <g id="グループ_8739-10" data-name="グループ 8739" transform="translate(1260 -663.864)">
      <g id="グループ_8701-10" data-name="グループ 8701" transform="translate(0 686.031)">
        <path id="パス_54920-10" data-name="パス 54920" d="M412.271,1072.286c-12.865,0-23.435-5-36.967-12.07a69.334,69.334,0,0,0-66.559,0c-13.534,7.068-24.109,12.07-36.974,12.07v22.188c8.774,0,15.506-.227,35.507-10.51,13.589-6.985,21.074-10.835,34.746-10.835s21.155,3.848,34.743,10.835c20,10.281,26.73,10.51,35.5,10.51Z" transform="translate(-271.771 -1051.706)" fill="#53a2b7"/>
      </g>
      <path id="パス_54921-10" data-name="パス 54921" d="M412.271,1091.451c-12.865,0-23.435-5-36.967-12.07a69.344,69.344,0,0,0-66.559,0c-13.534,7.067-24.109,12.07-36.974,12.07v15.737h140.5Z" transform="translate(-271.771 -357.188)" fill="#53a2b7"/>
      <path id="パス_54922-10" data-name="パス 54922" d="M412.271,1056.923c-12.865,0-23.435-5-36.967-12.07a69.334,69.334,0,0,0-66.559,0c-13.534,7.068-24.109,12.07-36.974,12.07v16.7c8.774,0,15.506-.227,35.507-10.51,13.589-6.985,21.074-10.835,34.746-10.835s21.155,3.848,34.743,10.835c20,10.281,26.73,10.51,35.5,10.51Z" transform="translate(-271.771 -372.48)" fill="#53a2b7"/>
    </g>
  </g>
</svg>
