<svg xmlns="http://www.w3.org/2000/svg" width="296" height="148.457" viewBox="0 0 296 148.457">
  <g id="グループ_10455" data-name="グループ 10455" transform="translate(-286.932 -548.245)">
    <g id="グループ_8714" data-name="グループ 8714" transform="translate(286.932 562.365)">
      <path id="パス_54945" data-name="パス 54945" d="M321.563,577.285,348.629,594.3a3.888,3.888,0,0,0,3.871-.049L369.5,582.952a4,4,0,0,1,3.9-.093l14.311,8.557a2.675,2.675,0,0,0,3.391-.639l14.236-18.365H290.245a3.323,3.323,0,0,0-3.313,3.312v27.788l30.914-25.97A3.378,3.378,0,0,1,321.563,577.285Z" transform="translate(-286.932 -572.411)" fill="#de4e88"/>
      <path id="パス_54946" data-name="パス 54946" d="M609.143,591.664l15.14-8.646a4.2,4.2,0,0,1,3.943.1l17.728,11.363a4.074,4.074,0,0,0,3.917.056l25.014-15.044a3.6,3.6,0,0,1,3.786.239L709.474,604V575.723a3.322,3.322,0,0,0-3.312-3.312H591.332l14.4,18.574A2.741,2.741,0,0,0,609.143,591.664Z" transform="translate(-413.474 -572.411)" fill="#de4e88"/>
      <path id="パス_54947" data-name="パス 54947" d="M318.48,586.742a3.377,3.377,0,0,1,3.717-.256l26.545,16.683a3.889,3.889,0,0,0,3.872-.049l17.092-11.359a4,4,0,0,1,3.9-.093l15.945,9.534a2.676,2.676,0,0,0,3.391-.639l21.821-28.152h-9.43L391.1,590.776a2.675,2.675,0,0,1-3.391.639l-14.311-8.557a4,4,0,0,0-3.9.093L352.5,594.246a3.888,3.888,0,0,1-3.871.049l-27.067-17.011a3.378,3.378,0,0,0-3.717.256l-30.914,25.97v9.734Z" transform="translate(-286.932 -572.411)" fill="#c9467c"/>
      <path id="パス_54948" data-name="パス 54948" d="M597.095,600.668a2.74,2.74,0,0,0,3.414.678l16.842-9.619a4.194,4.194,0,0,1,3.943.1l17.826,11.426a4.073,4.073,0,0,0,3.917.056L667.6,588.533a3.6,3.6,0,0,1,3.787.238l31.373,24.718V604l-30.8-24.269a3.6,3.6,0,0,0-3.786-.239l-25.014,15.044a4.074,4.074,0,0,1-3.917-.056l-17.728-11.363a4.194,4.194,0,0,0-3.943-.1l-15.14,8.646a2.741,2.741,0,0,1-3.415-.679l-14.4-18.574h-9.43Z" transform="translate(-406.765 -572.411)" fill="#c9467c"/>
      <path id="パス_54949" data-name="パス 54949" d="M286.932,622.978l32.181-27.035a3.376,3.376,0,0,1,3.717-.256l26.025,16.356a3.889,3.889,0,0,0,3.872-.049l17.189-11.423a4,4,0,0,1,3.9-.093l17.579,10.511a2.675,2.675,0,0,0,3.391-.639l29.407-37.939h-9.43l-21.821,28.152a2.676,2.676,0,0,1-3.391.639L373.6,591.668a4,4,0,0,0-3.9.093L352.614,603.12a3.889,3.889,0,0,1-3.872.049L322.2,586.486a3.377,3.377,0,0,0-3.717.256l-31.548,26.5v9.734Z" transform="translate(-286.932 -572.411)" fill="#b03c6d"/>
      <path id="パス_54950" data-name="パス 54950" d="M660.9,588.533l-24.569,14.776a4.073,4.073,0,0,1-3.917-.056l-17.825-11.426a4.194,4.194,0,0,0-3.943-.1L593.8,601.346a2.74,2.74,0,0,1-3.414-.678l-21.9-28.257h-9.43L588.46,610.35a2.74,2.74,0,0,0,3.414.679l18.545-10.591a4.193,4.193,0,0,1,3.943.1l17.923,11.488a4.072,4.072,0,0,0,3.916.056l24.125-14.509a3.6,3.6,0,0,1,3.786.239l31.943,25.166V613.49l-31.373-24.718A3.6,3.6,0,0,0,660.9,588.533Z" transform="translate(-400.056 -572.411)" fill="#b03c6d"/>
    </g>
    <g id="グループ_8715" data-name="グループ 8715" transform="translate(425.449 570.941)">
      <path id="パス_54951" data-name="パス 54951" d="M542.02,599.963a.438.438,0,0,0-.8.263c.052,1.49-.407,3.289-1.54,3.718a1.694,1.694,0,0,1-1.551-.02,1.492,1.492,0,0,1-.543-1.277,4.439,4.439,0,0,1,.992-2.083,8.633,8.633,0,0,0,1.065-1.9c1.037-2.993-1.352-5.418-3.931-6.69-1.41-.695-2.547-3.539-2.867-4.576a.438.438,0,0,0-.78-.119c-.941,1.369-1.8,3.02-1.078,4.889.082.212.167.423.251.632.562,1.4,1.093,2.727.724,3.735-.108.3-.264.478-.425.5-.189.024-.53-.141-.911-.681a3.578,3.578,0,0,0-3.614-1.594.439.439,0,0,0-.259.708A4.4,4.4,0,0,1,528,598.495a2.036,2.036,0,0,1-1,1.4,6.348,6.348,0,0,0-2.839,4.334,7.159,7.159,0,0,0,1.3,6.03c2.111,2.638,5.936,3.46,7.664,3.525q.325.013.638.013c6.9,0,9.29-4.435,9.583-6.851A11.491,11.491,0,0,0,542.02,599.963Zm-12.747-.84a5.284,5.284,0,0,0-.67-2.876,1.865,1.865,0,0,1,.953.815,2.086,2.086,0,0,0,1.739.985,2.026,2.026,0,0,0,1.886-1.635c.259-1.2-.241-2.482-.933-4.254l-.157-.4a3.116,3.116,0,0,1,.236-2.531c.529,1.389,1.329,3.3,2.886,4.2.179.1.374.205.578.312,1.311.685,2.8,1.462,2.553,3.951a5.4,5.4,0,0,1-.9,2.475c-.113.161-.23.318-.345.471a3.582,3.582,0,0,0-1.007,2.409,2.753,2.753,0,0,0,2.93,2.469,3.327,3.327,0,0,0,.979-.147,3.369,3.369,0,0,0,1.818-2.411,11.125,11.125,0,0,1,.085,3.738c-.144.981-1.215,5.883-8.207,5.986h-.011c-.176.006-.289,0-.472-.008l-.081,0a9.9,9.9,0,0,1-6.56-3.26,6.469,6.469,0,0,1-1.013-4.927,4.953,4.953,0,0,1,1.864-3.342c.216-.182.428-.331.625-.469A2.355,2.355,0,0,0,529.273,599.123Z" transform="translate(-524.002 -587.09)" fill="#e73828"/>
    </g>
    <g id="グループ_8717" data-name="グループ 8717" transform="translate(291.581 566.049)" opacity="0.7">
      <g id="グループ_8716" data-name="グループ 8716" transform="translate(0 0.424)">
        <path id="パス_54952" data-name="パス 54952" d="M298.169,584.8a4.37,4.37,0,0,1,5.208-4.294,5.31,5.31,0,1,0-.15,8.61,4.348,4.348,0,0,1-5.059-4.316Z" transform="translate(-294.888 -579.442)" fill="#fff" stroke="#fff" stroke-linecap="round" stroke-linejoin="round" stroke-width="0.5"/>
      </g>
      <circle id="楕円形_603" data-name="楕円形 603" cx="1.732" cy="1.732" r="1.732" transform="translate(73.583 0.251)" fill="#fff"/>
      <circle id="楕円形_604" data-name="楕円形 604" cx="1.263" cy="1.263" r="1.263" transform="translate(42.217 0)" fill="#fff"/>
      <circle id="楕円形_605" data-name="楕円形 605" cx="1.546" cy="1.546" r="1.546" transform="translate(98.188 17.641)" fill="#fff"/>
      <circle id="楕円形_606" data-name="楕円形 606" cx="1.129" cy="1.129" r="1.129" transform="translate(60.892 8.108)" fill="#fff"/>
      <circle id="楕円形_607" data-name="楕円形 607" cx="1.129" cy="1.129" r="1.129" transform="translate(48.492 16.506)" fill="#fff"/>
      <circle id="楕円形_608" data-name="楕円形 608" cx="1.434" cy="1.434" r="1.434" transform="translate(5.92 21.03)" fill="#fff"/>
      <circle id="楕円形_609" data-name="楕円形 609" cx="0.896" cy="0.896" r="0.896" transform="translate(30.134 5.577)" fill="#fff"/>
      <circle id="楕円形_610" data-name="楕円形 610" cx="0.882" cy="0.882" r="0.882" transform="translate(95.568 4.599)" fill="#fff"/>
      <circle id="楕円形_611" data-name="楕円形 611" cx="1.129" cy="1.129" r="1.129" transform="translate(117.55 6.298)" fill="#fff"/>
      <circle id="楕円形_612" data-name="楕円形 612" cx="0.948" cy="0.948" r="0.948" transform="translate(226.657 10.685)" fill="#fff"/>
      <circle id="楕円形_613" data-name="楕円形 613" cx="0.948" cy="0.948" r="0.948" transform="translate(282.858 24.556)" fill="#fff"/>
      <circle id="楕円形_614" data-name="楕円形 614" cx="1.493" cy="1.493" r="1.493" transform="translate(203.432 10.893)" fill="#fff"/>
      <circle id="楕円形_615" data-name="楕円形 615" cx="1.493" cy="1.493" r="1.493" transform="translate(281.82 4.44)" fill="#fff"/>
      <circle id="楕円形_616" data-name="楕円形 616" cx="1.647" cy="1.647" r="1.647" transform="translate(188.904 3.159)" fill="#fff"/>
      <circle id="楕円形_617" data-name="楕円形 617" cx="1.246" cy="1.246" r="1.246" transform="translate(268.849 14.524)" fill="#fff"/>
      <circle id="楕円形_618" data-name="楕円形 618" cx="1.408" cy="1.408" r="1.408" transform="translate(239.761 15.994)" fill="#fff"/>
      <circle id="楕円形_619" data-name="楕円形 619" cx="1.408" cy="1.408" r="1.408" transform="translate(217.44 1.077)" fill="#fff"/>
      <circle id="楕円形_620" data-name="楕円形 620" cx="0.968" cy="0.968" r="0.968" transform="translate(177.57 8.851)" fill="#fff"/>
      <circle id="楕円形_621" data-name="楕円形 621" cx="1.129" cy="1.129" r="1.129" transform="translate(245.549 1.978)" fill="#fff"/>
    </g>
    <g id="グループ_8718" data-name="グループ 8718" transform="translate(289.526 621.599)">
      <path id="パス_54953" data-name="パス 54953" d="M313.162,673.862c-3.187.525-4.322,2.773-4.033,4.768a3.666,3.666,0,0,0,1.984,2.879,2.733,2.733,0,0,0,1.586.245.624.624,0,0,0,.546-.617.706.706,0,0,0,0-.079.628.628,0,0,0-.7-.541,1.639,1.639,0,0,1-.869-.122,1.212,1.212,0,0,1-.421-.358,2.335,2.335,0,0,1-.138-2.243,2.631,2.631,0,0,1,2.231-1.592,2.583,2.583,0,0,1,2.281.67,3.818,3.818,0,0,1,.813,3.174c-.361,2.455-2.091,3.607-5.61,3.737-4.576.168-18.728.237-18.84.238a.624.624,0,0,0-.62.623v.338a.624.624,0,0,0,.6.623c.1,0,12.492.317,18.01.317.567,0,1.094,0,1.564-.01,4.369-.069,7.038-2.156,7.513-5.877a5.984,5.984,0,0,0-1.731-4.907A4.745,4.745,0,0,0,313.162,673.862Z" transform="translate(-291.372 -673.789)" fill="#b4b4b5"/>
      <path id="パス_54954" data-name="パス 54954" d="M309.609,701.878c-3.411-.134-13.808.19-14.125.2a.624.624,0,0,0-.6.622v.372a.623.623,0,0,0,.615.624c.051,0,8.025.066,13.38.223,3.776.112,4.192,1.691,4.176,2.87a2.306,2.306,0,0,1-.809,1.854,1.916,1.916,0,0,1-1.521.417,2.059,2.059,0,0,1-1.37-.915,1.175,1.175,0,0,1-.071-1.021.623.623,0,0,0-1.156-.466,3.261,3.261,0,0,0-.071,2.906,3.33,3.33,0,0,0,2.552,1.6,4.365,4.365,0,0,0,.764.07,3.576,3.576,0,0,0,2.536-1.012,4.384,4.384,0,0,0,1.19-3.8C314.682,703.575,312.782,702,309.609,701.878Z" transform="translate(-292.834 -685.453)" fill="#b4b4b5"/>
    </g>
    <g id="グループ_8719" data-name="グループ 8719" transform="translate(552.862 624.093)">
      <path id="パス_54955" data-name="パス 54955" d="M769.2,701.741c-.115,0-14.539-.384-19.573-.307-4.369.069-7.037,2.156-7.514,5.877a5.991,5.991,0,0,0,1.731,4.908,4.7,4.7,0,0,0,3.308,1.338,5.283,5.283,0,0,0,.859-.072c3.187-.525,4.323-2.772,4.033-4.768a3.668,3.668,0,0,0-1.984-2.879,2.73,2.73,0,0,0-1.586-.245.623.623,0,0,0-.546.617.711.711,0,0,0,0,.079.624.624,0,0,0,.7.541,1.646,1.646,0,0,1,.869.121,1.217,1.217,0,0,1,.421.358,2.333,2.333,0,0,1,.138,2.243,2.63,2.63,0,0,1-2.231,1.592,2.579,2.579,0,0,1-2.281-.67,3.823,3.823,0,0,1-.813-3.174c.36-2.454,2.091-3.606,5.611-3.737,4.576-.168,18.727-.238,18.84-.238a.623.623,0,0,0,.62-.623v-.337A.624.624,0,0,0,769.2,701.741Z" transform="translate(-742.067 -687.771)" fill="#b4b4b5"/>
      <path id="パス_54956" data-name="パス 54956" d="M756.873,687.417c.583.023,1.282.032,2.047.032,3.708,0,11.816-.223,12.078-.235a.623.623,0,0,0,.6-.623v-.371a.623.623,0,0,0-.615-.624c-.051,0-8.025-.066-13.38-.223-3.776-.11-4.192-1.69-4.176-2.868a2.311,2.311,0,0,1,.809-1.856,1.908,1.908,0,0,1,1.521-.416,2.06,2.06,0,0,1,1.37.915,1.176,1.176,0,0,1,.071,1.02.623.623,0,0,0,1.155.466,3.256,3.256,0,0,0,.071-2.905,3.326,3.326,0,0,0-2.552-1.6,3.68,3.68,0,0,0-3.3.942,4.384,4.384,0,0,0-1.189,3.8C751.8,685.72,753.7,687.293,756.873,687.417Z" transform="translate(-745.917 -678.057)" fill="#b4b4b5"/>
    </g>
    <g id="グループ_8720" data-name="グループ 8720" transform="translate(286.932 548.245)">
      <path id="パス_54957" data-name="パス 54957" d="M551.712,586.847a4.782,4.782,0,0,0-5.111-.322l-24.125,14.509a2.919,2.919,0,0,1-2.684-.038l-17.922-11.487a5.383,5.383,0,0,0-5.153-.132l-18.545,10.591a1.573,1.573,0,0,1-1.911-.38L437.4,549.449a2.869,2.869,0,0,0-4.672,0l-38.862,50.14a1.51,1.51,0,0,1-1.869.352l-17.578-10.511a5.193,5.193,0,0,0-5.146.122l-17.188,11.423a2.73,2.73,0,0,1-2.6.033l-26.025-16.356a4.552,4.552,0,0,0-5.09.351l-31.43,26.4v3.026a1.118,1.118,0,0,0,.162-.11l32.772-27.527a2.221,2.221,0,0,1,2.343-.161l26.025,16.356a5.08,5.08,0,0,0,5.141-.065L370.562,591.5a2.84,2.84,0,0,1,2.653-.063l17.579,10.511a3.822,3.822,0,0,0,4.914-.926l38.862-50.14a.558.558,0,0,1,.978,0l38.864,50.14a3.889,3.889,0,0,0,4.917.978l18.545-10.591a3.043,3.043,0,0,1,2.733.07l17.922,11.487a5.263,5.263,0,0,0,5.149.074L547.8,588.528a2.44,2.44,0,0,1,2.462.155l32.665,25.728v-2.975Z" transform="translate(-286.932 -548.245)" fill="#135d39"/>
    </g>
    <g id="グループ_8721" data-name="グループ 8721" transform="translate(346.338 622.937)">
      <path id="パス_54958" data-name="パス 54958" d="M388.664,701.809a1.878,1.878,0,0,0,.1-.4.626.626,0,0,0,.015-.353.827.827,0,0,1-.015-.353,4.03,4.03,0,0,0,.088-.471c.019-.157-.143-.215-.2-.331a.427.427,0,0,1,.049-.287c.059-.1.018-.3.058-.38a3.98,3.98,0,0,1-.16-.791c.019-.294,0-.536.043-.831a3.4,3.4,0,0,1,.177-.662c.078-.206.085-.267.144-.464a1.982,1.982,0,0,0-.018-.338c-.106-.32-.235-.513-.155-.818a3.505,3.505,0,0,0,.117-.868q.03-1.413.03-2.811t.029-2.812q.06-1.206.133-2.414t.133-2.384q.029-1.177.029-2.325t.03-2.3q.059-.677.058-1.339t.03-1.369a.715.715,0,0,1,.029-.192c.019-.068.006-.23.109-.274a2.063,2.063,0,0,1,.419-.051,16.02,16.02,0,0,1,2-.016c.306,0,.867,0,1.183,0,.406,0,.84,0,1.236.016.22.006.4.008.665,0,.233,0,.475.022.7.009.292-.016.525-.02.771-.025a1.119,1.119,0,0,1,.367.087.536.536,0,0,1,.253.334c.006.133.051.24.051.4-.039.785-.044,1.321-.083,2.126s-.079,1.61-.117,2.414q0,.383.029.722c.019.226.03.466.03.721a3.44,3.44,0,0,0,0,.648.89.89,0,0,1-.236.647c-.04.1-.04.167,0,.206a.838.838,0,0,1,.147.854,7.073,7.073,0,0,0-.324.854.784.784,0,0,1,.383.6,3.28,3.28,0,0,1-.029.75,20.966,20.966,0,0,0-.177,4.151,10.145,10.145,0,0,1-.059,1.1q-.06.545-.117,1.1v1.531q-.03.47-.029.942c0,.314-.01.637-.03.97q-.03,1.089-.074,2.237t-.1,2.3a.667.667,0,0,1-.736.736c-.275,0-.417,0-.712.014s-.337-.148-.554-.235c-.116-.05-1.232.063-1.4-.015s-.525.076-.623.135a1.291,1.291,0,0,1-.511.041c-.074.012-.524-.127-.72-.127a5.976,5.976,0,0,0-1.187.019c-.268.1-.487,0-.8.039a.4.4,0,0,1-.363-.208A.772.772,0,0,1,388.664,701.809Zm9.064-.007a5.592,5.592,0,0,1,.084-1.273,13.937,13.937,0,0,0,.148-1.537,15.629,15.629,0,0,1,.006-2.085,4.2,4.2,0,0,0,.029-.868q-.03-.456-.029-.927c.019-.176,0-.419.006-.6s-.037-.542.082-.553a19.25,19.25,0,0,1,2.109-.025c.214,0,1.184-.015,1.68-.005.219,0,.911.028,1.12.025.538-.008,1.7.029,2.162.059a.4.4,0,0,1,.37.4q0,.525.014,1.05c.009.461.009.921-.013,1.382q-.06,1.223-.148,2.46c-.059.814.025,1.57-.014,2.375a1.278,1.278,0,0,1-.176.721,1.02,1.02,0,0,1-.706.162s-1.967.037-2.192.015-1.26.013-1.26.013-1.2-.017-1.427.027a7.875,7.875,0,0,1-1.048,0,.793.793,0,0,1-.545-.133A1.2,1.2,0,0,1,397.728,701.8Z" transform="translate(-388.604 -676.111)" fill="#2e2624"/>
      <path id="パス_54959" data-name="パス 54959" d="M603.663,702.135a.518.518,0,0,1-.019-.386,1.875,1.875,0,0,0,.1-.4.633.633,0,0,0,.015-.353c-.029-.1-.044-1.854-.025-1.991a3.807,3.807,0,0,0,.088-.472c.02-.156.023-.114-.134-.252a.963.963,0,0,1-.013-.366,30.687,30.687,0,0,0,.077-3.962c.019-.294.038-1.209.051-1.429a14.974,14.974,0,0,1-.03-1.62,3.483,3.483,0,0,0,.117-.868c.02-.942.03-.631.03-1.563s.306-3.93.325-4.872c.039-.8-.157-.885-.109-1.69a7.549,7.549,0,0,0,.071-2.252c-.111-.758.147-.326.166-1.091.039-.452-.142-.341-.142-.783s.11-.664.13-1.135a.71.71,0,0,1,.029-.192c.019-.068.016-.181.141-.2.3-.061,1.246-.09,1.534-.1.362-.013.723,0,1.111.026.433.025.739.012,1.077,0,.205-.005,1.075-.009,1.342,0a9.992,9.992,0,0,0,1.083-.017c.213-.016.424-.042.65-.079a1.748,1.748,0,0,1,.317.008.621.621,0,0,1,.237.189.659.659,0,0,1,.117.4q-.058,1.178-.117,2.385t-.118,2.414c0,.255.01,1.477.029,1.7s.03.466.03.722a3.518,3.518,0,0,0,0,.647.762.762,0,0,1-.1.643c-.04.1-.04.167,0,.206a.8.8,0,0,1,.008.858,1.219,1.219,0,0,0-.044.8c-.106.272.083.41.1.655a3.257,3.257,0,0,1-.029.751,12.239,12.239,0,0,0-.176,3.17,10.253,10.253,0,0,1-.059,1.1c-.04.363-.078.731-.118,1.1v1.531c-.019.313-.029.628-.029.941s-.01.638-.029.971q-.03,1.09-.074,2.237t-.1,2.3c-.021.49-.141.736-.613.736-.275,0-.387,0-.681.014a.838.838,0,0,1-.656-.279.25.25,0,0,0-.132-.074c-.05-.01-.481.181-.648.1s-.941-.061-1.1-.12a9.489,9.489,0,0,1-.94.18c-.11,0-.621-.109-.778-.03a7.233,7.233,0,0,1-1.319,0,1.915,1.915,0,0,0-.436-.04C603.812,702.3,603.752,702.234,603.663,702.135Zm9.169-8.1a.792.792,0,0,1,.545-.133s.406,0,.792,0c.19,0,.689,0,.82-.009.171-.006.793-.022,1.054-.032.346-.014.706.018.928.019.34,0,.77-.022,1.1-.016.48.008,1.282-.036,1.282-.036a1.443,1.443,0,0,1,.816.144c.1.108.031.548.051.921.039.8-.059.956,0,1.77s-.067,1.782-.027,2.6c.023.46.131,1.381.121,1.842q-.011.526-.013,1.051a.4.4,0,0,1-.37.4c-.331.022-.715.039-1.1.053s-1,.024-1.359.031c-.221,0-.854,0-1.187,0-.414,0-1.106.023-1.225.022-.187,0-.792-.094-1.011-.074a5.011,5.011,0,0,1-1.173.056c-.119-.011-.265-.172-.2-.611a2.039,2.039,0,0,0-.044-.53q0-.472.029-.928a13.946,13.946,0,0,0-.015-1.575,11.73,11.73,0,0,1,.02-2.349c0-.834.036-1.219.036-2.063A.8.8,0,0,1,612.832,694.03Z" transform="translate(-477.987 -676.081)" fill="#2e2624"/>
      <path id="パス_54960" data-name="パス 54960" d="M433.913,684.564a14.334,14.334,0,0,1,3.7-5.763,7.037,7.037,0,0,1,1.942-1.248c.7-.3,1.4-.653,2.075-1,.568-.148,1.292-.347,1.457-.37a13.7,13.7,0,0,1,2.272-.1,27.705,27.705,0,0,1,3.2.685,7.461,7.461,0,0,1,1.613.469,10.293,10.293,0,0,1,4.683,3.537,14.581,14.581,0,0,1,2.727,5.575,2.591,2.591,0,0,1,.061.98c-.035.326-.055.645-.06,1a.212.212,0,0,1-.215.208c-.724-.021-1.417.1-2.081.063l-2.173-.123-1.911-.061q-.956-.031-1.942-.092a8.668,8.668,0,0,1-1.156-.139,7.342,7.342,0,0,0-1.427.039c-1.15.041-1.631.04-2.812.112s-2.309.087-3.5.149c-.391-.019-.854-.034-.936-.034a11.688,11.688,0,0,1-1.587-.17,2.619,2.619,0,0,0-1.618.262,1.985,1.985,0,0,1-1.141.169q-.647-.077-1.233-.138a.536.536,0,0,1-.508-.293.973.973,0,0,1-.046-.57c.082-.576.164-.878.247-1.463A10.948,10.948,0,0,1,433.913,684.564Zm11.537,18.031c-.268,0-.924.072-1.21.056a14.661,14.661,0,0,1-1.713-.261,5.275,5.275,0,0,1-2.14-.412,17.6,17.6,0,0,1-3.114-1.787,10.833,10.833,0,0,1-2.743-3.036,12.809,12.809,0,0,1-1.572-3.565,3.848,3.848,0,0,1-.107-1.418c.043-.408.091-.939.107-1.46a.334.334,0,0,1,.327-.327c1.444-.028,2.909.071,4.345.056,2.439-.026,4.47-.148,7.288-.242,1.829-.061,4.06-.072,5.9-.129,2.13-.066,3.859-.22,5.991-.22.095,0,.25.018.284.147.044.163-.013.248.048.387a.747.747,0,0,1,.046.493,11.462,11.462,0,0,1-.539,3.3,12.233,12.233,0,0,1-1.526,3.236,9.78,9.78,0,0,1-3.359,3.205,30.618,30.618,0,0,1-4.254,1.726,6.26,6.26,0,0,1-1.05.154C445.973,702.542,445.758,702.595,445.45,702.595Z" transform="translate(-406.988 -676.079)" fill="#2e2624"/>
      <path id="パス_54961" data-name="パス 54961" d="M647.515,693.374c-.085-.607-.171-.889-.256-1.485a1,1,0,0,1,.048-.591.555.555,0,0,1,.526-.3q.606-.063,1.278-.144a2.057,2.057,0,0,1,1.182.176,8.331,8.331,0,0,0,2.178.026,18.878,18.878,0,0,1,2.115.034c1.235.064,4.323-.053,5.515-.011.4.022,1.656.116,2.057.116a8.41,8.41,0,0,0,1.133-.208s1.352-.075,2.013-.1,1.833.16,2.494.139l2.252-.128q1.033-.058,2.158-.089a.22.22,0,0,1,.223.214c.005.367-.132,1.183-.1,1.521a3.237,3.237,0,0,1-.177,1.117,13.026,13.026,0,0,1-2.557,5.382,10.665,10.665,0,0,1-4.853,3.666,7.716,7.716,0,0,1-1.672.486,28.7,28.7,0,0,1-3.319.711,14.246,14.246,0,0,1-2.355-.1c-.17-.024-.921-.23-1.51-.384-.7-.362-1.427-.729-2.15-1.038a7.3,7.3,0,0,1-2.013-1.294,14.859,14.859,0,0,1-3.833-5.974A11.342,11.342,0,0,1,647.515,693.374Zm13.382-16.85a6.459,6.459,0,0,1,1.088.16,31.705,31.705,0,0,1,4.408,1.788,10.136,10.136,0,0,1,3.482,3.322,12.681,12.681,0,0,1,1.581,3.354,10.09,10.09,0,0,1,.644,3.132.77.77,0,0,1-.048.511c-.063.145,0,.232-.049.4-.036.134-.2.152-.295.152-2.21,0-2.244-.266-4.464-.174-1.9.079-2.981.063-4.876,0-.552-.019-1.78.093-2.265.08-2.082-.056-3.656-.135-5.7-.206-.67-.023-3.229.241-4.007.241-1.868,0-2.089-.164-3.146-.185a.346.346,0,0,1-.338-.338c-.016-.539-.067-.892-.111-1.315a3.984,3.984,0,0,1,.112-1.469,14.658,14.658,0,0,1,1.63-3.913,11.215,11.215,0,0,1,2.843-3.147,18.223,18.223,0,0,1,3.226-1.852,5.47,5.47,0,0,1,2.218-.427,15.131,15.131,0,0,1,1.776-.271c.3-.018.977.058,1.255.058C660.173,676.427,660.4,676.482,660.9,676.523Z" transform="translate(-495.927 -676.199)" fill="#2e2624"/>
      <path id="パス_54962" data-name="パス 54962" d="M567.119,694.209a16.2,16.2,0,0,1-3.552,5.257,11.94,11.94,0,0,1-2.477,1.714c-.7.3-1.4.653-2.075,1-.568.148-1.293.347-1.457.37a13.7,13.7,0,0,1-2.272.1,27.686,27.686,0,0,1-3.2-.686,14.992,14.992,0,0,1-2.321-.538,7.077,7.077,0,0,1-3.975-3.468c-1.093-1.8-2-2.033-2.421-4.652a10.849,10.849,0,0,1-.238-2.015c.035-.325.062-.82.068-1.174a.212.212,0,0,1,.215-.207c.724.021,1.315.028,1.979.066.73.042,1.123.125,1.842.167.637.021,1.932.074,2.5.044a24.6,24.6,0,0,1,2.8.02,7.263,7.263,0,0,0,1.428.026c1.15-.041,1.631-.04,2.812-.111s2.309-.088,3.5-.149c.391.019.854.034.936.034.535.021,1.648-.029,2.171.064s.844-.124,1.423-.116a7.673,7.673,0,0,1,1.24-.033c.432.052.743-.039,1.133,0a.534.534,0,0,1,.508.293.969.969,0,0,1,.047.57q-.124.863-.247,1.742A10.794,10.794,0,0,1,567.119,694.209Zm-11.925-18.071c.268,0,.924-.073,1.211-.056a14.538,14.538,0,0,1,1.713.261,13.146,13.146,0,0,1,2.14.412,7.217,7.217,0,0,1,3.285,2.228,11.27,11.27,0,0,1,2.239,2.543,10.881,10.881,0,0,1,1.542,3.246,5.831,5.831,0,0,1,.358,1.727c-.043.408-.091.939-.106,1.46a.334.334,0,0,1-.327.327c-1.444.028-2.575-.019-4.012,0-2.439.026-3.979-.1-6.8-.01-1.829.061-4.551.324-6.389.38-2.129.065-4.093.027-6.225.027-.095,0-.249-.017-.284-.146s0-.691-.019-1.053a8.514,8.514,0,0,1,.479-2.927,12.229,12.229,0,0,1,1.526-3.236,9.785,9.785,0,0,1,3.359-3.205,30.63,30.63,0,0,1,4.253-1.726,6.278,6.278,0,0,1,1.05-.154C554.67,676.191,554.885,676.138,555.193,676.138Z" transform="translate(-452.839 -676.079)" fill="#2e2624"/>
      <path id="パス_54963" data-name="パス 54963" d="M505.926,683.1c-.022.682-.047,1.925-.1,2.585-.019.232-1.038.359-1.621.715a3.768,3.768,0,0,0-1.544,1.853,6.293,6.293,0,0,0-.227,1.5,7.529,7.529,0,0,0,.035,1.506,1.967,1.967,0,0,0,.646,1.3,11.058,11.058,0,0,0,1.284.979c.512.364,1.349.325,1.37.964q.064.895.048,1.805a7.11,7.11,0,0,1-.076,1.582c-.022.107.028.369,0,.586a1.022,1.022,0,0,0,.029.34c.043.148.091.293.144.431a3.8,3.8,0,0,1,.032.593,2.724,2.724,0,0,1,0,.877,2.415,2.415,0,0,0,.016,1.07.387.387,0,0,1-.128.431,1,1,0,0,1-.511.176,5.719,5.719,0,0,1-1.422-.112q-.688-.145-1.422-.336a11.244,11.244,0,0,1-2.316-.959q-1.1-.606-2.22-1.278a9.064,9.064,0,0,1-2.8-2.827,17.75,17.75,0,0,1-1.709-3.658c-.021-.106-.165-.966-.176-1.094a9.422,9.422,0,0,1-.154-1.583,22.145,22.145,0,0,1,.116-2.22,10.168,10.168,0,0,1,.55-2.642,14.251,14.251,0,0,1,1.326-2.523,13.675,13.675,0,0,1,3.226-3.322,14.587,14.587,0,0,1,4.153-2.077,2.664,2.664,0,0,0,.543-.207,1.214,1.214,0,0,1,.542-.144q.639-.063,1.278-.064c.412,0,.813-.01,1.205,0,.037,0,.041.034.041.051q0,.448.032.811a2.8,2.8,0,0,1-.032.734q-.031,1.054-.064,2.093T505.926,683.1Zm5.958,13.258c0,.426.042,1.063.02,1.468s-.032.82-.032,1.246c0,.4.014.751-.007,1.167a11.86,11.86,0,0,0,0,1.45c.036.278.038.646-.057.731s-.669-.039-.946,0a18.961,18.961,0,0,1-2.074-.063,5.265,5.265,0,0,0-.989-.021c-.184.016-.634.063-.634-.212,0-.256-.015-.983-.025-1.25a5.882,5.882,0,0,1,.1-.793c0-.746-.157-1.331-.135-2.065s.126-1.949.148-2.694c0-.362-.039-.723.057-.84s.432-.022.773-.022c.341-.021,1.826-.026,2.177-.016s1.058.02,1.505.02c.3.04.178.557.2.812S511.884,696.126,511.884,696.361Zm-4.263-19.026.8-.036a7.659,7.659,0,0,1,1.014.023c.264.049.794-.062,1.135-.046s1.226-.01,1.226-.01c.181,0,.446.145.435.326a13.491,13.491,0,0,0,0,1.545,7.771,7.771,0,0,1-.044,1.791,7.613,7.613,0,0,0-.075,1.483c-.011.532.11.917.09,1.448-.022.213-.038.415-.048.608s-.026.394-.048.607a1.008,1.008,0,0,1-.175.511.518.518,0,0,1-.5.16c-.164-.011-.687.029-1.312.02-.592-.009-.985-.068-1.135-.078a7.068,7.068,0,0,1-1.157.058c-.4-.042-.6.045-.6-.382.021-.619.13-1.275.154-1.968.026-.713-.033-1.464,0-2.091.033-.643.1-1.168.116-1.847.02-.625,0-1.4.02-2A.117.117,0,0,1,507.621,677.335Z" transform="translate(-432.045 -676.573)" fill="#2e2624"/>
    </g>
    <g id="グループ_8723" data-name="グループ 8723" transform="translate(286.932 661.823)">
      <g id="グループ_8722" data-name="グループ 8722" transform="translate(0 8.976)">
        <path id="パス_54964" data-name="パス 54964" d="M519.913,766.327c-5.191,0-9.456-2.025-14.916-4.887a27.887,27.887,0,0,0-26.855,0c-5.461,2.862-9.728,4.887-14.919,4.887s-9.456-2.025-14.916-4.887a27.888,27.888,0,0,0-26.856,0c-5.461,2.862-9.728,4.887-14.919,4.887s-9.456-2.025-14.916-4.887a27.888,27.888,0,0,0-26.856,0c-5.461,2.862-9.728,4.887-14.919,4.887s-9.456-2.025-14.916-4.887a27.888,27.888,0,0,0-26.856,0c-5.461,2.862-9.728,4.887-14.918,4.887a20.554,20.554,0,0,1-6.221-1.007v9.2a19.6,19.6,0,0,0,6.221.792c3.54,0,6.257-.092,14.326-4.256,5.484-2.828,8.5-4.387,14.019-4.387s8.536,1.558,14.019,4.387c8.069,4.162,10.785,4.256,14.325,4.256s6.257-.092,14.327-4.256c5.483-2.828,8.5-4.387,14.019-4.387s8.536,1.558,14.018,4.387c8.07,4.162,10.786,4.256,14.326,4.256s6.257-.092,14.327-4.256c5.483-2.828,8.5-4.387,14.019-4.387s8.536,1.558,14.018,4.387c8.07,4.162,10.785,4.256,14.326,4.256s6.257-.092,14.327-4.256c5.483-2.828,8.5-4.387,14.019-4.387s8.536,1.558,14.019,4.387c8.07,4.162,10.785,4.256,14.326,4.256s6.257-.092,14.327-4.256c5.483-2.828,8.5-4.387,14.019-4.387s8.536,1.558,14.019,4.387c8.07,4.162,10.785,4.256,14.326,4.256a19.436,19.436,0,0,0,6.329-.792v-9.2a20.6,20.6,0,0,1-6.329,1.007c-5.191,0-9.456-2.025-14.916-4.887a27.888,27.888,0,0,0-26.856,0C529.37,764.3,525.1,766.327,519.913,766.327Z" transform="translate(-286.932 -757.994)" fill="#008fb7"/>
      </g>
      <path id="パス_54965" data-name="パス 54965" d="M519.913,785.492c-5.191,0-9.456-2.026-14.916-4.888a27.887,27.887,0,0,0-26.855,0c-5.461,2.862-9.728,4.888-14.919,4.888s-9.456-2.026-14.916-4.888a27.888,27.888,0,0,0-26.856,0c-5.461,2.862-9.728,4.888-14.919,4.888s-9.456-2.026-14.916-4.888a27.888,27.888,0,0,0-26.856,0c-5.461,2.862-9.728,4.888-14.919,4.888s-9.456-2.026-14.916-4.888a27.888,27.888,0,0,0-26.856,0c-5.461,2.862-9.728,4.888-14.918,4.888a20.555,20.555,0,0,1-6.221-1.008v4.172a3.208,3.208,0,0,0,3.208,3.208H579.723a3.209,3.209,0,0,0,3.208-3.208v-4.172a20.591,20.591,0,0,1-6.329,1.008c-5.191,0-9.456-2.026-14.916-4.888a27.888,27.888,0,0,0-26.856,0C529.37,783.466,525.1,785.492,519.913,785.492Z" transform="translate(-286.932 -756.985)" fill="#008fb7"/>
      <path id="パス_54966" data-name="パス 54966" d="M519.913,757.727c3.54,0,6.257-.092,14.327-4.256,5.483-2.828,8.5-4.387,14.019-4.387s8.536,1.558,14.019,4.387c8.07,4.163,10.785,4.256,14.326,4.256a19.439,19.439,0,0,0,6.329-.792V749.94a20.61,20.61,0,0,1-6.329,1.024c-5.191,0-9.456-2.026-14.916-4.887a27.888,27.888,0,0,0-26.856,0c-5.461,2.861-9.727,4.887-14.918,4.887s-9.456-2.026-14.916-4.887a27.887,27.887,0,0,0-26.855,0c-5.461,2.861-9.728,4.887-14.919,4.887s-9.456-2.026-14.916-4.887a27.888,27.888,0,0,0-26.856,0c-5.461,2.861-9.728,4.887-14.919,4.887s-9.456-2.026-14.916-4.887a27.888,27.888,0,0,0-26.856,0c-5.461,2.861-9.728,4.887-14.919,4.887s-9.456-2.026-14.916-4.887a27.888,27.888,0,0,0-26.856,0c-5.461,2.861-9.728,4.887-14.918,4.887a20.528,20.528,0,0,1-6.221-.991v6.963a19.6,19.6,0,0,0,6.221.792c3.54,0,6.257-.092,14.326-4.256,5.484-2.828,8.5-4.387,14.019-4.387s8.536,1.558,14.019,4.387c8.069,4.163,10.785,4.256,14.325,4.256s6.257-.092,14.327-4.256c5.483-2.828,8.5-4.387,14.019-4.387s8.536,1.558,14.018,4.387c8.07,4.163,10.786,4.256,14.326,4.256s6.257-.092,14.327-4.256c5.483-2.828,8.5-4.387,14.019-4.387s8.536,1.558,14.018,4.387c8.07,4.163,10.785,4.256,14.326,4.256s6.257-.092,14.327-4.256c5.483-2.828,8.5-4.387,14.019-4.387s8.536,1.558,14.019,4.387C513.656,757.634,516.372,757.727,519.913,757.727Z" transform="translate(-286.932 -742.631)" fill="#008fb7"/>
    </g>
  </g>
</svg>
