<svg xmlns="http://www.w3.org/2000/svg" width="418" height="209.646" viewBox="0 0 418 209.646">
  <g id="グループ_8789" data-name="グループ 8789" transform="translate(-107.778 -204.774)">
    <g id="グループ_8727" data-name="グループ 8727" transform="translate(107.778 224.714)">
      <path id="パス_54967" data-name="パス 54967" d="M297.692,223.067l-39.609,50.761a1.234,1.234,0,0,1-.955.415,1.051,1.051,0,0,1-.536-.134l-24.823-14.844a8.158,8.158,0,0,0-8.2.2l-24.274,16.131a3.016,3.016,0,0,1-2.721.034l-36.752-23.1a6.877,6.877,0,0,0-3.67-1.008A7.16,7.16,0,0,0,151.6,253.1l-41.287,34.685V225.215a2.151,2.151,0,0,1,2.148-2.148H297.692m5.184-2.53H112.456a4.692,4.692,0,0,0-4.678,4.678v68l45.445-38.178a4.6,4.6,0,0,1,2.925-.983,4.393,4.393,0,0,1,2.324.621l36.751,23.1a5.09,5.09,0,0,0,2.667.694,5.15,5.15,0,0,0,2.8-.764l24.273-16.133a5.321,5.321,0,0,1,2.885-.783,5.189,5.189,0,0,1,2.62.653l24.825,14.844a3.573,3.573,0,0,0,1.834.492,3.754,3.754,0,0,0,2.955-1.394l42.793-54.842Z" transform="translate(-107.778 -220.537)" fill="#fff"/>
      <path id="パス_54968" data-name="パス 54968" d="M109.1,277.693l-.812-.968,43.5-36.547a5.436,5.436,0,0,1,5.992-.414l37.486,23.561a4.867,4.867,0,0,0,4.783-.062l24.135-16.039a6.228,6.228,0,0,1,6.18-.148l22.517,13.465a3.161,3.161,0,0,0,3.965-.749l30.1-38.829,1,.775-30.1,38.829a4.413,4.413,0,0,1-5.614,1.058l-22.517-13.463a5.023,5.023,0,0,0-4.832.116l-24.135,16.039a6.071,6.071,0,0,1-6.154.079l-37.486-23.56a4.146,4.146,0,0,0-4.506.311Z" transform="translate(-107.644 -220.424)" fill="#fff"/>
      <path id="パス_54969" data-name="パス 54969" d="M109.1,263.947l-.812-.968,42.608-35.8a5.428,5.428,0,0,1,5.994-.411l38.22,24.021a4.873,4.873,0,0,0,4.784-.062l24-15.948a6.227,6.227,0,0,1,6.181-.148l20.21,12.083a3.162,3.162,0,0,0,3.962-.748l19.388-25.009,1,.775-19.386,25.01a4.419,4.419,0,0,1-5.614,1.056l-20.21-12.083a5.017,5.017,0,0,0-4.831.116l-24,15.948a6.076,6.076,0,0,1-6.156.078l-38.221-24.021a4.138,4.138,0,0,0-4.506.309Z" transform="translate(-107.644 -220.424)" fill="#fff"/>
      <path id="パス_54970" data-name="パス 54970" d="M474.327,223.067a2.15,2.15,0,0,1,2.148,2.148V288l-41.012-32.313a7.34,7.34,0,0,0-4.54-1.484,7.112,7.112,0,0,0-3.676.966l-34.069,20.489a2.84,2.84,0,0,1-1.38.307,2.9,2.9,0,0,1-1.481-.348l-25.309-16.222a8.048,8.048,0,0,0-4.3-1.169,7.849,7.849,0,0,0-3.889.959L330.631,274.14a1.113,1.113,0,0,1-.544.129,1.337,1.337,0,0,1-1.028-.448l-39.6-50.755H474.327m0-2.53H284.271l42.793,54.842a3.849,3.849,0,0,0,3.023,1.421,3.621,3.621,0,0,0,1.8-.463l26.188-14.956a5.411,5.411,0,0,1,2.634-.626,5.548,5.548,0,0,1,2.934.769l25.31,16.221a5.373,5.373,0,0,0,2.846.749,5.3,5.3,0,0,0,2.684-.669l34.069-20.489a4.644,4.644,0,0,1,2.372-.6,4.894,4.894,0,0,1,2.975.941L479,293.212v-68a4.692,4.692,0,0,0-4.678-4.678Z" transform="translate(-61.006 -220.537)" fill="#fff"/>
      <path id="パス_54971" data-name="パス 54971" d="M474.574,278.19,431.21,244.024a4.455,4.455,0,0,0-4.629-.291l-34.7,20.868a6.341,6.341,0,0,1-6.2-.089l-25.172-16.135a5.3,5.3,0,0,0-4.913-.125l-23.783,13.584a4.523,4.523,0,0,1-5.636-1.12l-30.213-38.979,1-.775,30.214,38.977a3.253,3.253,0,0,0,4.007.8l23.783-13.584a6.5,6.5,0,0,1,6.223.159l25.172,16.135a5.125,5.125,0,0,0,4.864.068l34.7-20.868a5.747,5.747,0,0,1,6.063.383L475.357,277.2Z" transform="translate(-57.906 -220.424)" fill="#fff"/>
      <path id="パス_54972" data-name="パス 54972" d="M471.784,264.789l-42.56-33.532a4.454,4.454,0,0,0-4.629-.29l-35.324,21.245a6.34,6.34,0,0,1-6.2-.089L358.04,236.078a5.293,5.293,0,0,0-4.913-.126l-21.381,12.211a4.515,4.515,0,0,1-5.636-1.121l-19.613-25.3,1-.775,19.613,25.3a3.247,3.247,0,0,0,4.008.8L352.5,234.852a6.5,6.5,0,0,1,6.224.161l25.033,16.047a5.119,5.119,0,0,0,4.863.068l35.324-21.243a5.746,5.746,0,0,1,6.064.381l42.56,33.532Z" transform="translate(-55.116 -220.424)" fill="#fff"/>
    </g>
    <g id="グループ_8728" data-name="グループ 8728" transform="translate(303.387 236.826)">
      <path id="パス_54973" data-name="パス 54973" d="M287.853,248.292a.619.619,0,0,0-1.13.371c.073,2.1-.574,4.645-2.173,5.251a2.392,2.392,0,0,1-2.191-.028,2.11,2.11,0,0,1-.767-1.8,6.273,6.273,0,0,1,1.4-2.942,12.142,12.142,0,0,0,1.5-2.682c1.464-4.228-1.909-7.652-5.551-9.447-1.992-.982-3.6-5-4.049-6.463a.62.62,0,0,0-1.1-.168c-1.328,1.933-2.549,4.266-1.523,6.9q.177.45.355.893c.793,1.981,1.542,3.852,1.022,5.274-.153.419-.372.676-.6.706-.267.035-.748-.2-1.287-.961a5.056,5.056,0,0,0-5.1-2.25.618.618,0,0,0-.364,1c.927,1.14,1.985,2.807,1.763,4.274a2.877,2.877,0,0,1-1.405,1.972,8.965,8.965,0,0,0-4.009,6.119,10.111,10.111,0,0,0,1.829,8.517c2.98,3.724,8.382,4.886,10.822,4.978q.459.017.9.018c9.746,0,13.118-6.263,13.533-9.675C290.147,254.7,289.341,250.466,287.853,248.292Zm-18-1.187a7.486,7.486,0,0,0-.945-4.063,2.631,2.631,0,0,1,1.345,1.152,2.945,2.945,0,0,0,2.455,1.389,2.86,2.86,0,0,0,2.664-2.309c.366-1.7-.34-3.5-1.318-6.006l-.221-.568a4.4,4.4,0,0,1,.331-3.574c.748,1.961,1.877,4.654,4.076,5.925.252.146.527.29.816.44,1.852.968,3.952,2.065,3.607,5.58a7.628,7.628,0,0,1-1.27,3.5c-.159.228-.324.449-.486.665a5.055,5.055,0,0,0-1.423,3.4,3.889,3.889,0,0,0,4.138,3.488,4.663,4.663,0,0,0,1.383-.207c1.343-.415,2.094-1.914,2.568-3.405a15.706,15.706,0,0,1,.12,5.279c-.2,1.386-1.715,8.307-11.589,8.454h-.016a6.521,6.521,0,0,1-.665-.011l-.115,0a13.99,13.99,0,0,1-9.264-4.6,9.133,9.133,0,0,1-1.429-6.958,6.989,6.989,0,0,1,2.631-4.72c.3-.257.6-.467.882-.663A3.325,3.325,0,0,0,269.852,247.1Z" transform="translate(-262.409 -230.111)" fill="#fff"/>
    </g>
    <g id="グループ_8729" data-name="グループ 8729" transform="translate(114.136 229.917)">
      <path id="パス_54974" data-name="パス 54974" d="M125.123,226.5a7.635,7.635,0,0,0-4.611-1.542A7.707,7.707,0,1,0,124.906,239a.208.208,0,0,0,.073-.247.213.213,0,0,0-.224-.126,5.969,5.969,0,1,1-.934-11.863,5.894,5.894,0,0,1,1.137.111.2.2,0,0,0,.229-.119A.209.209,0,0,0,125.123,226.5Z" transform="translate(-112.804 -224.567)" fill="#fff"/>
      <circle id="楕円形_622" data-name="楕円形 622" cx="2.446" cy="2.446" r="2.446" transform="translate(104.118 0.355)" fill="#fff"/>
      <circle id="楕円形_623" data-name="楕円形 623" cx="1.784" cy="1.784" r="1.784" transform="translate(59.823)" fill="#fff"/>
      <circle id="楕円形_624" data-name="楕円形 624" cx="2.183" cy="2.183" r="2.183" transform="translate(138.864 24.912)" fill="#fff"/>
      <circle id="楕円形_625" data-name="楕円形 625" cx="1.595" cy="1.595" r="1.595" transform="translate(86.196 11.45)" fill="#fff"/>
      <circle id="楕円形_626" data-name="楕円形 626" cx="1.595" cy="1.595" r="1.595" transform="translate(68.685 23.309)" fill="#fff"/>
      <circle id="楕円形_627" data-name="楕円形 627" cx="2.026" cy="2.026" r="2.026" transform="translate(8.567 29.698)" fill="#fff"/>
      <circle id="楕円形_628" data-name="楕円形 628" cx="1.266" cy="1.266" r="1.266" transform="translate(42.761 7.875)" fill="#fff"/>
      <circle id="楕円形_629" data-name="楕円形 629" cx="1.245" cy="1.245" r="1.245" transform="translate(135.164 6.494)" fill="#fff"/>
      <circle id="楕円形_630" data-name="楕円形 630" cx="1.595" cy="1.595" r="1.595" transform="translate(166.206 8.894)" fill="#fff"/>
      <circle id="楕円形_631" data-name="楕円形 631" cx="1.338" cy="1.338" r="1.338" transform="translate(320.283 15.089)" fill="#fff"/>
      <circle id="楕円形_632" data-name="楕円形 632" cx="1.338" cy="1.338" r="1.338" transform="translate(399.648 34.678)" fill="#fff"/>
      <circle id="楕円形_633" data-name="楕円形 633" cx="2.109" cy="2.109" r="2.109" transform="translate(287.485 15.382)" fill="#fff"/>
      <circle id="楕円形_634" data-name="楕円形 634" cx="2.109" cy="2.109" r="2.109" transform="translate(398.182 6.271)" fill="#fff"/>
      <circle id="楕円形_635" data-name="楕円形 635" cx="2.325" cy="2.325" r="2.325" transform="translate(266.97 4.461)" fill="#fff"/>
      <circle id="楕円形_636" data-name="楕円形 636" cx="1.759" cy="1.759" r="1.759" transform="translate(379.865 20.51)" fill="#fff"/>
      <circle id="楕円形_637" data-name="楕円形 637" cx="1.989" cy="1.989" r="1.989" transform="translate(338.788 22.586)" fill="#fff"/>
      <circle id="楕円形_638" data-name="楕円形 638" cx="1.989" cy="1.989" r="1.989" transform="translate(307.267 1.521)" fill="#fff"/>
      <circle id="楕円形_639" data-name="楕円形 639" cx="1.367" cy="1.367" r="1.367" transform="translate(250.965 12.5)" fill="#fff"/>
      <circle id="楕円形_640" data-name="楕円形 640" cx="1.595" cy="1.595" r="1.595" transform="translate(346.962 2.793)" fill="#fff"/>
    </g>
    <g id="グループ_8730" data-name="グループ 8730" transform="translate(111.441 308.362)">
      <path id="パス_54975" data-name="パス 54975" d="M141.445,286.763c-4.5.741-6.1,3.915-5.7,6.734a5.179,5.179,0,0,0,2.8,4.066,3.861,3.861,0,0,0,2.239.347.882.882,0,0,0,.772-.873.8.8,0,0,0-.008-.11.885.885,0,0,0-.983-.764,2.314,2.314,0,0,1-1.226-.172,1.723,1.723,0,0,1-.595-.5,3.3,3.3,0,0,1-.195-3.167,3.718,3.718,0,0,1,3.151-2.248,3.645,3.645,0,0,1,3.221.945,5.394,5.394,0,0,1,1.149,4.483c-.509,3.465-2.953,5.093-7.923,5.276-6.463.238-26.446.337-26.606.337a.881.881,0,0,0-.875.88v.477a.88.88,0,0,0,.851.879c.148.005,17.641.448,25.433.448.8,0,1.545,0,2.207-.015,6.169-.1,9.938-3.044,10.611-8.3a8.452,8.452,0,0,0-2.445-6.93A6.7,6.7,0,0,0,141.445,286.763Z" transform="translate(-110.674 -286.661)" fill="#fff"/>
      <path id="パス_54976" data-name="パス 54976" d="M133.756,305.008c-4.817-.19-19.5.268-19.947.286a.883.883,0,0,0-.842.879v.525a.879.879,0,0,0,.869.88c.072,0,11.332.094,18.9.315,5.331.157,5.919,2.387,5.9,4.052a3.257,3.257,0,0,1-1.144,2.619,2.7,2.7,0,0,1-2.148.588,2.909,2.909,0,0,1-1.934-1.292,1.66,1.66,0,0,1-.1-1.441.881.881,0,0,0-1.633-.658,4.6,4.6,0,0,0-.1,4.1,4.7,4.7,0,0,0,3.6,2.263,6.091,6.091,0,0,0,1.079.1,5.047,5.047,0,0,0,3.58-1.428,6.188,6.188,0,0,0,1.68-5.369C140.92,307.4,138.237,305.183,133.756,305.008Z" transform="translate(-110.066 -281.812)" fill="#fff"/>
    </g>
    <g id="グループ_8731" data-name="グループ 8731" transform="translate(483.315 311.884)">
      <path id="パス_54977" data-name="パス 54977" d="M442.955,305.135c-.163-.006-20.531-.543-27.64-.434-6.169.1-9.938,3.044-10.611,8.3a8.458,8.458,0,0,0,2.444,6.931,6.629,6.629,0,0,0,4.672,1.889,7.392,7.392,0,0,0,1.214-.1c4.5-.741,6.1-3.915,5.7-6.732a5.178,5.178,0,0,0-2.8-4.067,3.859,3.859,0,0,0-2.24-.345.88.88,0,0,0-.77.872c0,.037,0,.073.006.111a.882.882,0,0,0,.983.764,2.321,2.321,0,0,1,1.227.171,1.727,1.727,0,0,1,.595.506,3.291,3.291,0,0,1,.194,3.166,3.715,3.715,0,0,1-3.151,2.249,3.65,3.65,0,0,1-3.221-.946,5.4,5.4,0,0,1-1.149-4.483c.51-3.465,2.953-5.093,7.924-5.276,6.462-.238,26.446-.335,26.606-.336a.881.881,0,0,0,.875-.88v-.476A.88.88,0,0,0,442.955,305.135Z" transform="translate(-404.644 -285.406)" fill="#fff"/>
      <path id="パス_54978" data-name="パス 54978" d="M418.514,302.663c.823.033,1.811.046,2.891.046,5.237,0,16.687-.315,17.057-.331a.882.882,0,0,0,.842-.88v-.524a.881.881,0,0,0-.87-.88c-.071,0-11.332-.092-18.894-.315-5.332-.156-5.92-2.386-5.9-4.051a3.261,3.261,0,0,1,1.142-2.621,2.7,2.7,0,0,1,2.149-.587,2.91,2.91,0,0,1,1.934,1.293,1.66,1.66,0,0,1,.1,1.441.88.88,0,0,0,1.632.658,4.6,4.6,0,0,0,.1-4.1,4.7,4.7,0,0,0-3.6-2.264,5.2,5.2,0,0,0-4.66,1.331,6.19,6.19,0,0,0-1.679,5.367C411.352,300.267,414.034,302.487,418.514,302.663Z" transform="translate(-403.043 -289.445)" fill="#fff"/>
    </g>
    <g id="グループ_8732" data-name="グループ 8732" transform="translate(107.778 204.774)">
      <path id="パス_54979" data-name="パス 54979" d="M481.691,259.287a6.752,6.752,0,0,0-7.218-.454L440.4,279.322a4.121,4.121,0,0,1-3.79-.054L411.3,263.047a7.6,7.6,0,0,0-7.276-.186l-26.189,14.956a2.219,2.219,0,0,1-2.7-.538l-54.884-70.8a4.05,4.05,0,0,0-6.6,0l-54.881,70.8a2.131,2.131,0,0,1-2.638.5l-24.823-14.842a7.33,7.33,0,0,0-7.267.172l-24.273,16.131a3.853,3.853,0,0,1-3.676.047l-36.752-23.1a6.429,6.429,0,0,0-7.188.5l-44.384,37.281v4.274a1.786,1.786,0,0,0,.229-.157l46.278-38.872a3.138,3.138,0,0,1,3.309-.228l36.751,23.1a7.174,7.174,0,0,0,7.26-.092l24.273-16.131a4.01,4.01,0,0,1,3.746-.089l24.824,14.844a5.4,5.4,0,0,0,6.94-1.308l54.881-70.8a.787.787,0,0,1,1.38,0l54.882,70.8a5.491,5.491,0,0,0,6.944,1.38l26.189-14.956a4.3,4.3,0,0,1,3.86.1l25.309,16.222a7.438,7.438,0,0,0,7.271.1l34.069-20.489a3.443,3.443,0,0,1,3.476.219l46.128,36.332v-4.2Z" transform="translate(-107.778 -204.774)" fill="#fff"/>
    </g>
    <g id="グループ_8733" data-name="グループ 8733" transform="translate(191.668 310.252)">
      <path id="パス_54980" data-name="パス 54980" d="M174.179,324.432a2.638,2.638,0,0,0,.145-.562.868.868,0,0,0,.02-.5,1.189,1.189,0,0,1-.02-.5,5.341,5.341,0,0,0,.124-.665c.028-.221-.2-.3-.276-.467a.612.612,0,0,1,.068-.406c.083-.139.027-.425.082-.536a5.632,5.632,0,0,1-.226-1.117c.027-.416.006-.757.062-1.174a4.756,4.756,0,0,1,.249-.935c.11-.291.12-.377.2-.654a2.888,2.888,0,0,0-.025-.478c-.151-.452-.331-.724-.22-1.155a4.935,4.935,0,0,0,.166-1.226q.042-1.994.042-3.97t.042-3.971q.083-1.7.187-3.408t.187-3.367q.042-1.662.042-3.284t.042-3.242q.082-.956.082-1.892t.042-1.933a.979.979,0,0,1,.042-.27c.028-.1.008-.326.154-.387a2.9,2.9,0,0,1,.591-.073,22.634,22.634,0,0,1,2.832-.023c.431,0,1.223-.005,1.67,0,.572.006,1.185.006,1.746.021.311.009.564.011.939.006.329-.005.67.03.994.013.412-.023.741-.029,1.089-.035a1.586,1.586,0,0,1,.52.123.758.758,0,0,1,.357.472c.009.188.072.339.072.56-.056,1.109-.062,1.866-.116,3s-.111,2.273-.167,3.409q0,.541.042,1.018c.027.319.042.658.042,1.018a5.02,5.02,0,0,0,0,.915,1.261,1.261,0,0,1-.333.915c-.056.139-.056.235,0,.291a1.181,1.181,0,0,1,.207,1.206,10.045,10.045,0,0,0-.457,1.206,1.107,1.107,0,0,1,.54.853,4.6,4.6,0,0,1-.042,1.059,29.564,29.564,0,0,0-.249,5.862,14.443,14.443,0,0,1-.083,1.56q-.084.768-.166,1.558v2.162c-.028.443-.042.887-.042,1.329s-.014.9-.042,1.371q-.042,1.539-.1,3.16t-.145,3.243a.942.942,0,0,1-1.04,1.039c-.388,0-.588.006-1,.02s-.477-.209-.783-.331c-.164-.07-1.739.089-1.976-.022s-.74.108-.878.191a1.84,1.84,0,0,1-.722.058c-.1.016-.74-.18-1.016-.18a8.361,8.361,0,0,0-1.676.027c-.378.135-.689,0-1.135.054a.56.56,0,0,1-.514-.295A1.1,1.1,0,0,1,174.179,324.432Zm12.8-.009a7.859,7.859,0,0,1,.118-1.8,19.687,19.687,0,0,0,.209-2.171,21.991,21.991,0,0,1,.009-2.944,5.928,5.928,0,0,0,.041-1.226q-.04-.645-.041-1.311c.027-.249-.005-.591.009-.84s-.052-.765.115-.782a27.175,27.175,0,0,1,2.978-.034c.3-.005,1.674-.022,2.372-.009.309.006,1.288.041,1.583.035.759-.011,2.4.042,3.052.083a.56.56,0,0,1,.522.562c0,.495.009.988.02,1.483.013.651.013,1.3-.019,1.952q-.085,1.727-.21,3.474c-.083,1.15.035,2.218-.02,3.354a1.792,1.792,0,0,1-.249,1.018,1.437,1.437,0,0,1-1,.229s-2.777.054-3.1.021-1.78.018-1.78.018-1.7-.024-2.015.039a11.138,11.138,0,0,1-1.479,0,1.123,1.123,0,0,1-.77-.187A1.705,1.705,0,0,1,186.979,324.423Z" transform="translate(-174.094 -288.142)" fill="#fff"/>
      <path id="パス_54981" data-name="パス 54981" d="M314.4,324.945a.738.738,0,0,1-.027-.544,2.581,2.581,0,0,0,.146-.562.885.885,0,0,0,.021-.5c-.042-.139-.063-2.619-.035-2.812a5.577,5.577,0,0,0,.124-.665c.028-.221.033-.162-.189-.357a1.348,1.348,0,0,1-.019-.516,43.212,43.212,0,0,0,.109-5.6c.027-.415.053-1.708.072-2.018a21.067,21.067,0,0,1-.042-2.287,4.877,4.877,0,0,0,.166-1.226c.028-1.33.043-.891.043-2.208s.43-5.55.458-6.879c.056-1.136-.223-1.25-.153-2.386a10.632,10.632,0,0,0,.1-3.181c-.157-1.07.207-.46.235-1.541.056-.638-.2-.482-.2-1.106s.156-.939.185-1.6a.983.983,0,0,1,.04-.271c.028-.1.024-.256.2-.288.429-.086,1.758-.128,2.166-.143.511-.018,1.021.005,1.569.037.612.034,1.044.018,1.522.005.29-.006,1.518-.011,1.894,0a14.269,14.269,0,0,0,1.529-.024c.3-.023.6-.06.918-.111a2.467,2.467,0,0,1,.447.01.878.878,0,0,1,.335.267.924.924,0,0,1,.167.562q-.083,1.662-.167,3.366t-.166,3.409c0,.361.014,2.086.042,2.4s.042.658.042,1.018a4.8,4.8,0,0,0,0,.915,1.081,1.081,0,0,1-.137.908c-.056.139-.056.237,0,.291a1.128,1.128,0,0,1,.011,1.212,1.716,1.716,0,0,0-.062,1.132c-.151.386.118.579.145.926a4.678,4.678,0,0,1-.042,1.06,17.286,17.286,0,0,0-.249,4.477,14.431,14.431,0,0,1-.083,1.558c-.057.514-.111,1.032-.167,1.558V315.4c-.028.443-.04.887-.04,1.331s-.015.9-.043,1.371q-.04,1.539-.1,3.159t-.144,3.243c-.029.693-.2,1.04-.865,1.04-.388,0-.546,0-.963.02a1.187,1.187,0,0,1-.926-.395.341.341,0,0,0-.186-.1c-.07-.015-.679.254-.915.146s-1.33-.087-1.551-.171a13.37,13.37,0,0,1-1.327.254,3.76,3.76,0,0,0-1.1-.043,10.188,10.188,0,0,1-1.862,0,2.745,2.745,0,0,0-.616-.057C314.614,325.182,314.53,325.086,314.4,324.945ZM327.352,313.5a1.121,1.121,0,0,1,.769-.187s.572,0,1.118-.005c.269,0,.974-.008,1.159-.014.242-.009,1.12-.03,1.489-.046.488-.019,1,.025,1.309.027.481,0,1.088-.032,1.552-.024.677.011,1.81-.051,1.81-.051a2.044,2.044,0,0,1,1.152.2c.138.153.044.774.071,1.3.056,1.137-.082,1.35,0,2.5.085,1.165-.094,2.516-.037,3.667.032.65.185,1.951.171,2.6q-.017.742-.02,1.484a.558.558,0,0,1-.522.56c-.467.032-1.008.056-1.56.076s-1.416.034-1.918.043c-.312.006-1.206.006-1.676,0-.586,0-1.562.033-1.73.03-.263,0-1.118-.133-1.428-.1a7.05,7.05,0,0,1-1.657.078c-.167-.015-.373-.243-.276-.861a2.893,2.893,0,0,0-.063-.749q0-.666.042-1.309a19.692,19.692,0,0,0-.02-2.225,16.6,16.6,0,0,1,.028-3.317c0-1.178.051-1.722.051-2.913A1.121,1.121,0,0,1,327.352,313.5Z" transform="translate(-136.928 -288.154)" fill="#fff"/>
      <path id="パス_54982" data-name="パス 54982" d="M204.472,300.137A20.234,20.234,0,0,1,209.7,292a9.922,9.922,0,0,1,2.743-1.763c.987-.42,1.973-.921,2.931-1.414.8-.209,1.825-.49,2.057-.522a19.39,19.39,0,0,1,3.208-.139c1.29,0,3.041.741,4.522.968a10.586,10.586,0,0,1,2.278.662,14.529,14.529,0,0,1,6.612,5,20.576,20.576,0,0,1,3.852,7.872,3.635,3.635,0,0,1,.086,1.384c-.049.459-.077.911-.085,1.41a.3.3,0,0,1-.3.293c-1.023-.029-2,.142-2.94.089l-3.068-.173q-1.351-.044-2.7-.087t-2.741-.13a12.329,12.329,0,0,1-1.633-.2,10.352,10.352,0,0,0-2.015.054c-1.624.058-2.3.056-3.971.158s-3.261.123-4.944.21c-.552-.027-1.207-.048-1.322-.048a16.561,16.561,0,0,1-2.24-.24,3.7,3.7,0,0,0-2.286.371,2.8,2.8,0,0,1-1.61.239q-.915-.108-1.741-.195a.758.758,0,0,1-.719-.415,1.377,1.377,0,0,1-.066-.8c.116-.813.233-1.238.349-2.066A15.354,15.354,0,0,1,204.472,300.137ZM220.764,325.6c-.378,0-1.3.1-1.709.08a20.963,20.963,0,0,1-2.42-.368c-1.393-.211-1.514.085-3.022-.582a24.873,24.873,0,0,1-4.4-2.525,15.278,15.278,0,0,1-3.873-4.287,18.041,18.041,0,0,1-2.22-5.035,5.444,5.444,0,0,1-.153-2c.061-.577.129-1.326.152-2.061a.472.472,0,0,1,.46-.462c2.04-.039,4.107.1,6.137.078,3.445-.037,6.311-.209,10.292-.342,2.583-.086,5.733-.1,8.329-.181,3.007-.092,5.45-.311,8.46-.311.133,0,.352.024.4.206.061.232-.02.35.067.548a1.054,1.054,0,0,1,.065.7,16.216,16.216,0,0,1-.762,4.665,17.31,17.31,0,0,1-2.154,4.569,13.817,13.817,0,0,1-4.744,4.527,43.311,43.311,0,0,1-6.006,2.436,8.653,8.653,0,0,1-1.483.218C221.5,325.524,221.2,325.6,220.764,325.6Z" transform="translate(-166.45 -288.155)" fill="#fff"/>
      <path id="パス_54983" data-name="パス 54983" d="M343.536,312.359c-.121-.856-.242-1.254-.362-2.1a1.422,1.422,0,0,1,.068-.834.782.782,0,0,1,.744-.429q.856-.089,1.8-.2a2.9,2.9,0,0,1,1.669.249,11.763,11.763,0,0,0,3.077.037,26.533,26.533,0,0,1,2.985.048c1.744.09,6.1-.075,7.789-.015.57.03,2.339.163,2.906.163a11.951,11.951,0,0,0,1.6-.293s1.91-.1,2.842-.135,2.589.226,3.523.2l3.18-.181q1.457-.082,3.047-.127a.309.309,0,0,1,.315.3c.008.519-.186,1.671-.135,2.148a4.548,4.548,0,0,1-.249,1.577,18.4,18.4,0,0,1-3.61,7.6,15.06,15.06,0,0,1-6.854,5.176,10.9,10.9,0,0,1-2.361.686c-1.534.235-3.35,1-4.687,1a20.105,20.105,0,0,1-3.326-.145c-.239-.034-1.3-.325-2.132-.541-.993-.511-2.015-1.03-3.037-1.466a10.282,10.282,0,0,1-2.843-1.827,20.964,20.964,0,0,1-5.413-8.435A15.843,15.843,0,0,1,343.536,312.359Zm18.9-23.795a9.1,9.1,0,0,1,1.537.226,44.689,44.689,0,0,1,6.225,2.525,14.313,14.313,0,0,1,4.916,4.692,17.9,17.9,0,0,1,2.233,4.736,14.213,14.213,0,0,1,.911,4.424,1.1,1.1,0,0,1-.068.721c-.089.2-.005.326-.07.567-.049.189-.277.214-.415.214-3.121,0-3.17-.376-6.3-.245-2.689.113-4.21.089-6.887,0-.779-.027-2.515.132-3.2.113-2.94-.078-5.163-.191-8.057-.29-.946-.033-4.559.339-5.658.34-2.638,0-2.95-.232-4.443-.261a.489.489,0,0,1-.478-.478c-.022-.762-.094-1.259-.156-1.856a5.644,5.644,0,0,1,.157-2.076,20.719,20.719,0,0,1,2.3-5.526,15.851,15.851,0,0,1,4.015-4.444,25.8,25.8,0,0,1,4.557-2.616c1.562-.691,1.688-.385,3.132-.6a21.6,21.6,0,0,1,2.507-.381c.42-.025,1.38.081,1.772.081C361.412,288.428,361.727,288.506,362.432,288.564Z" transform="translate(-129.469 -288.105)" fill="#fff"/>
      <path id="パス_54984" data-name="パス 54984" d="M308.767,313.757c-1.733,3.413-2.579,5.074-5.016,7.424a16.963,16.963,0,0,1-3.5,2.421c-.985.42-1.972.921-2.93,1.414-.8.209-1.825.49-2.058.522a19.384,19.384,0,0,1-3.208.139c-1.29,0-3.041-.741-4.521-.968a21.2,21.2,0,0,1-3.279-.76,9.99,9.99,0,0,1-5.613-4.9c-1.543-2.543-2.821-2.872-3.418-6.569a15.435,15.435,0,0,1-.336-2.846c.049-.459.089-1.158.1-1.658a.3.3,0,0,1,.3-.292c1.023.029,1.858.039,2.8.092,1.031.058,1.586.177,2.6.235.9.029,2.729.1,3.534.063a34.482,34.482,0,0,1,3.956.029,10.407,10.407,0,0,0,2.015.037c1.626-.058,2.3-.056,3.971-.158s3.261-.123,4.944-.21c.553.027,1.207.048,1.322.048.755.029,2.328-.041,3.066.09s1.192-.175,2.009-.163a10.8,10.8,0,0,1,1.752-.047c.608.072,1.049-.054,1.6,0a.755.755,0,0,1,.719.414,1.382,1.382,0,0,1,.066.806q-.175,1.218-.349,2.459A15.415,15.415,0,0,1,308.767,313.757Zm-16.841-25.519c.378,0,1.305-.1,1.709-.08a20.919,20.919,0,0,1,2.42.368,18.689,18.689,0,0,1,3.022.582,10.2,10.2,0,0,1,4.639,3.146,15.926,15.926,0,0,1,3.161,3.593,15.356,15.356,0,0,1,2.178,4.583,8.212,8.212,0,0,1,.506,2.439c-.061.577-.129,1.326-.151,2.061a.473.473,0,0,1-.462.462c-2.04.039-3.638-.027-5.666-.005-3.445.038-5.619-.147-9.6-.014-2.583.086-6.426.457-9.022.538-3.008.092-5.78.038-8.792.038-.133,0-.352-.025-.4-.207s0-.975-.025-1.486a12.035,12.035,0,0,1,.674-4.134,17.306,17.306,0,0,1,2.154-4.569,13.809,13.809,0,0,1,4.745-4.527,43.087,43.087,0,0,1,6.006-2.436,8.725,8.725,0,0,1,1.483-.219C291.187,288.313,291.491,288.238,291.926,288.238Z" transform="translate(-147.385 -288.155)" fill="#fff"/>
      <path id="パス_54985" data-name="パス 54985" d="M260.364,297.172c-.032.963-.067,2.718-.144,3.651-.028.328-1.466.507-2.29,1.01a5.321,5.321,0,0,0-2.181,2.616,8.875,8.875,0,0,0-.321,2.125,10.678,10.678,0,0,0,.049,2.126,2.767,2.767,0,0,0,.913,1.833,15.515,15.515,0,0,0,1.811,1.384c.725.514,1.905.458,1.935,1.36q.091,1.264.068,2.55a10.052,10.052,0,0,1-.109,2.233c-.03.152.039.521,0,.829a1.437,1.437,0,0,0,.04.479c.061.21.128.414.2.608a5.265,5.265,0,0,1,.046.838,3.837,3.837,0,0,1,0,1.238,3.429,3.429,0,0,0,.023,1.512.547.547,0,0,1-.181.609,1.419,1.419,0,0,1-.721.248,8.037,8.037,0,0,1-2.008-.158q-.972-.2-2.008-.473a15.9,15.9,0,0,1-3.271-1.354q-1.556-.858-3.135-1.805a12.8,12.8,0,0,1-3.948-3.991,25.125,25.125,0,0,1-2.414-5.166c-.029-.151-.233-1.365-.248-1.546a13.09,13.09,0,0,1-.218-2.235,31.017,31.017,0,0,1,.163-3.135,14.38,14.38,0,0,1,.777-3.731,20.081,20.081,0,0,1,1.872-3.563,19.292,19.292,0,0,1,4.557-4.692,20.609,20.609,0,0,1,5.865-2.934,3.733,3.733,0,0,0,.767-.292,1.722,1.722,0,0,1,.767-.2q.9-.089,1.805-.09c.581,0,1.149-.014,1.7,0,.053,0,.058.048.058.072q0,.634.044,1.146a3.96,3.96,0,0,1-.044,1.037c-.03.992-.061,1.978-.09,2.955S260.423,296.209,260.364,297.172Zm8.414,18.722c0,.6.058,1.5.028,2.073s-.044,1.159-.044,1.76c0,.572.02,1.061-.01,1.647a16.468,16.468,0,0,0,0,2.048c.051.392.053.912-.081,1.032s-.945-.054-1.336.006a27.037,27.037,0,0,1-2.93-.09,7.44,7.44,0,0,0-1.4-.03c-.259.024-.9.09-.9-.3,0-.361-.021-1.388-.035-1.765a8.425,8.425,0,0,1,.139-1.121c0-1.053-.221-1.878-.191-2.916s.178-2.753.21-3.805c0-.511-.054-1.021.081-1.187s.61-.032,1.092-.032c.481-.029,2.578-.037,3.074-.023s1.493.028,2.125.028c.416.057.25.788.281,1.147S268.777,315.562,268.777,315.894Zm-6.02-26.866,1.133-.051a10.781,10.781,0,0,1,1.432.033c.372.068,1.121-.087,1.6-.065s1.732-.015,1.732-.015c.256,0,.63.205.614.461a19.259,19.259,0,0,0,.005,2.182,10.946,10.946,0,0,1-.062,2.53,10.755,10.755,0,0,0-.1,2.095c-.015.751.156,1.294.127,2.045-.03.3-.053.586-.068.858s-.038.557-.067.856a1.423,1.423,0,0,1-.248.722.733.733,0,0,1-.7.225c-.232-.015-.972.04-1.853.028-.836-.014-1.39-.1-1.6-.111a9.911,9.911,0,0,1-1.634.084c-.572-.061-.849.063-.849-.539.029-.875.182-1.8.218-2.78.035-1.007-.047-2.067,0-2.951.048-.908.134-1.651.164-2.608.028-.883,0-1.981.029-2.818A.165.165,0,0,1,262.757,289.027Z" transform="translate(-156.031 -287.95)" fill="#fff"/>
    </g>
    <g id="グループ_8735" data-name="グループ 8735" transform="translate(107.778 365.164)">
      <g id="グループ_8734" data-name="グループ 8734" transform="translate(0 12.677)">
        <path id="パス_54986" data-name="パス 54986" d="M436.785,353.352c-7.331,0-13.353-2.86-21.065-6.9a39.384,39.384,0,0,0-37.924,0c-7.711,4.042-13.737,6.9-21.067,6.9s-13.353-2.86-21.064-6.9a39.386,39.386,0,0,0-37.925,0c-7.711,4.042-13.737,6.9-21.067,6.9s-13.352-2.86-21.064-6.9a39.384,39.384,0,0,0-37.924,0c-7.711,4.042-13.738,6.9-21.067,6.9s-13.353-2.86-21.064-6.9a39.386,39.386,0,0,0-37.925,0c-7.711,4.042-13.737,6.9-21.067,6.9a29.017,29.017,0,0,1-8.784-1.423v12.993a27.677,27.677,0,0,0,8.784,1.118c5,0,8.836-.13,20.231-6.01,7.743-3.994,12.009-6.2,19.8-6.2s12.056,2.2,19.8,6.2c11.4,5.878,15.231,6.01,20.23,6.01s8.835-.13,20.231-6.01c7.743-3.994,12.007-6.2,19.8-6.2s12.054,2.2,19.8,6.2c11.4,5.878,15.232,6.01,20.23,6.01s8.836-.13,20.233-6.01c7.743-3.994,12.007-6.2,19.8-6.2s12.054,2.2,19.8,6.2c11.4,5.878,15.231,6.01,20.23,6.01s8.835-.13,20.231-6.01c7.743-3.994,12.007-6.2,19.8-6.2s12.054,2.2,19.8,6.2c11.4,5.878,15.231,6.01,20.23,6.01s8.835-.13,20.231-6.01c7.743-3.994,12.007-6.2,19.8-6.2s12.054,2.2,19.8,6.2c11.4,5.878,15.231,6.01,20.23,6.01a27.435,27.435,0,0,0,8.939-1.118V351.929a29.061,29.061,0,0,1-8.939,1.423c-7.329,0-13.353-2.86-21.064-6.9a39.386,39.386,0,0,0-37.925,0C450.139,350.492,444.114,353.352,436.785,353.352Z" transform="translate(-107.778 -341.585)" fill="#fff"/>
      </g>
      <path id="パス_54987" data-name="パス 54987" d="M436.785,365.853c-7.331,0-13.353-2.861-21.065-6.9a39.383,39.383,0,0,0-37.924,0c-7.711,4.04-13.737,6.9-21.067,6.9s-13.353-2.861-21.064-6.9a39.386,39.386,0,0,0-37.925,0c-7.711,4.04-13.737,6.9-21.067,6.9s-13.352-2.861-21.064-6.9a39.383,39.383,0,0,0-37.924,0c-7.711,4.04-13.738,6.9-21.067,6.9s-13.353-2.861-21.064-6.9a39.386,39.386,0,0,0-37.925,0c-7.711,4.04-13.737,6.9-21.067,6.9a29.017,29.017,0,0,1-8.784-1.423v5.891a4.53,4.53,0,0,0,4.53,4.53H521.247a4.531,4.531,0,0,0,4.531-4.53V364.43a29.1,29.1,0,0,1-8.939,1.423c-7.329,0-13.353-2.861-21.064-6.9a39.386,39.386,0,0,0-37.925,0C450.139,362.992,444.114,365.853,436.785,365.853Z" transform="translate(-107.778 -325.595)" fill="#fff"/>
      <path id="パス_54988" data-name="パス 54988" d="M436.785,352.883c5,0,8.835-.13,20.231-6.01,7.743-3.995,12.007-6.2,19.8-6.2s12.054,2.2,19.8,6.2c11.4,5.878,15.231,6.01,20.23,6.01a27.441,27.441,0,0,0,8.939-1.119v-9.879a29.075,29.075,0,0,1-8.939,1.446c-7.329,0-13.353-2.86-21.064-6.9a39.386,39.386,0,0,0-37.925,0c-7.712,4.042-13.737,6.9-21.066,6.9s-13.353-2.86-21.065-6.9a39.384,39.384,0,0,0-37.924,0c-7.711,4.042-13.737,6.9-21.067,6.9s-13.353-2.86-21.064-6.9a39.386,39.386,0,0,0-37.925,0c-7.711,4.042-13.737,6.9-21.067,6.9s-13.352-2.86-21.064-6.9a39.384,39.384,0,0,0-37.924,0c-7.711,4.042-13.738,6.9-21.067,6.9s-13.353-2.86-21.064-6.9a39.386,39.386,0,0,0-37.925,0c-7.711,4.042-13.737,6.9-21.067,6.9a29,29,0,0,1-8.784-1.4v9.832a27.646,27.646,0,0,0,8.784,1.119c5,0,8.836-.13,20.231-6.01,7.743-3.995,12.009-6.2,19.8-6.2s12.056,2.2,19.8,6.2c11.4,5.878,15.231,6.01,20.23,6.01s8.835-.13,20.231-6.01c7.743-3.995,12.007-6.2,19.8-6.2s12.054,2.2,19.8,6.2c11.4,5.878,15.232,6.01,20.23,6.01s8.836-.13,20.233-6.01c7.743-3.995,12.007-6.2,19.8-6.2s12.054,2.2,19.8,6.2c11.4,5.878,15.231,6.01,20.23,6.01s8.835-.13,20.231-6.01c7.743-3.995,12.007-6.2,19.8-6.2s12.054,2.2,19.8,6.2C427.95,352.752,431.785,352.883,436.785,352.883Z" transform="translate(-107.778 -331.564)" fill="#fff"/>
    </g>
  </g>
</svg>
