<svg xmlns="http://www.w3.org/2000/svg" width="306.604" height="154.44" viewBox="0 0 306.604 154.44">
  <path id="パス_55010" data-name="パス 55010" d="M-151.05,3.84q.12-.42.27-.81a3.71,3.71,0,0,0,.21-.81,1.284,1.284,0,0,0,.03-.72,1.686,1.686,0,0,1-.03-.72,8.094,8.094,0,0,0,.18-.96,1.016,1.016,0,0,0-.42-.9q-.06-.06.12-.36t.3-.54a2.5,2.5,0,0,1-.6-1.74q.06-.9.18-1.8a7.031,7.031,0,0,1,.36-1.35q.24-.63.42-1.23a.46.46,0,0,0,.06-.18v-.06a1.96,1.96,0,0,1-.54-1.83,7.087,7.087,0,0,0,.24-1.77q.06-2.88.06-5.73t.06-5.73q.12-2.46.27-4.92t.27-4.86q.06-2.4.06-4.74t.06-4.68q.12-1.38.12-2.73t.06-2.79a1.426,1.426,0,0,1,.06-.39.687.687,0,0,1,.12-.27,16.7,16.7,0,0,1,4.23-.3q2.13.12,4.29.18a15.914,15.914,0,0,0,4.32-.48,1.852,1.852,0,0,1,.54.51,1.34,1.34,0,0,1,.24.81q-.12,2.4-.24,4.86l-.24,4.92q0,.78.06,1.47t.06,1.47a7.276,7.276,0,0,0,0,1.32,1.811,1.811,0,0,1-.48,1.32q-.12.3,0,.42a1.708,1.708,0,0,1,.3,1.74,14.429,14.429,0,0,0-.66,1.74,1.6,1.6,0,0,1,.78,1.23,6.582,6.582,0,0,1-.06,1.53,42.693,42.693,0,0,0-.36,8.46,20.919,20.919,0,0,1-.12,2.25q-.12,1.11-.24,2.25v3.12q-.06.96-.06,1.92t-.06,1.98q-.06,2.22-.15,4.56t-.21,4.68a1.359,1.359,0,0,1-1.5,1.5q-.84,0-1.74.03a2.336,2.336,0,0,1-1.62-.57.523.523,0,0,0-.27-.15,1.39,1.39,0,0,0-.27-.03.916.916,0,0,1-1.05.24q-.51-.24-.99-.42a4.5,4.5,0,0,0-.48.42,2.79,2.79,0,0,1-.54.42.475.475,0,0,1-.3-.06,1.255,1.255,0,0,0-1.02-.54,2.381,2.381,0,0,0-1.08.24,1.587,1.587,0,0,1-2.16-.12.564.564,0,0,0-.33-.15A2.3,2.3,0,0,1-151.05,3.84Zm14.88-.54V-1.83a28,28,0,0,1,.48-5.13,8.591,8.591,0,0,0,.06-1.77q-.06-.93-.06-1.89.06-.54.09-1.08t.09-1.26q1.86-.06,3.69-.09a20.975,20.975,0,0,1,3.69.27q0,1.44.03,2.88t-.03,2.88q-.12,2.46-.3,4.95t-.3,4.95a2.593,2.593,0,0,1-.36,1.47,2.078,2.078,0,0,1-1.44.33h-4.26a1.622,1.622,0,0,1-1.11-.27A1.622,1.622,0,0,1-136.17,3.3ZM-97.47.18a27.879,27.879,0,0,1-11.22-7.2,13.686,13.686,0,0,1-2.43-3.78q-.87-2.04-1.89-4.02a1.7,1.7,0,0,1-.21-.96,5.683,5.683,0,0,0-.03-1.02v-5.31q0-2.67.06-5.25a8.325,8.325,0,0,1,.6-3.12,24.751,24.751,0,0,1,7.74-10.11A31.447,31.447,0,0,1-93.33-45.9a6.434,6.434,0,0,1,2.16-.12,22.945,22.945,0,0,0,2.4.12q-.06,2.34-.18,4.47t-.24,4.23l-.12,3.72q-.06,1.86-.18,3.78a16.855,16.855,0,0,1-.27,2.25,9.4,9.4,0,0,0-.15,2.25q.12,3.36.33,6.81t.39,6.93a1.13,1.13,0,0,1-.09.45,1.13,1.13,0,0,0-.09.45,22.8,22.8,0,0,1-.33,3.09,5.1,5.1,0,0,0,.51,3.15,3.851,3.851,0,0,1,.33,2.22q-.15,1.26-.27,2.4a1.041,1.041,0,0,1-.57.99,1.885,1.885,0,0,1-1.11.09Q-92.49,1.14-94.2.9A21.053,21.053,0,0,1-97.47.18Zm34.68-22.74v1.62a11.865,11.865,0,0,0,.12,1.68,12.612,12.612,0,0,1-.9,6.84,34.279,34.279,0,0,1-3.48,6.06,21.081,21.081,0,0,1-5.91,5.34,27.448,27.448,0,0,1-7.35,3.06,7.464,7.464,0,0,1-2.76.21,31.522,31.522,0,0,0-3.24-.15q-.24-11.7-.6-23.34t-.72-23.4a9.547,9.547,0,0,0,1.08-.39,1.456,1.456,0,0,1,.96-.09,25.174,25.174,0,0,1,6.84,1.05,23.826,23.826,0,0,1,6.3,2.97,19.032,19.032,0,0,1,6.24,6.54,35.936,35.936,0,0,1,3.36,8.28,4.978,4.978,0,0,1,.15,1.83Q-62.79-23.46-62.79-22.56ZM-23.67-35.4q-.06,1.92-.24,3.78t-.3,3.78q-.06,1.68-.06,3.33v3.39q.06,1.8.15,3.57t.15,3.57q.12,1.68.09,3.39a17.617,17.617,0,0,1-.39,3.39,1.018,1.018,0,0,0,.09.63,2.755,2.755,0,0,1,.21.69q.12.42.27.81a3.865,3.865,0,0,1,.21.75,7.516,7.516,0,0,1-.15,2.01A4.551,4.551,0,0,0-23.61-.3a.729.729,0,0,1-.24.81,1.886,1.886,0,0,1-.96.33A10.713,10.713,0,0,1-27.48.63Q-28.77.36-30.15,0A21.22,21.22,0,0,1-34.5-1.8q-2.07-1.14-4.17-2.4a17.037,17.037,0,0,1-5.25-5.31,33.284,33.284,0,0,1-3.21-6.87,5.859,5.859,0,0,1-.09-.66q-.03-.36-.03-.66,0-1.86.06-3.72a28.9,28.9,0,0,0-.12-3.72,12.282,12.282,0,0,1,.81-5.4,26.848,26.848,0,0,1,2.49-4.74,25.713,25.713,0,0,1,6.06-6.24,27.421,27.421,0,0,1,7.8-3.9,5.026,5.026,0,0,0,1.02-.39,2.289,2.289,0,0,1,1.02-.27q1.2-.12,2.4-.12h2.34q0,.9.06,1.62a5.25,5.25,0,0,1-.06,1.38q-.06,1.98-.12,3.93T-23.67-35.4Zm1.26-10.62h6a20.037,20.037,0,0,0-.09,3.27,13.41,13.41,0,0,1-.21,3.21,15.947,15.947,0,0,0-.33,2.94q-.03,1.5-.09,3-.06.6-.09,1.14t-.09,1.14a1.886,1.886,0,0,1-.33.96.972.972,0,0,1-.93.3l-1.77-.12a8.281,8.281,0,0,1-1.71-.3,1.165,1.165,0,0,1-1.14-1.32q.12-3.54.3-7.02t.3-6.96l.03-.06A.854.854,0,0,1-22.41-46.02Zm5.28,35.52q0,1.2-.06,2.34t-.06,2.34q0,1.14-.06,2.31a9.551,9.551,0,0,0,.18,2.37q.12.78-.15,1.02a2.158,2.158,0,0,1-1.05.36q-.78.12-1.53.27t-1.53.27q-1.62.18-1.8-1.32,0-.72-.03-1.47a10.824,10.824,0,0,1,.03-1.41q0-2.1.06-4.17t.12-4.17a1.978,1.978,0,0,1,.3-1.32,1.855,1.855,0,0,1,1.26-.3q.96-.06,1.95-.03t2.25.03q0,.78.06,1.5T-17.13-10.5ZM15.87.18A27.879,27.879,0,0,1,4.65-7.02,13.686,13.686,0,0,1,2.22-10.8Q1.35-12.84.33-14.82a1.7,1.7,0,0,1-.21-.96A5.683,5.683,0,0,0,.09-16.8v-5.31q0-2.67.06-5.25a8.325,8.325,0,0,1,.6-3.12A24.751,24.751,0,0,1,8.49-40.59,31.447,31.447,0,0,1,20.01-45.9a6.434,6.434,0,0,1,2.16-.12,22.945,22.945,0,0,0,2.4.12q-.06,2.34-.18,4.47t-.24,4.23l-.12,3.72q-.06,1.86-.18,3.78a16.855,16.855,0,0,1-.27,2.25,9.4,9.4,0,0,0-.15,2.25q.12,3.36.33,6.81t.39,6.93a1.13,1.13,0,0,1-.09.45,1.13,1.13,0,0,0-.09.45,22.8,22.8,0,0,1-.33,3.09,5.1,5.1,0,0,0,.51,3.15,3.851,3.851,0,0,1,.33,2.22Q24.33-.84,24.21.3a1.041,1.041,0,0,1-.57.99,1.885,1.885,0,0,1-1.11.09Q20.85,1.14,19.14.9A21.052,21.052,0,0,1,15.87.18ZM50.55-22.56v1.62a11.865,11.865,0,0,0,.12,1.68,12.612,12.612,0,0,1-.9,6.84,34.279,34.279,0,0,1-3.48,6.06,21.081,21.081,0,0,1-5.91,5.34,27.448,27.448,0,0,1-7.35,3.06,7.464,7.464,0,0,1-2.76.21,31.522,31.522,0,0,0-3.24-.15q-.24-11.7-.6-23.34t-.72-23.4a9.547,9.547,0,0,0,1.08-.39,1.456,1.456,0,0,1,.96-.09,25.174,25.174,0,0,1,6.84,1.05,23.826,23.826,0,0,1,6.3,2.97,19.032,19.032,0,0,1,6.24,6.54,35.936,35.936,0,0,1,3.36,8.28,4.978,4.978,0,0,1,.15,1.83Q50.55-23.46,50.55-22.56Zm16.5,26.4q.12-.42.27-.81a3.711,3.711,0,0,0,.21-.81,1.284,1.284,0,0,0,.03-.72,1.686,1.686,0,0,1-.03-.72,8.1,8.1,0,0,0,.18-.96,1.016,1.016,0,0,0-.42-.9q-.06-.06.12-.36t.3-.54a2.5,2.5,0,0,1-.6-1.74q.06-.9.18-1.8a7.029,7.029,0,0,1,.36-1.35q.24-.63.42-1.23a.46.46,0,0,0,.06-.18v-.06a1.961,1.961,0,0,1-.54-1.83,7.087,7.087,0,0,0,.24-1.77q.06-2.88.06-5.73t.06-5.73q.12-2.46.27-4.92t.27-4.86q.06-2.4.06-4.74t.06-4.68q.12-1.38.12-2.73t.06-2.79a1.426,1.426,0,0,1,.06-.39.686.686,0,0,1,.12-.27,16.7,16.7,0,0,1,4.23-.3q2.13.12,4.29.18a15.914,15.914,0,0,0,4.32-.48,1.852,1.852,0,0,1,.54.51,1.34,1.34,0,0,1,.24.81q-.12,2.4-.24,4.86l-.24,4.92q0,.78.06,1.47t.06,1.47a7.275,7.275,0,0,0,0,1.32,1.811,1.811,0,0,1-.48,1.32q-.12.3,0,.42a1.708,1.708,0,0,1,.3,1.74,14.431,14.431,0,0,0-.66,1.74,1.6,1.6,0,0,1,.78,1.23,6.582,6.582,0,0,1-.06,1.53,42.693,42.693,0,0,0-.36,8.46,20.919,20.919,0,0,1-.12,2.25q-.12,1.11-.24,2.25v3.12q-.06.96-.06,1.92t-.06,1.98q-.06,2.22-.15,4.56t-.21,4.68a1.359,1.359,0,0,1-1.5,1.5q-.84,0-1.74.03a2.336,2.336,0,0,1-1.62-.57.523.523,0,0,0-.27-.15,1.39,1.39,0,0,0-.27-.03.916.916,0,0,1-1.05.24q-.51-.24-.99-.42a4.505,4.505,0,0,0-.48.42,2.789,2.789,0,0,1-.54.42.475.475,0,0,1-.3-.06,1.255,1.255,0,0,0-1.02-.54,2.382,2.382,0,0,0-1.08.24,1.587,1.587,0,0,1-2.16-.12.564.564,0,0,0-.33-.15A2.3,2.3,0,0,1,67.05,3.84ZM81.93,3.3V-1.83a28,28,0,0,1,.48-5.13,8.59,8.59,0,0,0,.06-1.77q-.06-.93-.06-1.89.06-.54.09-1.08t.09-1.26q1.86-.06,3.69-.09a20.975,20.975,0,0,1,3.69.27q0,1.44.03,2.88t-.03,2.88q-.12,2.46-.3,4.95t-.3,4.95a2.593,2.593,0,0,1-.36,1.47,2.078,2.078,0,0,1-1.44.33H83.31a1.622,1.622,0,0,1-1.11-.27A1.622,1.622,0,0,1,81.93,3.3ZM120.63.18a27.879,27.879,0,0,1-11.22-7.2,13.686,13.686,0,0,1-2.43-3.78q-.87-2.04-1.89-4.02a1.7,1.7,0,0,1-.21-.96,5.683,5.683,0,0,0-.03-1.02v-5.31q0-2.67.06-5.25a8.325,8.325,0,0,1,.6-3.12,24.751,24.751,0,0,1,7.74-10.11,31.447,31.447,0,0,1,11.52-5.31,6.434,6.434,0,0,1,2.16-.12,22.945,22.945,0,0,0,2.4.12q-.06,2.34-.18,4.47t-.24,4.23l-.12,3.72q-.06,1.86-.18,3.78a16.855,16.855,0,0,1-.27,2.25,9.4,9.4,0,0,0-.15,2.25q.12,3.36.33,6.81t.39,6.93a1.13,1.13,0,0,1-.09.45,1.13,1.13,0,0,0-.09.45,22.8,22.8,0,0,1-.33,3.09,5.1,5.1,0,0,0,.51,3.15,3.851,3.851,0,0,1,.33,2.22q-.15,1.26-.27,2.4a1.041,1.041,0,0,1-.57.99,1.885,1.885,0,0,1-1.11.09q-1.68-.24-3.39-.48A21.053,21.053,0,0,1,120.63.18Zm34.68-22.74v1.62a11.865,11.865,0,0,0,.12,1.68,12.612,12.612,0,0,1-.9,6.84,34.278,34.278,0,0,1-3.48,6.06,21.081,21.081,0,0,1-5.91,5.34,27.447,27.447,0,0,1-7.35,3.06,7.464,7.464,0,0,1-2.76.21,31.522,31.522,0,0,0-3.24-.15q-.24-11.7-.6-23.34t-.72-23.4a9.548,9.548,0,0,0,1.08-.39,1.456,1.456,0,0,1,.96-.09,25.174,25.174,0,0,1,6.84,1.05,23.826,23.826,0,0,1,6.3,2.97,19.032,19.032,0,0,1,6.24,6.54,35.936,35.936,0,0,1,3.36,8.28,4.979,4.979,0,0,1,.15,1.83Q155.31-23.46,155.31-22.56ZM-92.91,43.68a.8.8,0,0,1,.48.18,3.78,3.78,0,0,1,.09,2.52q-.39,1.2-.69,2.4-.96,3.48-1.86,6.9t-1.8,6.78q-.66,2.22-1.29,4.44t-1.23,4.44q-.6,2.46-1.2,5.01t-1.2,5.01q-.6,2.4-1.17,4.77t-1.17,4.65q-.12.72-.21,1.44t-.21,1.44q-1.14.06-2.16.03a5.775,5.775,0,0,1-2.04-.45,4.737,4.737,0,0,0-3.9,0,5.747,5.747,0,0,1-1.98.48,12.4,12.4,0,0,1-2.1-.06q-.42-1.38-.81-2.76t-.75-2.76q-.54-1.62-.99-3.27t-.93-3.33q-.96-3.6-1.95-7.14t-2.01-7.14q-1.02-3.96-2.07-7.95t-2.07-7.95q-.42-1.8-.93-3.51a11.151,11.151,0,0,1-.45-3.57,2.769,2.769,0,0,1,.03-.39,2.48,2.48,0,0,0,.03-.33q1.38-.48,2.46-.96a3.367,3.367,0,0,1,1.41-.3,8.927,8.927,0,0,0,1.47-.12q1.2-.3,2.37-.72t2.31-.72q.42-.12.81-.24t.93-.3q.72,3.06,1.65,5.91t1.77,5.85q.78,2.88,1.53,5.85t1.59,6.15q.48-2.04.93-3.78t.87-3.42q.42-1.74.87-3.39t.87-3.33q.48-2.04.99-4.11t.93-4.11a.9.9,0,0,1,.96-.78h.6a1.191,1.191,0,0,1,.54.12q2.7.6,5.37,1.23T-92.91,43.68Zm27.48,15.48a1.054,1.054,0,0,0-.84-.12,2,2,0,0,1-.84.06,8.112,8.112,0,0,0-1.71-.06q-.87.06-1.77.06l-3.51-.12-3.63-.12q.06-.36.09-.69a5.967,5.967,0,0,1,.09-.63,3.738,3.738,0,0,1,.42-1.8,11.9,11.9,0,0,1,.96-1.5,4.368,4.368,0,0,1,2.7-1.62,6.3,6.3,0,0,1,1.98-.27,10.005,10.005,0,0,1,1.98.27,3.19,3.19,0,0,1,1.26.39,3.725,3.725,0,0,1,1.02.81,8.511,8.511,0,0,1,.93.96,3.121,3.121,0,0,1,.63,1.26,1.444,1.444,0,0,0,.54.78.484.484,0,0,1,.24.54,4.372,4.372,0,0,0-.06.72,4.372,4.372,0,0,1-.06.72.516.516,0,0,1-.12.33A.2.2,0,0,1-65.43,59.16Zm-.48,5.04-.18,9.72V84.06q.12,2.58,0,5.16a30.918,30.918,0,0,0,.18,5.1H-75.99l-.48-30a15.617,15.617,0,0,1,1.65-.09q1.29-.03,3,0t3.33.03Q-66.87,64.26-65.91,64.2Zm30.9-11.28-.18,13.68V80.88q.06,2.46,0,4.92t0,4.92q.6,0,1.14.03t1.14.03h.06q.06,0,.12.12v4.62a7.365,7.365,0,0,0-1.32-.12h-11.4l-.42-42.24a7.511,7.511,0,0,1,1.68-.15q1.32-.03,3.09,0t3.42,0Q-36.03,52.98-35.01,52.92Zm36,0L.81,66.6V80.88q.06,2.46,0,4.92t0,4.92q.6,0,1.14.03t1.14.03h.06q.06,0,.12.12v4.62a7.365,7.365,0,0,0-1.32-.12H-9.45l-.42-42.24a7.511,7.511,0,0,1,1.68-.15q1.32-.03,3.09,0t3.42,0Q-.03,52.98.99,52.92Zm50.4,2.76q.24,2.76.45,5.52t.45,5.4q.12,2.4.09,4.23a10.551,10.551,0,0,1-.09,1.83V91.92H40.71q-.06-.72-.06-1.44V89.16q-.06-5.34-.15-10.71t-.09-10.71q0-2.94.12-5.94t.18-6.12ZM23.13,78.24a1.763,1.763,0,0,1-.06-.42V76.14a10.436,10.436,0,0,1,.9-5.4,23.02,23.02,0,0,1,2.94-4.62,12.081,12.081,0,0,1,6.54-4.08,8.173,8.173,0,0,1,1.95-.36l1.95-.12q.9-.06,1.11.24a2.149,2.149,0,0,1,.21,1.14q-.06,3.24-.09,6.48t-.15,6.54l-.12,3.84q-.06,1.92-.18,3.84-.06.06.06.48l-.06,1.8q-.12,1.14-.27,2.22t-.33,2.28q-.96-.18-1.86-.33a15.76,15.76,0,0,1-1.74-.39,11.361,11.361,0,0,1-4.98-2.55,19.781,19.781,0,0,1-3.6-4.35q-.6-1.14-1.14-2.28ZM78.87,89.76a4.047,4.047,0,0,0,.09-.48,3.865,3.865,0,0,0,.03-.48q0-.3.03-.6t.03-.54a.428.428,0,0,1-.18-.66,1.158,1.158,0,0,0,.18-.6,2.585,2.585,0,0,1,.03-.42,2.585,2.585,0,0,0,.03-.42l-.12-.72a2.175,2.175,0,0,1,0-.72,22.385,22.385,0,0,0,.03-3.06q-.09-1.5-.09-3,.12-3.06.24-6.15t.18-6.39a10.671,10.671,0,0,1,1.23.18,5.382,5.382,0,0,0,1.11.12,7.4,7.4,0,0,1,3.15.78,13.484,13.484,0,0,1,2.61,1.74,6.941,6.941,0,0,1,1.77,2.04,10.432,10.432,0,0,1,1.05,2.58,11.525,11.525,0,0,1,.42,3.48,25.665,25.665,0,0,1-.36,3.48,8.207,8.207,0,0,1-.78,2.16,8.71,8.71,0,0,1-1.32,1.86.983.983,0,0,1-.15.12,1.455,1.455,0,0,0-.21.18q0,1.14-.03,2.31t-.03,2.37q-.06,1.98-.09,3.99t-.09,4.05q-.06,2.04-.06,4.02a20.786,20.786,0,0,1-.42,4.08l-8.7-.18a3.526,3.526,0,0,1-.12-.84q.06-3.36.12-6.63t.12-6.57a1.388,1.388,0,0,1,.12-.57A3.139,3.139,0,0,0,78.87,89.76ZM68.73,71.1a2.137,2.137,0,0,1,.6-.51q.36-.21.66-.39l1.8-.96q.9-.48,1.86-1.02a2.6,2.6,0,0,0-.42-.54,2.054,2.054,0,0,0,.42-.15.455.455,0,0,1,.36-.03q.84,0,1.62.06t1.56.06q.36.06.69.12t.39.54q.18.84-.78,1.14l-.3.18v3.78q.06,3.6.12,7.17t.12,7.17a1.426,1.426,0,0,1-.06.39,1.631,1.631,0,0,0-.06.45,9.653,9.653,0,0,0,.18,1.5.575.575,0,0,0-.24.15,1.04,1.04,0,0,1-.42.21,12.767,12.767,0,0,1-2.1-.18q-.48-.12-.99-.21t-.99-.15a2.351,2.351,0,0,1-.54-.24,3.351,3.351,0,0,1-.45-.27q-.21-.15-.51-.33a8.963,8.963,0,0,1-3.75-3.72,15.276,15.276,0,0,1-1.53-5.04,19.6,19.6,0,0,1-.09-2.43,13.026,13.026,0,0,1,.27-2.37,1.065,1.065,0,0,1,.12-.48q.66-1.02,1.23-1.98T68.73,71.1Zm2.58,32.16a8.827,8.827,0,0,1-3.57-3.66,14.414,14.414,0,0,1-1.41-4.86v-.63a3.207,3.207,0,0,0-.06-.63l11.1.36v8.28a2.369,2.369,0,0,0-.09.36q-.03.18-.09.42,0,.3.03.63t.09.81l-.21.21a.528.528,0,0,1-.39.15,6.032,6.032,0,0,1-1.05-.09q-.51-.09-1.05-.15-.48-.12-.93-.21t-.93-.21a1.319,1.319,0,0,1-.54-.24,3.351,3.351,0,0,1-.45-.27A3.35,3.35,0,0,0,71.31,103.26Zm37.98-26.34h-1.68q-1.02-.18-2.07-.33t-2.25-.27q.24-.9.39-1.77t.33-1.65a11.134,11.134,0,0,1,2.43-4.74,17.525,17.525,0,0,1,4.11-3.36q1.08-.6,2.16-1.11t2.22-.99a1.279,1.279,0,0,1,.66-.12q.3,0,.63.03a2.189,2.189,0,0,0,.63-.03,10.363,10.363,0,0,1,5.13.9,20.455,20.455,0,0,1,4.35,2.76,11.557,11.557,0,0,1,3.9,6.24,9.912,9.912,0,0,1,.33,1.8q.09.96.09,1.86.06.84-.18,1.05a1.815,1.815,0,0,1-1.08.21l-6.18-.12-6.18-.12-3.63-.12-3.63-.12a.179.179,0,0,0-.18-.03A1.262,1.262,0,0,1,109.29,76.92Zm1.2,13.32a10.7,10.7,0,0,1-4.26-4.35,15.96,15.96,0,0,1-1.62-5.73,4.557,4.557,0,0,1-.06-.75v-.75l13.2.36v4.95q0,2.49-.06,4.95a1.631,1.631,0,0,1-.06.45,1.631,1.631,0,0,0-.06.45q0,.36.03.75t.09.99a2.6,2.6,0,0,1-.27.21.76.76,0,0,1-.45.15,5.09,5.09,0,0,1-1.23-.03q-.63-.09-1.23-.21t-1.17-.24q-.57-.12-1.11-.24a1.416,1.416,0,0,1-.66-.3q-.24-.18-.51-.36A3.1,3.1,0,0,0,110.49,90.24Z" transform="translate(151.05 49.38)" fill="#222"/>
</svg>
