<svg xmlns="http://www.w3.org/2000/svg" width="33.059" height="14.453" viewBox="0 0 33.059 14.453">
  <g id="グループ_10444" data-name="グループ 10444" transform="translate(18468.309 22909.701)">
    <path id="パス_55118" data-name="パス 55118" d="M-16.434-1.4a1.083,1.083,0,0,1-.008.134,1.228,1.228,0,0,0-.008.151h-2.822q-.017-.47-.042-.924a5.226,5.226,0,0,1,.025-.89,7.762,7.762,0,0,0,.05-.89q0-.454.017-.874.017-.47.034-.932t.034-.915q.017-.454.017-.924v-.924q.017-.454.034-.924t.034-.924q.017-.47.034-.932t.034-.983h1.747v-.05H-20.7v-2.553a2.1,2.1,0,0,1,.26-.017h.244q.957-.017,1.915-.025t1.915-.008q.538,0,1.067.017l1.083.034V-12.4l-.983.1-.966.1q0,.521.008,1.033t-.008,1.016a4.859,4.859,0,0,0,0,.571,1.6,1.6,0,0,1,0,.328,2.137,2.137,0,0,1-.05.294,3.132,3.132,0,0,1-.076.5,1.313,1.313,0,0,0-.025.487,4.134,4.134,0,0,1,.059,1.083,10.277,10.277,0,0,0-.025,1.1,3.8,3.8,0,0,1-.008.756q-.042.386-.076.756-.017.739-.025,1.445T-16.434-1.4ZM8.536-7.647a1.176,1.176,0,0,1-.017-.193v-.193q.017-1.344.034-2.662t.034-2.646a.9.9,0,0,0-.1-.4v.378q0,.193-.017.378-.017.168-.042.319t-.059.3a.892.892,0,0,1-.008.126.327.327,0,0,0,.008.126,2.023,2.023,0,0,1-.017,1.125.831.831,0,0,1-.042.126.15.15,0,0,0-.008.109.624.624,0,0,1,.059.412q-.042.21-.092.412a.265.265,0,0,0-.017.151.356.356,0,0,1,.134.311q-.017.176-.034.344,0,.454-.025.915t-.042.932q-.017.974-.034,1.982t-.067,2q0,.4-.034.806t-.067.79q-.017.151-.025.311t-.008.344h-.6q-.286,0-.571-.017A.3.3,0,0,1,6.739-1.1a.258.258,0,0,0-.185,0,.236.236,0,0,1-.2.017,2.124,2.124,0,0,0-.3-.05,1.944,1.944,0,0,1-.731.1l-.8-.034A.776.776,0,0,1,4.5-1.154a.354.354,0,0,1-.008-.059q0-.672-.008-1.344T4.488-3.9a.847.847,0,0,1,.042-.252q.042-.134.092-.3A.35.35,0,0,1,4.5-4.7a2.117,2.117,0,0,1,0-.378,2.8,2.8,0,0,0,.084-.68q0-.344.017-.68.034-1.075.076-2.15t.059-2.15q.017-.42.025-.832T4.79-12.4q.017-.638.025-1.293t.025-1.293a.276.276,0,0,1,.017-.084,1.162,1.162,0,0,0,.034-.134q.4,0,.806-.008t.806.008q.4.017.806.042a2.63,2.63,0,0,0,.806-.076q.353-.067.37.319,0,.185.008.395a3.305,3.305,0,0,0,.042.412l.034-.5q.017-.252.034-.487a1.394,1.394,0,0,1,.739-.034,4.921,4.921,0,0,1,.689.218,3.271,3.271,0,0,1,.479.218,3.642,3.642,0,0,1,.462.3,2.083,2.083,0,0,1,.554.571q.168.2.319.42a3.714,3.714,0,0,1,.269.454,1.562,1.562,0,0,1,.151.412,3.21,3.21,0,0,1,.067.428,7.01,7.01,0,0,1,.017.84q-.017.42,0,.857a1.74,1.74,0,0,1-.235,1.083,4.314,4.314,0,0,1-.689.848,3.409,3.409,0,0,1-.664.546A4.219,4.219,0,0,1,10-7.563a4.109,4.109,0,0,1-.5.143q-.269.059-.521.109a.347.347,0,0,1-.3-.05A.616.616,0,0,1,8.536-7.647Z" transform="translate(-18447.607 -22894.451)" fill="#393939"/>
    <path id="パス_55120" data-name="パス 55120" d="M203.519,292.688a7.654,7.654,0,0,1,1.976-3.079,3.752,3.752,0,0,1,1.037-.667c.373-.159.746-.348,1.109-.535.3-.079.69-.185.778-.2a7.333,7.333,0,0,1,1.213-.053,14.845,14.845,0,0,1,1.711.366,4,4,0,0,1,.862.25,5.5,5.5,0,0,1,2.5,1.89,7.782,7.782,0,0,1,1.457,2.978,1.374,1.374,0,0,1,.033.523c-.019.174-.029.345-.032.534a.113.113,0,0,1-.115.111c-.387-.011-.757.054-1.112.034l-1.16-.066-1.021-.033q-.51-.016-1.037-.049a4.667,4.667,0,0,1-.618-.074,3.916,3.916,0,0,0-.762.021c-.614.022-.871.021-1.5.06s-1.234.046-1.87.079c-.209-.01-.456-.018-.5-.018a6.259,6.259,0,0,1-.847-.091,1.4,1.4,0,0,0-.865.14,1.06,1.06,0,0,1-.609.09q-.346-.041-.658-.074a.287.287,0,0,1-.272-.157.521.521,0,0,1-.025-.3c.044-.308.088-.468.132-.781A5.807,5.807,0,0,1,203.519,292.688Zm6.163,9.631c-.143,0-.493.039-.646.03a7.937,7.937,0,0,1-.915-.139,2.831,2.831,0,0,1-1.143-.22,9.409,9.409,0,0,1-1.663-.955,5.779,5.779,0,0,1-1.465-1.622,6.824,6.824,0,0,1-.84-1.9,2.06,2.06,0,0,1-.058-.757c.023-.218.049-.5.057-.779a.178.178,0,0,1,.174-.175c.772-.015,1.554.038,2.321.03,1.3-.014,2.387-.079,3.893-.129.977-.033,2.169-.038,3.15-.068,1.137-.035,2.061-.118,3.2-.118.05,0,.133.009.152.078.023.088-.008.133.025.207a.4.4,0,0,1,.024.263,6.134,6.134,0,0,1-.288,1.765,6.547,6.547,0,0,1-.815,1.728,5.226,5.226,0,0,1-1.794,1.713,16.38,16.38,0,0,1-2.272.922,3.272,3.272,0,0,1-.561.082C209.961,302.291,209.846,302.319,209.682,302.319Z" transform="translate(-18662.676 -23197.598)" fill="#393939"/>
  </g>
</svg>
