<svg xmlns="http://www.w3.org/2000/svg" width="240" height="37.677" viewBox="0 0 240 37.677">
  <g id="グループ_8726" data-name="グループ 8726" transform="translate(-269.318 -806.797)">
    <path id="パス_54914" data-name="パス 54914" d="M269.4,841.755a2.561,2.561,0,0,0,.14-.541.85.85,0,0,0,.02-.479,1.126,1.126,0,0,1-.02-.481,5.5,5.5,0,0,0,.12-.641c.026-.213-.195-.292-.267-.45a.58.58,0,0,1,.067-.39c.08-.134.025-.41.079-.516a5.422,5.422,0,0,1-.218-1.076c.026-.4.006-.729.059-1.13a4.633,4.633,0,0,1,.241-.9c.106-.28.116-.363.2-.63a2.706,2.706,0,0,0-.025-.46c-.145-.435-.319-.7-.211-1.112a4.767,4.767,0,0,0,.16-1.18q.039-1.921.04-3.822t.04-3.823q.081-1.64.18-3.282t.18-3.242q.039-1.6.04-3.162t.04-3.122q.08-.92.079-1.821t.041-1.861a.973.973,0,0,1,.04-.261c.026-.093.008-.313.149-.372a2.8,2.8,0,0,1,.57-.07,21.778,21.778,0,0,1,2.727-.022c.415,0,1.177,0,1.607,0,.551.006,1.142.007,1.682.022.3.009.543.01.9.005.316,0,.646.029.957.012.4-.022.714-.028,1.049-.034a1.517,1.517,0,0,1,.5.118.723.723,0,0,1,.344.454c.009.181.07.326.07.54-.053,1.067-.06,1.8-.113,2.89s-.107,2.189-.16,3.283c0,.347.013.674.04.98s.04.634.04.98a4.659,4.659,0,0,0,0,.881,1.207,1.207,0,0,1-.321.88c-.054.134-.054.227,0,.281a1.139,1.139,0,0,1,.2,1.161,9.628,9.628,0,0,0-.44,1.161,1.067,1.067,0,0,1,.52.821,4.469,4.469,0,0,1-.04,1.021,28.5,28.5,0,0,0-.241,5.644,13.8,13.8,0,0,1-.08,1.5q-.08.741-.16,1.5v2.082q-.041.639-.04,1.281t-.04,1.32q-.04,1.482-.1,3.041t-.14,3.123a.907.907,0,0,1-1,1c-.373,0-.566.005-.968.019s-.458-.2-.754-.32c-.157-.068-1.675.086-1.9-.02s-.713.1-.847.183a1.758,1.758,0,0,1-.694.056c-.1.016-.713-.173-.979-.173a8.111,8.111,0,0,0-1.614.025c-.364.13-.663,0-1.092.052a.538.538,0,0,1-.494-.284A1.055,1.055,0,0,1,269.4,841.755Zm12.325-.01a7.6,7.6,0,0,1,.114-1.73,19,19,0,0,0,.2-2.09,21.25,21.25,0,0,1,.008-2.836,5.712,5.712,0,0,0,.04-1.181q-.039-.619-.04-1.261c.026-.24,0-.57.009-.81s-.051-.737.11-.752a25.845,25.845,0,0,1,2.867-.033c.291,0,1.611-.021,2.284-.008.3.006,1.239.038,1.524.034.731-.012,2.315.039,2.939.08a.538.538,0,0,1,.5.54q0,.714.019,1.428c.014.627.013,1.253-.018,1.88q-.081,1.662-.2,3.345c-.08,1.107.034,2.135-.019,3.229a1.737,1.737,0,0,1-.24.98,1.387,1.387,0,0,1-.961.221s-2.673.052-2.981.02-1.713.018-1.713.018-1.633-.024-1.94.037a10.559,10.559,0,0,1-1.424,0,1.083,1.083,0,0,1-.741-.181A1.64,1.64,0,0,1,281.725,841.746Z" transform="translate(0 -0.016)" fill="#fff"/>
    <path id="パス_54915" data-name="パス 54915" d="M484.394,842.223a.705.705,0,0,1-.025-.524,2.555,2.555,0,0,0,.14-.541.849.849,0,0,0,.02-.479c-.04-.134-.06-2.522-.034-2.708a5.154,5.154,0,0,0,.12-.64c.027-.213.032-.156-.182-.343a1.3,1.3,0,0,1-.017-.5,41.778,41.778,0,0,0,.1-5.388c.026-.4.052-1.644.07-1.943a20.146,20.146,0,0,1-.04-2.2,4.767,4.767,0,0,0,.16-1.181c.026-1.281.04-.856.04-2.125s.416-5.344.442-6.624c.053-1.094-.214-1.2-.148-2.3a10.264,10.264,0,0,0,.1-3.063c-.151-1.029.2-.443.226-1.483.054-.614-.193-.464-.193-1.065s.15-.9.177-1.544a.973.973,0,0,1,.04-.261c.026-.093.023-.245.191-.278.414-.083,1.694-.122,2.086-.137.493-.018.983,0,1.51.035.589.033,1,.017,1.465.005.279-.007,1.462-.012,1.824,0a13.8,13.8,0,0,0,1.473-.024c.288-.022.576-.057.883-.107a2.324,2.324,0,0,1,.431.011.836.836,0,0,1,.323.256.9.9,0,0,1,.16.541q-.08,1.6-.16,3.242t-.16,3.283c0,.346.014,2.008.04,2.314s.04.634.04.981a4.786,4.786,0,0,0,0,.88,1.036,1.036,0,0,1-.131.875c-.054.134-.054.227,0,.281a1.085,1.085,0,0,1,.011,1.166,1.657,1.657,0,0,0-.06,1.091c-.145.371.113.558.14.891a4.455,4.455,0,0,1-.04,1.02,16.671,16.671,0,0,0-.24,4.311,13.985,13.985,0,0,1-.08,1.5c-.054.494-.107.995-.161,1.5v2.082c-.026.426-.04.853-.04,1.281s-.013.867-.04,1.32q-.041,1.48-.1,3.041t-.14,3.123c-.027.667-.192,1-.833,1-.373,0-.526.006-.926.019a1.139,1.139,0,0,1-.892-.38.331.331,0,0,0-.18-.1c-.068-.015-.654.245-.881.14s-1.279-.083-1.492-.164a12.745,12.745,0,0,1-1.277.245c-.15,0-.845-.148-1.058-.04a9.841,9.841,0,0,1-1.793,0,2.6,2.6,0,0,0-.593-.054C484.6,842.451,484.515,842.358,484.394,842.223Zm12.467-11.02a1.078,1.078,0,0,1,.74-.18s.551,0,1.077-.006c.259,0,.937-.006,1.115-.013.233-.008,1.079-.029,1.433-.044.47-.019.96.025,1.262.025.462,0,1.047-.029,1.493-.022.652.01,1.743-.049,1.743-.049a1.966,1.966,0,0,1,1.11.2c.133.147.042.745.069,1.252.053,1.095-.08,1.3,0,2.407s-.091,2.423-.037,3.531c.031.626.178,1.878.164,2.505q-.015.714-.018,1.428a.539.539,0,0,1-.5.54c-.45.029-.972.053-1.5.072s-1.363.033-1.847.042c-.3.005-1.161.005-1.614,0-.563,0-1.5.033-1.666.029-.254,0-1.077-.128-1.375-.1a6.823,6.823,0,0,1-1.6.076c-.161-.015-.361-.234-.266-.83a2.766,2.766,0,0,0-.06-.72q0-.641.04-1.262a18.843,18.843,0,0,0-.02-2.142,15.988,15.988,0,0,1,.027-3.193c0-1.135.048-1.658.048-2.805A1.085,1.085,0,0,1,496.861,831.2Z" transform="translate(-44.189 -0.001)" fill="#fff"/>
    <path id="パス_54916" data-name="パス 54916" d="M315.017,818.334a19.5,19.5,0,0,1,5.029-7.838,9.561,9.561,0,0,1,2.642-1.7c.949-.405,1.9-.888,2.821-1.362.772-.2,1.758-.472,1.981-.5a18.728,18.728,0,0,1,3.089-.134c1.243,0,2.929.713,4.355.932a10.16,10.16,0,0,1,2.194.637,14,14,0,0,1,6.367,4.81,19.822,19.822,0,0,1,3.709,7.58,3.522,3.522,0,0,1,.083,1.332c-.048.443-.074.877-.082,1.359a.288.288,0,0,1-.292.281c-.984-.028-1.927.137-2.83.087l-2.955-.168-2.6-.083q-1.3-.042-2.64-.125a11.889,11.889,0,0,1-1.571-.188,9.934,9.934,0,0,0-1.941.053c-1.564.055-2.217.053-3.823.152s-3.14.118-4.761.2c-.531-.025-1.161-.047-1.273-.047a15.9,15.9,0,0,1-2.158-.231,3.562,3.562,0,0,0-2.2.357,2.7,2.7,0,0,1-1.551.231q-.88-.105-1.676-.188a.729.729,0,0,1-.691-.4,1.323,1.323,0,0,1-.063-.775c.112-.783.224-1.192.335-1.989A14.843,14.843,0,0,1,315.017,818.334Zm15.688,24.517c-.365,0-1.257.1-1.646.076a20.1,20.1,0,0,1-2.329-.354c-1.342-.2-1.459.082-2.91-.561a23.9,23.9,0,0,1-4.233-2.43,14.715,14.715,0,0,1-3.73-4.128,17.428,17.428,0,0,1-2.138-4.848,5.231,5.231,0,0,1-.146-1.928c.058-.555.124-1.277.145-1.985a.454.454,0,0,1,.444-.444c1.964-.038,3.955.1,5.909.076,3.316-.036,6.077-.2,9.91-.329,2.487-.083,5.52-.1,8.02-.174,2.9-.09,5.247-.3,8.146-.3.129,0,.339.023.386.2.06.222-.018.337.065.527a1.012,1.012,0,0,1,.062.67,15.6,15.6,0,0,1-.733,4.492,16.642,16.642,0,0,1-2.074,4.4,13.3,13.3,0,0,1-4.567,4.358,41.611,41.611,0,0,1-5.783,2.347,8.438,8.438,0,0,1-1.428.21C331.416,842.778,331.124,842.85,330.705,842.85Z" transform="translate(-9.089 0)" fill="#fff"/>
    <path id="パス_54917" data-name="パス 54917" d="M528.5,830.209c-.116-.825-.232-1.208-.348-2.02a1.36,1.36,0,0,1,.066-.8.756.756,0,0,1,.716-.413q.826-.086,1.738-.2a2.8,2.8,0,0,1,1.606.239,11.33,11.33,0,0,0,2.962.036,25.728,25.728,0,0,1,2.875.046c1.68.088,5.878-.071,7.5-.014.549.03,2.252.157,2.8.157a11.421,11.421,0,0,0,1.54-.283s1.839-.1,2.737-.13,2.493.218,3.392.188l3.062-.173q1.4-.08,2.935-.122a.3.3,0,0,1,.3.292c.008.5-.179,1.609-.13,2.068a4.4,4.4,0,0,1-.24,1.519,17.713,17.713,0,0,1-3.477,7.319,14.5,14.5,0,0,1-6.6,4.985,10.538,10.538,0,0,1-2.274.661c-1.477.227-3.225.966-4.513.966a19.385,19.385,0,0,1-3.2-.14c-.231-.033-1.253-.313-2.054-.522-.955-.492-1.94-.992-2.924-1.411a9.907,9.907,0,0,1-2.738-1.759,20.206,20.206,0,0,1-5.212-8.123A15.366,15.366,0,0,1,528.5,830.209Zm18.2-22.911a8.68,8.68,0,0,1,1.479.217,43.087,43.087,0,0,1,5.994,2.432,13.784,13.784,0,0,1,4.734,4.517,17.25,17.25,0,0,1,2.15,4.56,13.7,13.7,0,0,1,.876,4.259,1.049,1.049,0,0,1-.065.7c-.086.2,0,.315-.066.546-.049.181-.267.206-.4.206-3,0-3.052-.362-6.07-.236-2.589.107-4.053.085-6.631,0-.75-.025-2.421.126-3.08.109-2.831-.076-4.971-.184-7.757-.28-.911-.032-4.39.327-5.449.329-2.54,0-2.84-.224-4.278-.252a.47.47,0,0,1-.46-.46c-.021-.733-.091-1.211-.151-1.788a5.417,5.417,0,0,1,.152-2,19.934,19.934,0,0,1,2.216-5.321,15.25,15.25,0,0,1,3.866-4.278,24.781,24.781,0,0,1,4.387-2.519c1.5-.666,1.626-.371,3.016-.581a20.728,20.728,0,0,1,2.414-.368c.4-.024,1.328.079,1.706.079C545.708,807.166,546.012,807.241,546.692,807.3Z" transform="translate(-53.058 -0.059)" fill="#fff"/>
    <path id="パス_54918" data-name="パス 54918" d="M456.466,831.447c-1.668,3.288-2.484,4.886-4.83,7.15a16.347,16.347,0,0,1-3.369,2.331c-.949.405-1.9.887-2.822,1.362-.772.2-1.758.472-1.981.5a18.73,18.73,0,0,1-3.089.134c-1.243,0-2.929-.714-4.355-.933a20.518,20.518,0,0,1-3.156-.731,9.626,9.626,0,0,1-5.4-4.716c-1.486-2.448-2.716-2.765-3.291-6.326a14.683,14.683,0,0,1-.323-2.74c.047-.442.085-1.115.092-1.6a.288.288,0,0,1,.292-.282c.985.028,1.788.038,2.692.089.992.057,1.526.171,2.5.227.867.028,2.627.1,3.4.06a33.231,33.231,0,0,1,3.808.029,9.944,9.944,0,0,0,1.941.035c1.564-.056,2.217-.054,3.823-.152s3.141-.119,4.76-.2c.531.026,1.162.047,1.273.047.727.029,2.241-.04,2.952.087s1.148-.169,1.935-.158a10.38,10.38,0,0,1,1.686-.044c.587.07,1.01-.053,1.54,0a.727.727,0,0,1,.691.4,1.317,1.317,0,0,1,.064.775c-.112.784-.224,1.572-.335,2.368A14.854,14.854,0,0,1,456.466,831.447Zm-16.215-24.572c.364,0,1.256-.1,1.645-.075a19.724,19.724,0,0,1,2.329.354,17.906,17.906,0,0,1,2.91.56,9.813,9.813,0,0,1,4.467,3.029,15.34,15.34,0,0,1,3.044,3.458,14.8,14.8,0,0,1,2.1,4.414,7.956,7.956,0,0,1,.488,2.348c-.059.555-.125,1.277-.145,1.985a.454.454,0,0,1-.444.444c-1.965.038-3.5-.026-5.457,0-3.316.036-5.41-.141-9.242-.014-2.488.083-6.188.44-8.688.517-2.9.089-5.565.037-8.464.037-.129,0-.339-.023-.386-.2s0-.94-.025-1.432a11.6,11.6,0,0,1,.651-3.981,16.645,16.645,0,0,1,2.074-4.4,13.31,13.31,0,0,1,4.567-4.359,41.522,41.522,0,0,1,5.783-2.346,8.436,8.436,0,0,1,1.428-.21C439.539,806.948,439.831,806.876,440.251,806.876Z" transform="translate(-31.757 0)" fill="#fff"/>
    <path id="パス_54919" data-name="パス 54919" d="M391.253,815.92c-.029.926-.064,2.617-.138,3.516-.026.315-1.412.488-2.2.971a5.123,5.123,0,0,0-2.1,2.519,8.564,8.564,0,0,0-.309,2.047,10.289,10.289,0,0,0,.047,2.047,2.674,2.674,0,0,0,.879,1.765,14.943,14.943,0,0,0,1.745,1.332c.7.495,1.835.442,1.863,1.31q.087,1.217.065,2.455a9.674,9.674,0,0,1-.1,2.151c-.029.145.038.5,0,.8a1.428,1.428,0,0,0,.039.462c.058.2.123.4.2.586a5.171,5.171,0,0,1,.044.807,3.68,3.68,0,0,1,0,1.192,3.291,3.291,0,0,0,.021,1.456.526.526,0,0,1-.174.586,1.367,1.367,0,0,1-.694.239,7.737,7.737,0,0,1-1.933-.152q-.935-.2-1.933-.456a15.29,15.29,0,0,1-3.149-1.3q-1.5-.825-3.019-1.737a12.311,12.311,0,0,1-3.8-3.844,24.059,24.059,0,0,1-2.324-4.974c-.029-.145-.226-1.314-.239-1.488a12.671,12.671,0,0,1-.211-2.152,29.855,29.855,0,0,1,.158-3.018,13.788,13.788,0,0,1,.748-3.593,19.385,19.385,0,0,1,1.8-3.431,18.6,18.6,0,0,1,4.387-4.517,19.86,19.86,0,0,1,5.647-2.824,3.666,3.666,0,0,0,.739-.281,1.644,1.644,0,0,1,.738-.2q.868-.086,1.738-.086c.559,0,1.105-.014,1.638,0,.052,0,.056.047.056.07q0,.609.044,1.1a3.849,3.849,0,0,1-.044,1q-.043,1.432-.087,2.845T391.253,815.92Zm8.1,18.027c0,.58.056,1.447.026,2s-.043,1.115-.043,1.694c0,.551.02,1.022-.01,1.587a16.142,16.142,0,0,0,0,1.972c.049.377.052.878-.078.994s-.91-.053-1.285,0a25.741,25.741,0,0,1-2.821-.086,7.158,7.158,0,0,0-1.344-.029c-.25.022-.862.086-.862-.288,0-.348-.02-1.336-.034-1.7a8.126,8.126,0,0,1,.134-1.079c0-1.014-.213-1.81-.184-2.809s.172-2.649.2-3.663c0-.492-.053-.984.077-1.143s.588-.03,1.052-.03c.462-.029,2.482-.036,2.96-.022s1.438.027,2.047.027c.4.055.241.758.27,1.1S399.356,833.627,399.356,833.947Zm-5.8-25.869,1.092-.048a10.523,10.523,0,0,1,1.378.031c.359.067,1.079-.084,1.543-.062s1.667-.014,1.667-.014c.246,0,.606.2.591.443a18.31,18.31,0,0,0,0,2.1,10.578,10.578,0,0,1-.06,2.437,10.34,10.34,0,0,0-.1,2.015c-.015.724.15,1.247.122,1.97-.03.289-.052.564-.066.826s-.036.536-.065.825a1.356,1.356,0,0,1-.238.7.7.7,0,0,1-.674.218c-.223-.015-.934.039-1.784.026-.8-.013-1.339-.092-1.543-.106a9.564,9.564,0,0,1-1.574.08c-.551-.058-.818.06-.818-.519.029-.843.176-1.734.21-2.677.035-.969-.045-1.99,0-2.842.045-.875.13-1.589.158-2.512.027-.849,0-1.907.028-2.713A.159.159,0,0,1,393.557,808.078Z" transform="translate(-21.476 -0.244)" fill="#fff"/>
  </g>
</svg>
