<svg xmlns="http://www.w3.org/2000/svg" xmlns:xlink="http://www.w3.org/1999/xlink" width="336.93" height="490.922" viewBox="0 0 336.93 490.922">
  <defs>
    <filter id="合体_1" x="0" y="0" width="336.93" height="490.922" filterUnits="userSpaceOnUse">
      <feOffset dy="3" input="SourceAlpha"/>
      <feGaussianBlur stdDeviation="3" result="blur"/>
      <feFlood flood-opacity="0.161"/>
      <feComposite operator="in" in2="blur"/>
      <feComposite in="SourceGraphic"/>
    </filter>
  </defs>
  <g id="グループ_10533" data-name="グループ 10533" transform="translate(-508.514 -588.896)">
    <g transform="matrix(1, 0, 0, 1, 508.51, 588.9)" filter="url(#合体_1)">
      <path id="合体_1-2" data-name="合体 1" d="M18843.416,20302.41a25.925,25.925,0,0,1-2.008-3.258,5.422,5.422,0,0,1-3.521-2.084c-.4-.555-1.125-1.824-1.645-2.756a3.254,3.254,0,0,1-3.043-2.105c-.529-1.559-2.039-8.924-2.039-21.918a85.722,85.722,0,0,1,1.279-15.578c.475-3.023.963-6.146,1.314-10.941.861-11.746,1.162-16.924-.035-27.238-.646-5.605-1.717-11.711-2.4-14.611-.719-3.062-.611-8.576.7-11.578a5.987,5.987,0,0,1,2.359-2.721l7.8-10.3v-11.242c0-1.91-2.156-3.389-3.965-4.295-.531-.229-5.219-1.574-10.178-3-10.273-2.951-24.344-6.992-29.857-9.117a5.1,5.1,0,0,1-3.281-4.795v-2.988c-61.029-22.391-104.687-81.078-104.687-149.771,0-87.926,71.537-159.465,159.465-159.465s159.465,71.539,159.465,159.465c0,68.156-42.984,126.465-103.266,149.242v3.518a5.1,5.1,0,0,1-3.287,4.795c-5.51,2.125-19.58,6.166-29.854,9.117-4.963,1.422-9.646,2.768-10.2,3.006-1.789.9-3.949,2.375-3.949,4.285v11.242l8.1,10.713a5.955,5.955,0,0,1,1.748,2.313c1.3,3,1.416,8.516.693,11.578-.678,2.9-1.748,9.006-2.4,14.611-1.2,10.314-.9,15.492-.035,27.238.346,4.789.84,7.914,1.32,10.941a86.157,86.157,0,0,1,1.279,15.578c0,13.016-1.514,20.363-2.045,21.918-.621,1.814-2.359,2.125-4.137,2.176-.52.928-1.219,2.141-1.611,2.686a5.389,5.389,0,0,1-3.516,2.084,24.728,24.728,0,0,1-2.014,3.258,7.82,7.82,0,0,1-12.557,0Zm-140.084-310.3c0,80.691,65.646,146.344,146.332,146.344s146.348-65.652,146.348-146.344-65.652-146.342-146.348-146.342S18703.332,19911.422,18703.332,19992.111Z" transform="translate(-18681.21 -19826.65)" fill="#f2f2f2"/>
    </g>
    <g id="グループ_10432" data-name="グループ 10432" transform="translate(671.354 963.207)">
      <g id="グループ_10431" data-name="グループ 10431">
        <path id="パス_55106" data-name="パス 55106" d="M487.407,649.415a1.011,1.011,0,0,0,.175.045.266.266,0,0,0,.158.005.362.362,0,0,1,.158-.005c.07.017.14.03.21.04s.1-.065.148-.088a.187.187,0,0,1,.128.02c.045.028.135.01.17.028a1.779,1.779,0,0,1,.353-.073c.13.01.238,0,.371.02a1.537,1.537,0,0,1,.3.078,1.791,1.791,0,0,0,.205.065.767.767,0,0,0,.15-.008c.143-.047.23-.105.366-.07a1.553,1.553,0,0,0,.388.053c.418.01.837.013,1.253.013s.834,0,1.255.015c.358.018.719.035,1.077.058s.714.042,1.065.06.694.013,1.037.013.681.005,1.025.013c.2.018.4.027.6.027s.4,0,.611.013a.349.349,0,0,1,.085.013c.03.01.1,0,.123.05a.807.807,0,0,1,.023.185,6.988,6.988,0,0,1,.008.894c0,.138,0,.388,0,.529,0,.18,0,.373-.008.551,0,.1,0,.178,0,.3s-.01.213-.005.316c.007.13.01.233.01.343a.5.5,0,0,1-.038.165.244.244,0,0,1-.15.113c-.057,0-.105.023-.175.023-.351-.018-.591-.02-.95-.038l-1.077-.053c-.113,0-.22.005-.321.013a3.227,3.227,0,0,1-.323.015,1.4,1.4,0,0,0-.288,0,.4.4,0,0,1-.288-.105c-.045-.017-.075-.017-.093,0a.376.376,0,0,1-.381.065,3.462,3.462,0,0,0-.381-.145.346.346,0,0,1-.271.17,1.346,1.346,0,0,1-.333-.013,9.363,9.363,0,0,0-1.854-.078,4.526,4.526,0,0,1-.491-.027l-.494-.053h-.682c-.14-.008-.281-.013-.421-.013s-.286-.005-.433-.013c-.323-.01-.656-.02-1-.033s-.681-.03-1.025-.047a.3.3,0,0,1-.328-.328c0-.123,0-.186,0-.316s.065-.153.105-.248c.023-.053-.028-.551.005-.624s-.033-.236-.06-.278a.625.625,0,0,1-.018-.228c-.005-.032.058-.233.058-.321a2.658,2.658,0,0,0-.01-.531c-.043-.118,0-.218-.017-.358-.013-.062.04-.123.1-.163A.342.342,0,0,1,487.407,649.415Zm0,4.044a2.533,2.533,0,0,1,.569.037,6.258,6.258,0,0,0,.684.065,6.79,6.79,0,0,1,.93,0,1.819,1.819,0,0,0,.388.013c.135-.008.273-.013.413-.013.08.01.188,0,.266,0s.243-.015.248.038a8.5,8.5,0,0,1,.01.94c0,.1.007.529,0,.751,0,.1-.013.406-.01.5,0,.24-.013.759-.027.965a.176.176,0,0,1-.178.165c-.155,0-.311,0-.468,0-.205.005-.411.005-.616,0-.363-.018-.729-.04-1.1-.065s-.7.01-1.06-.008a.567.567,0,0,1-.321-.078.464.464,0,0,1-.073-.316s-.018-.877-.008-.979-.005-.561-.005-.561.007-.536-.013-.636a3.564,3.564,0,0,1,0-.469.351.351,0,0,1,.06-.243A.555.555,0,0,1,487.409,653.458Z" transform="translate(-486.509 -649.387)" fill="#008fb7"/>
        <path id="パス_55107" data-name="パス 55107" d="M487.257,671.781a.238.238,0,0,1,.173-.008.731.731,0,0,0,.178.045.287.287,0,0,0,.158.007c.043-.012.827-.02.887-.012a1.559,1.559,0,0,0,.211.04c.07.01.053.01.113-.06a.461.461,0,0,1,.163-.005,13.868,13.868,0,0,0,1.769.035c.13.008.539.015.636.022a5.9,5.9,0,0,1,.724-.012,1.667,1.667,0,0,0,.388.05c.418.01.281.015.7.015s1.754.135,2.175.146c.358.017.393-.07.752-.05a3.382,3.382,0,0,0,1.007.033c.338-.05.145.065.486.073.2.018.153-.063.348-.063s.3.05.509.058a.291.291,0,0,1,.085.015c.03.008.08.008.09.063.028.135.04.554.045.684.005.16,0,.323-.013.5-.01.193,0,.328,0,.481,0,.09,0,.479,0,.6a4.361,4.361,0,0,0,.008.484c.008.1.018.19.035.291a.909.909,0,0,1,0,.143.3.3,0,0,1-.085.105.294.294,0,0,1-.178.053l-1.062-.053-1.077-.053c-.115,0-.659.005-.759.013s-.208.013-.323.013a1.8,1.8,0,0,0-.288,0,.334.334,0,0,1-.288-.043q-.064-.026-.09,0a.354.354,0,0,1-.383.005.538.538,0,0,0-.358-.02c-.123-.048-.183.038-.293.045a1.5,1.5,0,0,1-.333-.013,5.463,5.463,0,0,0-1.415-.08,4.674,4.674,0,0,1-.494-.025l-.491-.053h-.684c-.14-.01-.281-.013-.421-.013s-.283-.005-.433-.015c-.323-.008-.656-.017-1-.033s-.684-.027-1.025-.045c-.218-.01-.328-.063-.328-.273,0-.123,0-.173-.008-.3a.379.379,0,0,1,.125-.293.1.1,0,0,0,.033-.06c.005-.022-.08-.213-.045-.288s.027-.421.052-.491c0-.053-.075-.3-.08-.419a1.133,1.133,0,0,0,.015-.348,3.021,3.021,0,0,1,0-.586.94.94,0,0,0,.018-.2C487.185,671.849,487.215,671.821,487.257,671.781Zm3.618,4.091a.351.351,0,0,1,.06.243s0,.18,0,.353c0,.085,0,.308.005.366,0,.078.01.356.015.471,0,.155-.01.316-.01.413,0,.153.01.343.008.491,0,.213.018.571.018.571a.652.652,0,0,1-.065.366c-.048.043-.245.013-.411.023-.358.017-.426-.028-.789,0s-.8-.03-1.16-.012c-.205.01-.616.058-.822.052-.155,0-.313-.005-.468-.005a.178.178,0,0,1-.178-.165c-.01-.148-.017-.318-.023-.494s-.01-.446-.015-.606v-.529c0-.185-.01-.494-.01-.546,0-.083.042-.353.032-.451a2.274,2.274,0,0,1-.025-.524c.005-.053.078-.118.273-.088a.937.937,0,0,0,.235-.02c.14,0,.278,0,.416.012a5.93,5.93,0,0,0,.7,0,5.219,5.219,0,0,1,1.047.007c.373,0,.544.018.922.018A.353.353,0,0,1,490.875,675.872Z" transform="translate(-486.52 -615.707)" fill="#008fb7"/>
        <path id="パス_55108" data-name="パス 55108" d="M495.1,654.473a6.4,6.4,0,0,1,2.573,1.651,3.117,3.117,0,0,1,.556.867c.133.311.291.621.446.925.068.253.155.576.165.651a6.106,6.106,0,0,1,.045,1.012,12.193,12.193,0,0,1-.306,1.431,3.329,3.329,0,0,1-.21.719,4.578,4.578,0,0,1-1.576,2.089,6.547,6.547,0,0,1-2.488,1.218,1.156,1.156,0,0,1-.438.025c-.145-.015-.288-.023-.446-.025a.1.1,0,0,1-.093-.1c.01-.323-.045-.631-.027-.927.017-.326.038-.649.055-.97.01-.286.018-.569.028-.854s.023-.571.04-.864a3.864,3.864,0,0,1,.063-.516,3.186,3.186,0,0,0-.018-.636c-.018-.514-.018-.729-.05-1.255s-.037-1.03-.065-1.563c.007-.173.015-.381.015-.416a5.53,5.53,0,0,1,.075-.709,1.153,1.153,0,0,0-.118-.722.892.892,0,0,1-.075-.509c.022-.193.045-.376.063-.551a.237.237,0,0,1,.13-.226.437.437,0,0,1,.255-.022c.255.037.391.075.651.11A5.006,5.006,0,0,1,495.1,654.473Zm-8.044,5.148c0-.12-.033-.413-.025-.541a6.29,6.29,0,0,1,.118-.764,2.332,2.332,0,0,1,.183-.954,7.834,7.834,0,0,1,.8-1.39,4.825,4.825,0,0,1,1.355-1.223,5.706,5.706,0,0,1,1.591-.7,1.723,1.723,0,0,1,.634-.048c.18.018.418.04.649.048a.151.151,0,0,1,.148.145c.012.644-.033,1.3-.025,1.939.01,1.087.065,1.994.108,3.252.028.814.032,1.811.058,2.63.027.949.1,1.721.1,2.673,0,.043-.008.113-.065.128-.073.018-.11-.007-.173.02a.322.322,0,0,1-.221.02,4.993,4.993,0,0,1-1.473-.24,5.5,5.5,0,0,1-1.446-.679,4.374,4.374,0,0,1-1.428-1.5,13.544,13.544,0,0,1-.772-1.9,2.951,2.951,0,0,1-.068-.469C487.078,659.854,487.053,659.759,487.053,659.621Z" transform="translate(-486.521 -642.459)" fill="#008fb7"/>
        <path id="パス_55109" data-name="パス 55109" d="M491.526,676.583c.271-.037.4-.075.661-.115a.462.462,0,0,1,.263.022.239.239,0,0,1,.135.235c.02.18.04.371.065.569a.937.937,0,0,1-.078.529,3.74,3.74,0,0,0-.013.972,8.181,8.181,0,0,1-.015.942c-.028.551.023,1.929.005,2.46-.01.18-.053.739-.053.919,0,.258.085.326.093.506,0,0,.035.6.042.9s-.07.819-.06,1.112c.018.333.038.669.055,1,.018.308.033.629.04.965a.1.1,0,0,1-.1.1c-.163,0-.529-.058-.679-.042a1.435,1.435,0,0,1-.5-.078,5.806,5.806,0,0,1-2.4-1.14,4.769,4.769,0,0,1-1.636-2.167,3.489,3.489,0,0,1-.218-.744,13.216,13.216,0,0,1-.316-1.483,6.322,6.322,0,0,1,.045-1.05c.01-.075.1-.411.17-.674.163-.313.326-.636.464-.959a3.23,3.23,0,0,1,.579-.9,6.624,6.624,0,0,1,2.666-1.711A5.025,5.025,0,0,1,491.526,676.583Zm7.518,5.97a3.105,3.105,0,0,1-.073.486,14.141,14.141,0,0,1-.8,1.967,4.5,4.5,0,0,1-1.481,1.553,5.74,5.74,0,0,1-1.5.706,4.5,4.5,0,0,1-1.4.286.342.342,0,0,1-.228-.02c-.065-.028-.105,0-.18-.023s-.068-.088-.068-.13c0-.987.12-1,.078-1.992-.035-.849-.028-1.33,0-2.177.007-.245-.04-.794-.035-1.01.025-.929.06-1.631.093-2.545.01-.3-.108-1.441-.108-1.789,0-.834.073-.932.08-1.4a.156.156,0,0,1,.153-.15c.24-.007.4-.03.586-.05a1.738,1.738,0,0,1,.656.05,6.465,6.465,0,0,1,1.744.727,5,5,0,0,1,1.406,1.268,8.007,8.007,0,0,1,.827,1.44,2.472,2.472,0,0,1,.19.99,6.733,6.733,0,0,1,.12.792c.007.133-.025.436-.025.561C499.087,682.23,499.062,682.331,499.044,682.554Z" transform="translate(-486.825 -608.947)" fill="#008fb7"/>
        <path id="パス_55110" data-name="パス 55110" d="M490.8,676.174a7.28,7.28,0,0,1-2.348-1.586,5.391,5.391,0,0,1-.764-1.1c-.133-.313-.291-.624-.446-.927-.068-.253-.155-.576-.165-.649a6.148,6.148,0,0,1-.045-1.015,12.7,12.7,0,0,1,.306-1.428,6.635,6.635,0,0,1,.241-1.037,3.145,3.145,0,0,1,1.548-1.771c.8-.489.907-.892,2.074-1.082a5.027,5.027,0,0,1,.9-.105c.145.015.366.028.524.03a.094.094,0,0,1,.093.1c-.01.323-.012.589-.03.884-.017.326-.055.5-.073.822-.01.286-.033.862-.02,1.117a10.7,10.7,0,0,1-.01,1.25,3.357,3.357,0,0,0-.013.636c.02.514.02.727.05,1.255s.04,1.03.068,1.561c-.008.175-.015.381-.015.418a9.536,9.536,0,0,1-.03.967c-.04.236.058.378.053.636a3.316,3.316,0,0,1,.015.554c-.023.193.017.331,0,.5a.239.239,0,0,1-.133.228.412.412,0,0,1-.253.02c-.258-.035-.516-.073-.777-.11A4.667,4.667,0,0,1,490.8,676.174Zm8.062-5.321c0,.118.033.411.025.539a6.9,6.9,0,0,1-.115.764,6.085,6.085,0,0,1-.185.957,3.231,3.231,0,0,1-.995,1.466,4.989,4.989,0,0,1-1.135,1,4.765,4.765,0,0,1-1.448.689,2.587,2.587,0,0,1-.769.16c-.183-.02-.421-.043-.651-.048a.149.149,0,0,1-.145-.145c-.013-.646.008-1.15,0-1.791-.01-1.087.048-1.776.005-3.034-.028-.814-.145-2.029-.171-2.848-.027-.952-.012-1.826-.012-2.778,0-.043.01-.113.068-.128s.308,0,.469-.007a3.83,3.83,0,0,1,1.305.213,5.476,5.476,0,0,1,1.446.681,4.376,4.376,0,0,1,1.431,1.5,13.91,13.91,0,0,1,.769,1.9,2.625,2.625,0,0,1,.068.469C498.835,670.617,498.857,670.714,498.857,670.852Z" transform="translate(-486.52 -625.183)" fill="#008fb7"/>
        <path id="パス_55111" data-name="パス 55111" d="M495.782,665.984c-.3-.01-.857-.022-1.152-.045-.1-.01-.16-.464-.318-.724a1.685,1.685,0,0,0-.827-.689,2.826,2.826,0,0,0-.671-.1,3.516,3.516,0,0,0-.672.015.89.89,0,0,0-.581.291,5.164,5.164,0,0,0-.436.571c-.163.228-.145.6-.431.611q-.4.03-.8.023a3.169,3.169,0,0,1-.707-.035c-.048-.01-.165.012-.26,0a.453.453,0,0,0-.153.012c-.065.02-.13.04-.193.065a1.847,1.847,0,0,1-.263.015,1.271,1.271,0,0,1-.391,0,1.065,1.065,0,0,0-.479.005.175.175,0,0,1-.193-.055.464.464,0,0,1-.078-.228,2.543,2.543,0,0,1,.05-.636c.043-.2.093-.416.15-.634a4.961,4.961,0,0,1,.426-1.032q.271-.492.571-.992a4.066,4.066,0,0,1,1.26-1.248,8.06,8.06,0,0,1,1.633-.762c.048-.01.431-.073.489-.078a4.119,4.119,0,0,1,.707-.07,9.844,9.844,0,0,1,.99.053,4.519,4.519,0,0,1,1.18.246,6.261,6.261,0,0,1,1.125.591,6.147,6.147,0,0,1,1.483,1.44,6.58,6.58,0,0,1,.927,1.851.978.978,0,0,0,.093.243.54.54,0,0,1,.063.243,5.373,5.373,0,0,1,.028.569c0,.185.005.363,0,.538,0,.018-.015.018-.023.018q-.2,0-.361.015a1.178,1.178,0,0,1-.328-.015l-.934-.027C496.394,666.016,496.088,666,495.782,665.984Zm-5.915,2.658c-.19,0-.474.017-.654.007s-.366-.013-.556-.013-.336.005-.521,0a5.594,5.594,0,0,0-.646,0c-.125.018-.288.018-.326-.025s.018-.3,0-.421a8.381,8.381,0,0,1,.027-.927,2.283,2.283,0,0,0,.01-.441c-.008-.083-.028-.283.1-.283s.438-.005.556-.01a3,3,0,0,1,.356.043c.331,0,.594-.07.919-.06s.869.057,1.2.068c.163,0,.323-.018.376.025s.01.193.01.346.013.814.007.969-.01.474-.01.671c-.017.133-.248.08-.361.09S489.973,668.642,489.867,668.642Zm8.49-1.9.015.358a3.27,3.27,0,0,1-.01.451c-.023.118.028.353.02.506s.005.549.005.549c0,.08-.065.2-.145.193a5.761,5.761,0,0,0-.691,0,3.563,3.563,0,0,1-.8-.02,3.413,3.413,0,0,0-.661-.035c-.235,0-.408.05-.646.04-.1-.008-.185-.015-.271-.02s-.175-.012-.271-.023a.433.433,0,0,1-.228-.078.227.227,0,0,1-.07-.221c.005-.073-.015-.308-.01-.586s.03-.439.035-.506a3,3,0,0,1-.025-.516c.017-.18-.02-.268.17-.268.276.01.569.058.877.068s.654-.015.932,0,.524.043.824.053c.281.007.626,0,.892.01A.051.051,0,0,1,498.358,666.74Z" transform="translate(-486.334 -633.018)" fill="#008fb7"/>
      </g>
    </g>
  </g>
</svg>
