<svg xmlns="http://www.w3.org/2000/svg" xmlns:xlink="http://www.w3.org/1999/xlink" width="810.999" height="681.499" viewBox="0 0 810.999 681.499">
  <defs>
    <filter id="パス_55102" x="490.166" y="366.868" width="320.833" height="288.764" filterUnits="userSpaceOnUse">
      <feOffset dy="3" input="SourceAlpha"/>
      <feGaussianBlur stdDeviation="3" result="blur"/>
      <feFlood flood-opacity="0.161"/>
      <feComposite operator="in" in2="blur"/>
      <feComposite in="SourceGraphic"/>
    </filter>
    <filter id="パス_55112" x="0" y="0" width="681.499" height="681.499" filterUnits="userSpaceOnUse">
      <feOffset dy="3" input="SourceAlpha"/>
      <feGaussianBlur stdDeviation="3" result="blur-2"/>
      <feFlood flood-opacity="0.161"/>
      <feComposite operator="in" in2="blur-2"/>
      <feComposite in="SourceGraphic"/>
    </filter>
  </defs>
  <g id="グループ_10433" data-name="グループ 10433" transform="translate(8.996 432.877) rotate(-61)">
    <g transform="matrix(0.48, 0.87, -0.87, 0.48, 374.24, -217.73)" filter="url(#パス_55102)">
      <path id="パス_55102-2" data-name="パス 55102" d="M0,0V6.18a7.816,7.816,0,0,0,5.027,7.338c8.435,3.251,29.966,9.435,45.69,13.952C58.3,29.648,65.481,31.707,66.29,32.06c2.768,1.384,6.069,3.646,6.069,6.568V55.835L60.428,71.608a9.1,9.1,0,0,0-3.612,4.164c-2,4.593-2.166,13.024-1.066,17.717,1.043,4.44,2.684,13.783,3.673,22.36,1.829,15.781,1.369,23.706.054,41.683-.537,7.335-1.288,12.119-2.017,16.747A131.491,131.491,0,0,0,55.5,198.11c0,19.891,2.312,31.159,3.121,33.544.755,2.2,2.58,2.964,4.658,3.221.8,1.43,1.909,3.37,2.523,4.217a8.261,8.261,0,0,0,5.387,3.2,39.363,39.363,0,0,0,3.075,4.98,11.965,11.965,0,0,0,19.216,0,38.779,38.779,0,0,0,3.079-4.984,8.263,8.263,0,0,0,5.383-3.194c.6-.828,1.668-2.688,2.461-4.106,2.722-.073,5.383-.548,6.334-3.332.809-2.373,3.125-13.622,3.125-33.544a131.518,131.518,0,0,0-1.959-23.84c-.729-4.628-1.484-9.409-2.017-16.739-1.315-17.977-1.775-25.9.05-41.683.993-8.577,2.634-17.92,3.673-22.36,1.1-4.693.935-13.124-1.062-17.717a9.234,9.234,0,0,0-2.676-3.546l-12.4-16.39V38.628c0-2.921,3.305-5.184,6.039-6.552.843-.368,8.017-2.427,15.608-4.6,15.719-4.517,37.255-10.7,45.69-13.952a7.811,7.811,0,0,0,5.027-7.338V0L83.7,12.108Z" transform="translate(499.17 521.41) rotate(-61)" fill="#f2f2f2"/>
    </g>
    <g transform="matrix(0.48, 0.87, -0.87, 0.48, 374.24, -217.73)" filter="url(#パス_55112)">
      <path id="パス_55112-2" data-name="パス 55112" d="M244.038,0C109.476,0,0,109.476,0,244.034S109.476,488.072,244.038,488.072,488.072,378.6,488.072,244.034,378.6,0,244.038,0Zm0,467.99c-123.486,0-223.948-100.466-223.948-223.956S120.549,20.082,244.034,20.082,467.989,120.549,467.989,244.034,367.523,467.99,244.034,467.99Z" transform="translate(9 432.88) rotate(-61)" fill="#f2f2f2"/>
    </g>
    <g id="グループ_10432" data-name="グループ 10432" transform="translate(235.43 563.641)">
      <g id="グループ_10431" data-name="グループ 10431" transform="translate(0 0)">
        <path id="パス_55106" data-name="パス 55106" d="M.57.043A1.547,1.547,0,0,0,.838.112.407.407,0,0,0,1.08.12.552.552,0,0,1,1.321.112c.107.027.215.046.322.061s.146-.1.226-.134a.286.286,0,0,1,.2.031c.069.042.207.015.261.042A2.72,2.72,0,0,1,2.866,0c.2.015.364,0,.567.031A2.349,2.349,0,0,1,3.886.15,2.743,2.743,0,0,0,4.2.25a1.174,1.174,0,0,0,.23-.012c.219-.073.353-.161.56-.107a2.377,2.377,0,0,0,.594.081C6.225.227,6.865.231,7.5.231S8.778.238,9.422.254c.548.027,1.1.054,1.649.088S12.164.407,12.7.434c.533.012,1.062.019,1.587.019s1.043.008,1.568.019c.307.027.613.042.912.042s.613,0,.936.019a.536.536,0,0,1,.13.019c.046.015.157,0,.188.077a1.233,1.233,0,0,1,.035.284,10.691,10.691,0,0,1,.012,1.369c0,.211,0,.594,0,.809,0,.276,0,.571-.012.844,0,.149,0,.272,0,.452,0,.161-.015.326-.008.483.011.2.015.357.015.525a.764.764,0,0,1-.058.253.374.374,0,0,1-.23.173c-.088,0-.161.035-.268.035-.537-.027-.9-.031-1.453-.058l-1.649-.081c-.172,0-.337.008-.491.019a4.944,4.944,0,0,1-.495.023,2.144,2.144,0,0,0-.441,0,.614.614,0,0,1-.441-.161c-.069-.027-.115-.027-.142,0a.575.575,0,0,1-.583.1,5.3,5.3,0,0,0-.583-.222.53.53,0,0,1-.414.261,2.063,2.063,0,0,1-.51-.019A14.327,14.327,0,0,0,7.471,5.6a6.922,6.922,0,0,1-.752-.042l-.755-.08H4.921c-.215-.012-.429-.019-.644-.019s-.437-.008-.663-.019c-.495-.015-1-.031-1.53-.05S1.041,5.342.516,5.315a.455.455,0,0,1-.5-.5c0-.188,0-.284-.008-.483s.1-.234.161-.38C.2,3.869.125,3.106.175,3S.125,2.635.083,2.57a.957.957,0,0,1-.027-.349c-.008-.05.088-.357.088-.491A4.07,4.07,0,0,0,.129.917C.064.737.129.584.1.369.083.273.163.181.248.12A.523.523,0,0,1,.57.043Zm0,6.188a3.875,3.875,0,0,1,.87.057,9.589,9.589,0,0,0,1.046.1,10.386,10.386,0,0,1,1.423,0,2.782,2.782,0,0,0,.594.019c.207-.012.418-.019.633-.019.123.015.288,0,.406,0s.372-.023.379.058a12.993,12.993,0,0,1,.015,1.438c0,.146.011.809,0,1.15,0,.146-.019.621-.015.763,0,.368-.019,1.162-.042,1.476a.27.27,0,0,1-.272.253c-.238,0-.475,0-.717.007-.314.008-.629.008-.943-.007-.556-.027-1.116-.061-1.679-.1s-1.07.015-1.622-.012A.868.868,0,0,1,.163,11.3a.709.709,0,0,1-.111-.483S.025,9.478.041,9.321.033,8.462.033,8.462s.011-.82-.019-.974a5.456,5.456,0,0,1,0-.717A.538.538,0,0,1,.106,6.4.849.849,0,0,1,.573,6.231Z" transform="translate(0.805 0)" fill="#008fb7"/>
        <path id="パス_55107" data-name="パス 55107" d="M.352.031A.364.364,0,0,1,.617.02,1.121,1.121,0,0,0,.889.089.438.438,0,0,0,1.13.1C1.2.081,2.4.069,2.487.081A2.4,2.4,0,0,0,2.81.142c.107.015.081.015.172-.092A.707.707,0,0,1,3.231.043,21.21,21.21,0,0,0,5.938.1c.2.012.824.023.974.034A9.031,9.031,0,0,1,8.02.112a2.553,2.553,0,0,0,.594.077c.64.015.429.023,1.066.023s2.684.207,3.328.223c.548.027.6-.107,1.15-.077A5.176,5.176,0,0,0,15.7.407c.518-.077.222.1.744.111.307.027.234-.1.533-.1s.456.077.778.088a.446.446,0,0,1,.13.023c.046.012.123.012.138.1.042.207.061.847.069,1.047.008.245,0,.495-.019.759-.015.3-.008.5,0,.736,0,.138,0,.732,0,.912a6.663,6.663,0,0,0,.012.74c.012.146.027.291.054.445a1.39,1.39,0,0,1,0,.219.464.464,0,0,1-.13.161.45.45,0,0,1-.272.081l-1.626-.081-1.649-.08c-.176,0-1.008.008-1.162.019s-.318.019-.495.019a2.757,2.757,0,0,0-.441,0,.51.51,0,0,1-.441-.065q-.1-.04-.138,0a.541.541,0,0,1-.587.008.823.823,0,0,0-.548-.031c-.188-.073-.28.058-.449.069a2.294,2.294,0,0,1-.51-.019,8.363,8.363,0,0,0-2.166-.123,7.141,7.141,0,0,1-.755-.038l-.751-.08H4.968c-.215-.016-.429-.019-.644-.019s-.433-.008-.663-.023c-.495-.012-1-.027-1.526-.05S1.088,5.192.567,5.165c-.333-.015-.5-.1-.5-.418,0-.188,0-.265-.012-.464a.58.58,0,0,1,.192-.449.157.157,0,0,0,.05-.092C.3,3.708.172,3.417.226,3.3s.042-.644.08-.751C.3,2.47.191,2.1.183,1.91a1.734,1.734,0,0,0,.023-.533,4.622,4.622,0,0,1,0-.9,1.437,1.437,0,0,0,.027-.3C.241.135.287.092.352.031ZM5.888,6.292a.537.537,0,0,1,.092.372s0,.276,0,.541c0,.13,0,.472.008.56,0,.119.015.544.023.721.007.238-.016.483-.016.633,0,.234.016.525.012.752,0,.326.027.874.027.874a1,1,0,0,1-.1.56c-.073.065-.376.019-.629.035-.548.027-.652-.042-1.208,0s-1.219-.046-1.775-.019c-.314.015-.943.088-1.258.08-.238,0-.479-.008-.717-.008a.272.272,0,0,1-.272-.253c-.015-.226-.027-.487-.035-.755S.026,9.7.019,9.455V8.646C.019,8.363,0,7.891,0,7.81c0-.126.065-.541.05-.69a3.481,3.481,0,0,1-.038-.8c.008-.08.119-.18.418-.134a1.437,1.437,0,0,0,.36-.031c.215,0,.426.007.636.019A9.081,9.081,0,0,0,2.5,6.166a7.989,7.989,0,0,1,1.6.011c.571,0,.832.027,1.411.027A.54.54,0,0,1,5.888,6.292Z" transform="translate(0.777 85.782)" fill="#008fb7"/>
        <path id="パス_55108" data-name="パス 55108" d="M12.351.74a9.789,9.789,0,0,1,3.938,2.527,4.772,4.772,0,0,1,.851,1.327c.2.475.445.951.682,1.415.1.387.238.882.253,1a9.349,9.349,0,0,1,.069,1.549,18.656,18.656,0,0,1-.468,2.189,5.091,5.091,0,0,1-.322,1.1,7.007,7.007,0,0,1-2.412,3.2A10.02,10.02,0,0,1,11.136,16.9a1.768,1.768,0,0,1-.671.038c-.222-.023-.441-.035-.682-.038a.151.151,0,0,1-.142-.149c.015-.495-.069-.966-.042-1.419.027-.5.058-.993.084-1.484.015-.437.027-.87.042-1.307s.035-.874.061-1.323a5.926,5.926,0,0,1,.1-.79,4.876,4.876,0,0,0-.027-.974c-.027-.786-.027-1.116-.077-1.921s-.057-1.576-.1-2.393c.011-.264.023-.583.023-.636a8.458,8.458,0,0,1,.115-1.085,1.764,1.764,0,0,0-.18-1.1,1.365,1.365,0,0,1-.115-.778c.034-.295.069-.575.1-.843a.363.363,0,0,1,.2-.345.669.669,0,0,1,.391-.034c.391.057.6.115,1,.169A7.666,7.666,0,0,1,12.351.74ZM.04,8.619c0-.184-.05-.633-.038-.828a9.622,9.622,0,0,1,.18-1.169,3.57,3.57,0,0,1,.28-1.461A11.992,11.992,0,0,1,1.681,3.033,7.384,7.384,0,0,1,3.755,1.162,8.733,8.733,0,0,1,6.19.088,2.635,2.635,0,0,1,7.16.015c.276.027.64.061.993.073a.231.231,0,0,1,.226.222C8.4,1.3,8.329,2.3,8.341,3.278c.015,1.664.1,3.052.165,4.977.042,1.246.05,2.772.088,4.026.042,1.453.149,2.634.149,4.091,0,.065-.012.173-.1.2-.111.027-.169-.011-.265.031a.492.492,0,0,1-.338.031,7.639,7.639,0,0,1-2.254-.368,8.424,8.424,0,0,1-2.212-1.039,6.693,6.693,0,0,1-2.185-2.3,20.725,20.725,0,0,1-1.181-2.9,4.515,4.515,0,0,1-.1-.717C.078,8.976.04,8.83.04,8.619Z" transform="translate(0.775 17.645)" fill="#008fb7"/>
        <path id="パス_55109" data-name="パス 55109" d="M7.194.508C7.608.45,7.8.393,8.206.331a.708.708,0,0,1,.4.034.366.366,0,0,1,.207.36c.031.276.061.568.1.871a1.434,1.434,0,0,1-.119.809,5.721,5.721,0,0,0-.019,1.488,12.527,12.527,0,0,1-.023,1.441c-.042.843.035,2.952.008,3.765-.015.276-.081,1.131-.081,1.407,0,.395.13.5.142.774,0,0,.054.92.065,1.373s-.107,1.254-.092,1.7c.027.51.058,1.024.084,1.537.027.472.05.962.061,1.476a.147.147,0,0,1-.146.149c-.249,0-.809-.088-1.039-.065a2.2,2.2,0,0,1-.763-.119,8.886,8.886,0,0,1-3.673-1.745,7.3,7.3,0,0,1-2.5-3.316,5.338,5.338,0,0,1-.333-1.139A20.219,20.219,0,0,1,0,8.866,9.668,9.668,0,0,1,.071,7.26c.015-.115.157-.629.261-1.032.249-.479.5-.974.709-1.468a4.942,4.942,0,0,1,.886-1.372A10.137,10.137,0,0,1,6.006.769,7.7,7.7,0,0,1,7.194.508ZM18.7,9.644a4.753,4.753,0,0,1-.111.744,21.64,21.64,0,0,1-1.223,3.01A6.89,6.89,0,0,1,15.1,15.775a8.784,8.784,0,0,1-2.289,1.081,6.885,6.885,0,0,1-2.139.437.523.523,0,0,1-.349-.031c-.1-.042-.161,0-.276-.035-.092-.023-.1-.134-.1-.2,0-1.51.184-1.533.119-3.048-.054-1.3-.042-2.036,0-3.332.011-.376-.061-1.215-.054-1.545.038-1.422.092-2.5.142-3.9.015-.46-.165-2.2-.165-2.737,0-1.277.111-1.426.123-2.147a.239.239,0,0,1,.234-.23c.368-.011.606-.046.9-.077a2.661,2.661,0,0,1,1,.077,9.9,9.9,0,0,1,2.668,1.112,7.653,7.653,0,0,1,2.151,1.94,12.256,12.256,0,0,1,1.265,2.2,3.784,3.784,0,0,1,.291,1.514A10.317,10.317,0,0,1,18.8,8.076c.011.2-.038.667-.038.859C18.765,9.15,18.727,9.3,18.7,9.644Z" transform="translate(0 102.999)" fill="#008fb7"/>
        <path id="パス_55110" data-name="パス 55110" d="M5.767,16.386a11.14,11.14,0,0,1-3.593-2.427,8.253,8.253,0,0,1-1.169-1.691c-.2-.479-.445-.955-.682-1.418-.1-.387-.238-.882-.253-.993A9.407,9.407,0,0,1,0,8.3,19.429,19.429,0,0,1,.469,6.119,10.154,10.154,0,0,1,.837,4.532,4.813,4.813,0,0,1,3.206,1.821C4.433,1.073,4.594.456,6.381.165A7.693,7.693,0,0,1,7.757,0c.222.023.56.042.8.046A.144.144,0,0,1,8.7.2c-.015.494-.019.9-.046,1.353-.027.5-.084.767-.111,1.258-.015.437-.05,1.319-.031,1.71A16.382,16.382,0,0,1,8.5,6.429a5.137,5.137,0,0,0-.019.974c.031.786.031,1.112.077,1.921s.061,1.576.1,2.389c-.012.268-.023.583-.023.64a14.606,14.606,0,0,1-.046,1.48c-.061.361.088.579.081.974a5.071,5.071,0,0,1,.023.847c-.035.3.027.506,0,.771a.366.366,0,0,1-.2.349A.63.63,0,0,1,8.1,16.8c-.395-.054-.79-.111-1.189-.169A7.139,7.139,0,0,1,5.767,16.386ZM18.105,8.243c0,.18.05.629.038.824a10.549,10.549,0,0,1-.176,1.169,9.307,9.307,0,0,1-.284,1.465,4.945,4.945,0,0,1-1.522,2.243,7.634,7.634,0,0,1-1.737,1.526,7.293,7.293,0,0,1-2.216,1.054,3.959,3.959,0,0,1-1.177.245c-.28-.031-.644-.065-1-.073a.228.228,0,0,1-.222-.222c-.019-.989.012-1.76,0-2.741-.015-1.664.073-2.718.008-4.643C9.778,7.844,9.6,5.985,9.559,4.731,9.517,3.274,9.54,1.936,9.54.479c0-.065.015-.172.1-.2s.472,0,.717-.011a5.861,5.861,0,0,1,2,.326A8.381,8.381,0,0,1,14.57,1.641,6.7,6.7,0,0,1,16.76,3.933,21.294,21.294,0,0,1,17.936,6.84a4.017,4.017,0,0,1,.1.717C18.071,7.882,18.105,8.032,18.105,8.243Z" transform="translate(0.775 61.648)" fill="#008fb7"/>
        <path id="パス_55111" data-name="パス 55111" d="M13.21,8.758c-.464-.015-1.311-.034-1.764-.069-.157-.015-.245-.709-.487-1.108A2.579,2.579,0,0,0,9.694,6.527,4.323,4.323,0,0,0,8.666,6.37a5.377,5.377,0,0,0-1.028.023,1.363,1.363,0,0,0-.889.445,7.9,7.9,0,0,0-.667.874c-.249.349-.222.92-.659.936q-.609.046-1.231.035a4.849,4.849,0,0,1-1.081-.054c-.073-.015-.253.019-.4,0a.694.694,0,0,0-.234.019c-.1.031-.2.061-.3.1a2.829,2.829,0,0,1-.4.023,1.946,1.946,0,0,1-.6,0,1.63,1.63,0,0,0-.732.008.268.268,0,0,1-.3-.084.711.711,0,0,1-.119-.349A3.894,3.894,0,0,1,.113,7.37c.065-.311.142-.636.23-.97a7.592,7.592,0,0,1,.652-1.58q.414-.753.874-1.518A6.223,6.223,0,0,1,3.8,1.393,12.335,12.335,0,0,1,6.3.228c.073-.015.659-.111.748-.119A6.3,6.3,0,0,1,8.126,0,15.062,15.062,0,0,1,9.64.082a6.918,6.918,0,0,1,1.806.376,9.581,9.581,0,0,1,1.721.9,9.407,9.407,0,0,1,2.27,2.2A10.07,10.07,0,0,1,16.856,6.4,1.5,1.5,0,0,0,17,6.772a.826.826,0,0,1,.1.372,8.225,8.225,0,0,1,.042.87c0,.284.008.556,0,.824,0,.027-.023.027-.035.027q-.3,0-.552.023a1.8,1.8,0,0,1-.5-.023l-1.43-.042C14.145,8.808,13.677,8.785,13.21,8.758ZM4.158,12.826c-.291,0-.725.027-1,.011s-.56-.019-.851-.019-.514.008-.8,0a8.566,8.566,0,0,0-.989,0c-.192.027-.441.027-.5-.038s.027-.456,0-.644A12.824,12.824,0,0,1,.059,10.71a3.49,3.49,0,0,0,.015-.675C.063,9.908.032,9.6.22,9.6c.172,0,.671-.008.851-.015a4.6,4.6,0,0,1,.544.065c.506,0,.909-.107,1.407-.092s1.33.088,1.84.1c.249,0,.495-.027.575.038s.015.3.015.529c.015.23.019,1.246.011,1.484s-.015.725-.015,1.027c-.027.2-.38.123-.552.138S4.319,12.826,4.158,12.826Zm12.993-2.91.023.548a5,5,0,0,1-.015.69c-.035.18.042.54.031.774s.008.84.008.84c0,.123-.1.3-.222.3a8.821,8.821,0,0,0-1.058,0,5.456,5.456,0,0,1-1.223-.031,5.221,5.221,0,0,0-1.012-.054c-.36,0-.625.077-.989.062-.146-.012-.284-.023-.414-.031s-.268-.019-.414-.035a.663.663,0,0,1-.349-.119.347.347,0,0,1-.107-.338c.008-.111-.023-.472-.015-.9.008-.4.046-.671.054-.774a4.584,4.584,0,0,1-.038-.79c.027-.276-.031-.41.261-.41.422.015.87.088,1.342.1.487.019,1-.023,1.426,0,.441.023.8.065,1.262.081.429.011.958,0,1.365.015A.079.079,0,0,1,17.151,9.916Z" transform="translate(1.25 41.69)" fill="#008fb7"/>
      </g>
    </g>
  </g>
</svg>
