<svg xmlns="http://www.w3.org/2000/svg" width="749.999" height="160" viewBox="0 0 749.999 160">
  <path id="パス_55059" data-name="パス 55059" d="M778.674,302.514a12.123,12.123,0,0,0-12.951-.814l-61.129,36.737a7.4,7.4,0,0,1-6.8-.1l-45.413-29.084a13.642,13.642,0,0,0-13.056-.333l-46.991,26.816a3.984,3.984,0,0,1-4.839-.964L489.021,207.822a7.269,7.269,0,0,0-11.837,0L378.713,334.774a3.826,3.826,0,0,1-4.732.891l-44.539-26.612a13.16,13.16,0,0,0-13.04.308L272.85,338.285a6.917,6.917,0,0,1-6.6.084l-65.943-41.414a11.542,11.542,0,0,0-12.9.889l-79.636,66.844,750,.086Z" transform="translate(-107.778 -204.774)" fill="#e3e9e6"/>
</svg>
