<svg xmlns="http://www.w3.org/2000/svg" xmlns:xlink="http://www.w3.org/1999/xlink" width="174.353" height="174.353" viewBox="0 0 174.353 174.353">
  <defs>
    <clipPath id="clip-path">
      <rect id="長方形_5806" data-name="長方形 5806" width="174.353" height="174.353" fill="none"/>
    </clipPath>
    <clipPath id="clip-path-3">
      <rect id="長方形_5804" data-name="長方形 5804" width="50.563" height="69.492" fill="none"/>
    </clipPath>
  </defs>
  <g id="グループ_8626" data-name="グループ 8626" style="mix-blend-mode: multiply;isolation: isolate">
    <g id="グループ_8621" data-name="グループ 8621" clip-path="url(#clip-path)" style="mix-blend-mode: multiply;isolation: isolate">
      <g id="グループ_8620" data-name="グループ 8620">
        <g id="グループ_8619" data-name="グループ 8619" clip-path="url(#clip-path)">
          <path id="楕円形_581" data-name="楕円形 581" d="M86.177-1a86.776,86.776,0,0,1,48.742,14.889A87.427,87.427,0,0,1,166.5,52.243a87.064,87.064,0,0,1-8.038,82.676A87.427,87.427,0,0,1,120.11,166.5a87.064,87.064,0,0,1-82.676-8.038A87.427,87.427,0,0,1,5.851,120.11a87.064,87.064,0,0,1,8.038-82.676A87.427,87.427,0,0,1,52.243,5.851,86.632,86.632,0,0,1,86.177-1Zm0,171.526a83.948,83.948,0,0,0,47.159-14.4A84.6,84.6,0,0,0,163.9,119.009a84.236,84.236,0,0,0-7.777-79.991A84.6,84.6,0,0,0,119.009,8.456a84.236,84.236,0,0,0-79.991,7.777A84.6,84.6,0,0,0,8.456,53.345a84.236,84.236,0,0,0,7.777,79.991A84.6,84.6,0,0,0,53.345,163.9,83.82,83.82,0,0,0,86.177,170.526Z" transform="translate(1 1)" fill="#a22c2c"/>
          <path id="パス_54967" data-name="パス 54967" d="M75.781,109.486A55.614,55.614,0,0,1,27.528,81.565l1.838-1.058A53.816,53.816,0,0,0,48.6,99.956a52.259,52.259,0,0,0,55.555-1.2,59.438,59.438,0,0,0,10.66-8.645,49.413,49.413,0,0,0,7.385-9.608l1.838,1.058a50.837,50.837,0,0,1-7.7,10.031,61.561,61.561,0,0,1-11.041,8.954A55.137,55.137,0,0,1,75.781,109.486Z" transform="translate(11.396 33.327)" fill="#a22c2c"/>
          <path id="パス_54968" data-name="パス 54968" d="M27.748,55.813l-1.931-.878A55.648,55.648,0,0,1,76.489,22.306c13.607,0,23.687,2.507,31.723,7.889A43.422,43.422,0,0,1,118.8,40.4a76.972,76.972,0,0,1,8.358,14.531l-1.931.878a74.9,74.9,0,0,0-8.123-14.133,41.339,41.339,0,0,0-10.076-9.722c-7.67-5.138-17.376-7.531-30.543-7.531A53.527,53.527,0,0,0,27.748,55.813Z" transform="translate(10.688 9.234)" fill="#a22c2c"/>
          <path id="パス_54969" data-name="パス 54969" d="M29.822,36.528l-4.71,7.682-.677-.416.745-1.519-8.536-5.233-1.051,1.407-.677-.416L17.758,33.4l.677.416-1.11,2.115,8.508,5.218,2.626-4.283L26.945,35.23l.5-.813Z" transform="translate(6.175 13.827)" fill="#a22c2c"/>
          <path id="パス_54970" data-name="パス 54970" d="M31.689,25.984c2.832,2.648,2.964,5.9.653,8.375-2.442,2.613-5.479,2.558-8.242-.027-2.832-2.648-2.965-5.9-.653-8.375,2.442-2.612,5.481-2.556,8.242.027m-.9,1.007c-2.483-2.323-4.742-2.281-6.7-.189-1.759,1.881-1.394,4.375.9,6.524,2.484,2.322,4.742,2.279,6.7.191,1.759-1.881,1.393-4.375-.9-6.525" transform="translate(9.038 9.945)" fill="#a22c2c"/>
          <path id="パス_54971" data-name="パス 54971" d="M35.772,17.885a7.73,7.73,0,0,0-2.351,1.133c-2.349,1.635-2.7,4.2-.9,6.771,1.852,2.664,4.177,3.08,6.852,1.217a11.468,11.468,0,0,0,2.627-2.545l.609.875a10.689,10.689,0,0,1-2.866,2.73c-3.159,2.2-6.166,1.636-8.327-1.471a5.814,5.814,0,0,1,1.562-8.528,11.146,11.146,0,0,1,3.273-1.561L38.01,19.04l-.783.546Z" transform="translate(12.499 6.834)" fill="#a22c2c"/>
          <path id="パス_54972" data-name="パス 54972" d="M49.837,16.235c1.49,3.58.269,6.6-2.856,7.9-3.3,1.373-6.046.071-7.5-3.42-1.489-3.58-.269-6.6,2.858-7.9,3.3-1.374,6.046-.072,7.5,3.419m-1.234.549c-1.307-3.139-3.382-4.031-6.024-2.933-2.375.988-3.071,3.413-1.862,6.318C42.023,23.31,44.1,24.2,46.739,23.1c2.377-.988,3.073-3.412,1.864-6.318" transform="translate(16.082 5.083)" fill="#a22c2c"/>
          <path id="パス_54973" data-name="パス 54973" d="M59.661,20.565,50.8,22.277l-.151-.781,1.626-.477-1.9-9.841-1.749.177-.151-.781,5.343-1.034.151.781-2.313.609,1.9,9.81,4.938-.954.185-2.224.937-.181Z" transform="translate(20.067 3.95)" fill="#a22c2c"/>
          <path id="パス_54974" data-name="パス 54974" d="M69.451,14.742c-.064,3.88-2.391,6.165-5.779,6.108C60.1,20.792,58.1,18.5,58.159,14.718c.062-3.881,2.39-6.165,5.777-6.11,3.577.058,5.575,2.349,5.514,6.134m-1.353.01c.057-3.4-1.492-5.051-4.354-5.1-2.576-.041-4.183,1.9-4.233,5.052-.055,3.4,1.492,5.052,4.355,5.1,2.575.042,4.181-1.9,4.232-5.052" transform="translate(24.075 3.563)" fill="#a22c2c"/>
          <path id="パス_54975" data-name="パス 54975" d="M83.621,14.071l-7.044,9.267L75,22.835l-.24-11.592L73.6,10.706l.242-.758,4.467,1.427-.242.756-2-.472.076,10.487,6.285-8.457L80.5,12.91l.242-.758,4.272,1.363-.242.758Z" transform="translate(30.467 4.118)" fill="#a22c2c"/>
          <path id="パス_54976" data-name="パス 54976" d="M83.618,25.74l-3.536-1.749.318-.642,1.282.457,2.752-5.561L83.293,17.5l.318-.642,2.323,1.15-3.14,6.346,1.142.742ZM86,14.687a.716.716,0,0,1,1.093-.382.728.728,0,0,1,.4,1.123.775.775,0,0,1-1.145.375A.767.767,0,0,1,86,14.687" transform="translate(33.151 5.872)" fill="#a22c2c"/>
          <path id="パス_54977" data-name="パス 54977" d="M86.6,25.926c-.4.648-.339.97.322,1.381a3.62,3.62,0,0,0,.5.253l-.437.7a3.72,3.72,0,0,1-.932-.428c-1.079-.672-1.227-1.4-.682-2.276l5.2-8.375-1.217-.755.4-.648,2.412,1.181Z" transform="translate(35.214 6.532)" fill="#a22c2c"/>
          <path id="パス_54978" data-name="パス 54978" d="M90.187,28.341c-.462.607-.431.932.189,1.4a3.429,3.429,0,0,0,.471.3l-.5.657a3.846,3.846,0,0,1-.887-.516c-1.01-.772-1.087-1.51-.461-2.332l5.981-7.839-1.138-.868.462-.607,2.288,1.405Z" transform="translate(36.677 7.675)" fill="#a22c2c"/>
          <path id="パス_54979" data-name="パス 54979" d="M96.642,32.478c-.7.714-.519,1.073-.044,1.541a3.252,3.252,0,0,0,.294.245l-.523.533a3.552,3.552,0,0,1-.8-.59c-.622-.614-.773-1.208-.419-1.773a3.367,3.367,0,0,1-2.7-1.082c-1.155-1.137-1.254-2.284-.339-3.213,1.261-1.28,2.759-.785,5.475,1.622l.481-.486a1.639,1.639,0,0,0-.066-2.675,3.323,3.323,0,0,0-1.094-.723l-1.141.953-.69-.68L96.392,24.8a5.282,5.282,0,0,1,2.472,1.3c1.281,1.26,1.482,2.619.245,3.876Zm.3-2.07c-2.2-2.074-3.152-2.122-3.811-1.455-.682.691-.428,1.387.206,2.011a2.649,2.649,0,0,0,2.231.837Z" transform="translate(37.873 10.268)" fill="#a22c2c"/>
          <path id="パス_54980" data-name="パス 54980" d="M99.911,37.5c.994,1.321.867,2.552-.126,3.3-1.435,1.08-3.194.434-4.734-1.612-1.454-1.931-1.681-3.372-.587-4.194a2.472,2.472,0,0,1,2.477-.173,1.486,1.486,0,0,1,.614-1.377,2.269,2.269,0,0,1,2.124-.245,2.594,2.594,0,0,1,1.124-2,2.749,2.749,0,0,1,4.246.646,4.173,4.173,0,0,1,.628,1.179,2.754,2.754,0,0,1,2.455,1.359l-.877.659c-.632-.838-1.01-1.21-1.459-1.331a2.544,2.544,0,0,1-1.12,2.216,2.73,2.73,0,0,1-4.236-.635,3.9,3.9,0,0,1-.683-1.356,1.346,1.346,0,0,0-1.2.17c-.546.411-.485.942.031,1.629Zm-2.433-1.413a3.058,3.058,0,0,1-.358-.607,1.8,1.8,0,0,0-1.586.218c-.751.564-.689,1.572.362,2.971.889,1.182,2.013,1.988,2.967,1.271.6-.45.631-1.171-.095-2.136Zm4.221-3.99c-1.106.831-1.249,1.755-.53,2.708.677.9,1.56,1.015,2.614.222,1.118-.841,1.244-1.732.518-2.7a1.647,1.647,0,0,0-2.6-.232" transform="translate(38.821 12.612)" fill="#a22c2c"/>
          <path id="パス_54981" data-name="パス 54981" d="M102.619,44.709A7.274,7.274,0,0,1,101,42.585c-1.257-2.322-.7-4.126,1.485-5.307,2.4-1.3,4.544-.925,5.664,1.145a3.022,3.022,0,0,1-1.195,4.335l-1.049.568-2.7-4.977c-1.734.939-2.144,2.284-1.183,4.058a6.658,6.658,0,0,0,1.434,1.847Zm3.614-3.043a1.975,1.975,0,0,0,1.024-2.886c-.638-1.175-1.671-1.446-3.215-.827l2.052,3.789Z" transform="translate(41.537 15.119)" fill="#a22c2c"/>
          <g id="グループ_8618" data-name="グループ 8618" transform="translate(61.896 52.43)" style="mix-blend-mode: multiply;isolation: isolate">
            <g id="グループ_8617" data-name="グループ 8617">
              <g id="グループ_8616" data-name="グループ 8616" clip-path="url(#clip-path-3)">
                <path id="パス_54982" data-name="パス 54982" d="M77.309,90.768q2.028-1.924,3.962-3.944c.413-.431.209-1.189-.45-1.661-8.511-6.108-16.949-9.96-26.513-14.275a1.668,1.668,0,0,0-1.806.078q-1.063,1.243-2.172,2.449c-.317.344-.042.888.621,1.244,9.008,4.83,16.781,9.23,24.48,15.907a1.476,1.476,0,0,0,1.878.2" transform="translate(-41.115 -23.175)" fill="#fff"/>
                <path id="パス_54983" data-name="パス 54983" d="M76.749,91.708h0a2.351,2.351,0,0,1-1.509-.586c-7.729-6.7-15.615-11.139-24.383-15.841a1.818,1.818,0,0,1-1.017-1.2,1.007,1.007,0,0,1,.257-.867c.737-.8,1.463-1.621,2.159-2.434A1.587,1.587,0,0,1,53.5,70.3a2.9,2.9,0,0,1,1.187.264c9.2,4.15,17.884,8.07,26.6,14.327a2.007,2.007,0,0,1,.878,1.407,1.319,1.319,0,0,1-.355,1.052c-1.279,1.336-2.618,2.669-3.98,3.962A1.555,1.555,0,0,1,76.749,91.708ZM50.888,73.915a.962.962,0,0,0,.469.431c8.825,4.732,16.765,9.2,24.576,15.974a1.3,1.3,0,0,0,.815.327.51.51,0,0,0,.351-.109c1.349-1.28,2.676-2.6,3.944-3.925a.256.256,0,0,0,.065-.221.975.975,0,0,0-.44-.643c-8.633-6.2-17.274-10.1-26.422-14.223a1.858,1.858,0,0,0-.749-.17.666.666,0,0,0-.434.108C52.361,72.284,51.63,73.108,50.888,73.915Z" transform="translate(-41.27 -23.33)" fill="#a22c2c"/>
                <path id="パス_54984" data-name="パス 54984" d="M46.365,81.308q-.428-2.3-.723-4.639c-.064-.5.567-.98,1.384-1.055a184.151,184.151,0,0,1,31.4-.226c.758.059,1.37.427,1.393.822q.078,1.387.219,2.759c.04.392-.516.686-1.264.672a165.218,165.218,0,0,0-30.788,2.31c-.793.136-1.531-.151-1.623-.642" transform="translate(-43.003 -21.455)" fill="#fff"/>
                <path id="パス_54985" data-name="パス 54985" d="M47.751,82.669A1.621,1.621,0,0,1,46,81.561c-.285-1.53-.529-3.1-.727-4.67A1.167,1.167,0,0,1,45.544,76a2.32,2.32,0,0,1,1.59-.76c5.647-.525,11.394-.791,17.08-.791,4.8,0,9.648.19,14.411.564,1.051.082,1.841.637,1.881,1.32.051.9.124,1.822.217,2.735a.942.942,0,0,1-.25.732,2.033,2.033,0,0,1-1.551.524c-1.012-.019-2.04-.028-3.053-.028a164.764,164.764,0,0,0-27.635,2.331A2.862,2.862,0,0,1,47.751,82.669Zm16.462-7.158c-5.653,0-11.367.265-16.983.786a1.3,1.3,0,0,0-.86.368.172.172,0,0,0-.047.092c.2,1.55.437,3.1.718,4.61.013.072.271.242.71.242a1.8,1.8,0,0,0,.3-.026,165.831,165.831,0,0,1,27.814-2.346c1.02,0,2.054.01,3.073.028a1.273,1.273,0,0,0,.72-.152c-.091-.9-.163-1.807-.213-2.7a1.346,1.346,0,0,0-.906-.346C73.806,75.7,68.985,75.511,64.214,75.511Z" transform="translate(-43.158 -21.61)" fill="#a22c2c"/>
                <path id="パス_54986" data-name="パス 54986" d="M87.07,80.395q.428-2.3.723-4.639c.064-.5-.567-.98-1.384-1.055a184.15,184.15,0,0,0-31.4-.226c-.758.059-1.37.427-1.393.822q-.078,1.387-.219,2.759c-.04.392.516.686,1.264.672a165.215,165.215,0,0,1,30.788,2.31c.793.136,1.531-.151,1.623-.642" transform="translate(-39.793 -21.833)" fill="#fff"/>
                <path id="パス_54987" data-name="パス 54987" d="M85.994,81.756a2.864,2.864,0,0,1-.481-.041,164.765,164.765,0,0,0-27.635-2.331c-1.013,0-2.041.009-3.053.028h-.061a2,2,0,0,1-1.49-.524.942.942,0,0,1-.25-.731c.093-.914.166-1.834.217-2.735.039-.683.83-1.238,1.881-1.32,4.763-.374,9.612-.564,14.411-.564,5.686,0,11.433.266,17.081.791a2.319,2.319,0,0,1,1.589.76,1.168,1.168,0,0,1,.272.89c-.2,1.568-.443,3.139-.727,4.669A1.621,1.621,0,0,1,85.994,81.756ZM57.877,78.323a165.831,165.831,0,0,1,27.814,2.346,1.8,1.8,0,0,0,.3.026c.438,0,.7-.17.71-.243.281-1.509.522-3.059.718-4.608a.168.168,0,0,0-.047-.093,1.3,1.3,0,0,0-.859-.368c-5.616-.522-11.33-.786-16.983-.786-4.772,0-9.592.189-14.328.561a1.346,1.346,0,0,0-.906.346c-.051.888-.122,1.795-.213,2.7a1.236,1.236,0,0,0,.678.153H54.8C55.823,78.333,56.857,78.323,57.877,78.323Z" transform="translate(-39.948 -21.988)" fill="#a22c2c"/>
                <path id="パス_54988" data-name="パス 54988" d="M46.1,86.808q-1.02-2.312-1.91-4.689c-.189-.506.352-1.171,1.191-1.452A198.432,198.432,0,0,1,78.25,72.609c.809-.126,1.543.106,1.664.516q.426,1.434.915,2.839c.139.4-.37.848-1.158,1.021A177.84,177.84,0,0,0,47.96,87.078c-.8.339-1.644.223-1.862-.27" transform="translate(-43.619 -22.387)" fill="#fff"/>
                <path id="パス_54989" data-name="パス 54989" d="M47.209,87.958a1.484,1.484,0,0,1-1.442-.78c-.688-1.56-1.335-3.147-1.922-4.717a1.222,1.222,0,0,1,.064-.971,2.46,2.46,0,0,1,1.454-1.17A199.183,199.183,0,0,1,78.323,72.24a3.381,3.381,0,0,1,.518-.041c.9,0,1.566.356,1.736.93.28.94.585,1.888.907,2.816a.978.978,0,0,1-.083.807,2.163,2.163,0,0,1-1.462.906A177.408,177.408,0,0,0,48.323,87.721,2.88,2.88,0,0,1,47.209,87.958Zm31.632-14.7a2.319,2.319,0,0,0-.355.028A198.126,198.126,0,0,0,45.7,81.325a1.448,1.448,0,0,0-.835.621.215.215,0,0,0-.029.143c.58,1.551,1.219,3.119,1.9,4.661.027.061.191.148.471.148a1.812,1.812,0,0,0,.7-.152A178.471,178.471,0,0,1,79.713,76.622a1.321,1.321,0,0,0,.755-.373c-.32-.924-.624-1.868-.9-2.8A1.109,1.109,0,0,0,78.841,73.26Z" transform="translate(-43.775 -22.542)" fill="#a22c2c"/>
                <path id="パス_54990" data-name="パス 54990" d="M64.978,37.551a.219.219,0,0,1,.4.133c-.09,2.7.219,3.208,1.548,4.371,1.441,1.258,3.282,1.953,4.858,3.037,4.1,2.822,10.446,10.807,8.878,15.532-.7,2.112-2.935,6.465.129,7.618,2.535.954,4.229-.288,4.526-2.807a.22.22,0,0,1,.4-.1,21.267,21.267,0,0,1,3.056,13.936c-.648,5.333-3.442,8.528-6.82,11.03-3.775,2.794-8.931,3.842-17.125,2.032a28.637,28.637,0,0,1-14.657-7.546c-2.009-1.94-3.747-7.319-4.581-11.3A.219.219,0,0,1,46,73.347c1.15,2.34,2.079,3.679,3.477,3.883a.22.22,0,0,0,.189-.366c-1.8-1.861-1.575-7.893-.485-10.049,1.181-2.339,3.652-3.893,5.435-5.813a9.4,9.4,0,0,0,2.769-5.469.219.219,0,0,1,.431-.045,6.41,6.41,0,0,1-.049,3.118.22.22,0,0,0,.361.218,17.6,17.6,0,0,0,5.406-16.2,7.87,7.87,0,0,1,1.442-5.07" transform="translate(-43.025 -36.925)" fill="#fff"/>
                <path id="パス_54991" data-name="パス 54991" d="M65.308,37.08a.762.762,0,0,1,.547.233.74.74,0,0,1,.207.547c-.086,2.578.189,2.92,1.367,3.951a15.275,15.275,0,0,0,2.759,1.78c.683.376,1.389.764,2.051,1.219a27.559,27.559,0,0,1,6.71,7.2c2.916,4.5,2.9,7.345,2.371,8.935-.1.315-.241.675-.385,1.057-.6,1.574-1.41,3.729-.84,4.99a1.728,1.728,0,0,0,1.037.908,4.045,4.045,0,0,0,1.41.287c.78,0,2.13-.346,2.4-2.66a.75.75,0,0,1,1.365-.337A19.108,19.108,0,0,1,89,71.572a22.975,22.975,0,0,1,.451,7.919c-.731,6.023-4.141,9.252-7.03,11.392a16.344,16.344,0,0,1-10.089,3.035,34.6,34.6,0,0,1-7.465-.911c-6.322-1.4-10.781-3.7-14.911-7.683A14.317,14.317,0,0,1,47.1,80.246a44.945,44.945,0,0,1-1.873-6.5.743.743,0,0,1,.148-.623.766.766,0,0,1,.589-.278.744.744,0,0,1,.671.423,8.747,8.747,0,0,0,2.188,3.223,10.821,10.821,0,0,1-.855-4.379,12.919,12.919,0,0,1,.9-5.383,14.721,14.721,0,0,1,3.6-4.113C53.153,62,53.8,61.423,54.386,60.8a8.831,8.831,0,0,0,2.628-5.141.748.748,0,0,1,.754-.709.732.732,0,0,1,.723.576,6.964,6.964,0,0,1,.135,2.4A17.108,17.108,0,0,0,63.171,42.88a8.317,8.317,0,0,1,1.52-5.466A.738.738,0,0,1,65.308,37.08ZM82.542,69.249a5.093,5.093,0,0,1-1.784-.355,2.773,2.773,0,0,1-1.63-1.464c-.751-1.662.154-4.055.815-5.8.14-.371.273-.722.37-1.015.643-1.936-.158-4.786-2.255-8.025a26.42,26.42,0,0,0-6.421-6.9c-.618-.425-1.3-.8-1.961-1.164a16.3,16.3,0,0,1-2.946-1.911,4.06,4.06,0,0,1-1.737-3.587,6.583,6.583,0,0,0-.783,3.652,18.093,18.093,0,0,1-5.572,16.7.749.749,0,0,1-.5.193.761.761,0,0,1-.6-.3.739.739,0,0,1-.126-.647,5.728,5.728,0,0,0,.145-.714,12.156,12.156,0,0,1-2.4,3.61c-.616.663-1.315,1.287-1.992,1.891a13.949,13.949,0,0,0-3.359,3.8,12.041,12.041,0,0,0-.785,4.888c.034,2.125.474,3.827,1.178,4.553a.75.75,0,0,1-.539,1.267.755.755,0,0,1-.105-.007,4.072,4.072,0,0,1-2.774-2.162c.949,3.627,2.386,7.343,3.908,8.813,3.979,3.841,8.286,6.057,14.4,7.41a34.035,34.035,0,0,0,7.236.886,15.324,15.324,0,0,0,9.458-2.827c5.175-3.834,6.25-7.715,6.609-10.668a21.9,21.9,0,0,0-.431-7.549,18.709,18.709,0,0,0-2.116-5.37A3.335,3.335,0,0,1,82.542,69.249Z" transform="translate(-43.18 -37.08)" fill="#a22c2c"/>
                <path id="パス_54992" data-name="パス 54992" d="M63.556,51.126a.124.124,0,0,1,.228.083c-.052,1.7.124,2.013.881,2.743a28.1,28.1,0,0,0,2.764,1.9c2.334,1.772,5.946,6.783,5.054,9.749-.4,1.325-1.671,4.057.074,4.781,1.442.6,2.407-.181,2.575-1.762a.123.123,0,0,1,.228-.064A14.465,14.465,0,0,1,77.1,77.308a9.811,9.811,0,0,1-3.883,6.921c-2.148,1.753-5.082,2.411-9.745,1.274a15.817,15.817,0,0,1-8.342-4.735c-1.144-1.217-2.132-4.593-2.607-7.092a.125.125,0,0,1,.235-.086c.655,1.469,1.183,2.309,1.98,2.436a.138.138,0,0,0,.107-.23c-1.025-1.167-.9-4.953-.276-6.306.672-1.466,2.079-2.442,3.094-3.647,3.675-4.171,5.734-7.866,5.073-11.535a5.331,5.331,0,0,1,.822-3.181" transform="translate(-40.154 -31.291)" fill="#fff"/>
                <path id="パス_54993" data-name="パス 54993" d="M63.812,50.69a.658.658,0,0,1,.47.2.668.668,0,0,1,.188.49c-.049,1.6.113,1.761.719,2.345a8.447,8.447,0,0,0,1.529,1.085,13.548,13.548,0,0,1,1.188.779c2.306,1.75,6.246,6.981,5.241,10.324-.06.2-.138.427-.221.668-.55,1.6-.965,3.074-.01,3.47a1.87,1.87,0,0,0,.705.161c.853,0,1.08-.933,1.139-1.489a.662.662,0,0,1,.653-.6.647.647,0,0,1,.554.314,14.938,14.938,0,0,1,1.816,9.082A10.323,10.323,0,0,1,73.707,84.8a8.94,8.94,0,0,1-5.9,1.958,18.19,18.19,0,0,1-4.311-.58,16.227,16.227,0,0,1-8.6-4.888c-1.243-1.323-2.254-4.79-2.742-7.356a.672.672,0,0,1,.14-.556.654.654,0,0,1,.5-.238.647.647,0,0,1,.6.392c.167.374.32.692.464.958a10.377,10.377,0,0,1,.381-5.064,9.188,9.188,0,0,1,2.091-2.639c.388-.382.754-.742,1.08-1.128l.008-.009c3.989-4.527,5.515-7.948,4.949-11.091a5.818,5.818,0,0,1,.889-3.548A.645.645,0,0,1,63.812,50.69ZM73.62,71.273a2.914,2.914,0,0,1-1.111-.242A2.058,2.058,0,0,1,71.3,68.739a10.328,10.328,0,0,1,.627-2.5c.079-.231.154-.448.208-.629.352-1.17-.1-2.911-1.266-4.9a15.837,15.837,0,0,0-3.6-4.273,12.559,12.559,0,0,0-1.1-.716,9.379,9.379,0,0,1-1.716-1.229,2.845,2.845,0,0,1-.93-1.387,3.181,3.181,0,0,0-.11,1.267c.628,3.49-.974,7.184-5.194,11.975-.356.422-.756.815-1.143,1.2a8.273,8.273,0,0,0-1.87,2.325,8.085,8.085,0,0,0-.431,2.995A4.883,4.883,0,0,0,55.4,75.6a.676.676,0,0,1,.1.724.655.655,0,0,1-.592.388.647.647,0,0,1-.1-.008,1.945,1.945,0,0,1-1.041-.537,12.241,12.241,0,0,0,1.9,4.393,15.238,15.238,0,0,0,8.081,4.583,17.4,17.4,0,0,0,4.06.55,7.922,7.922,0,0,0,5.225-1.719,9.336,9.336,0,0,0,3.691-6.569A14.622,14.622,0,0,0,75.552,69.9,2.052,2.052,0,0,1,73.62,71.273Z" transform="translate(-40.31 -31.446)" fill="#a22c2c"/>
                <path id="パス_54994" data-name="パス 54994" d="M89.07,85.212q.844-2.426,1.545-4.909c.148-.529-.486-1.171-1.4-1.4a219.306,219.306,0,0,0-35.393-6.025c-.865-.075-1.613.212-1.7.638q-.305,1.491-.68,2.957c-.107.419.474.84,1.319.964a197.172,197.172,0,0,1,34.374,8.177c.874.294,1.752.119,1.933-.4" transform="translate(-40.604 -22.267)" fill="#fff"/>
                <path id="パス_54995" data-name="パス 54995" d="M88.129,86.439h0a3.2,3.2,0,0,1-1.005-.17,196.759,196.759,0,0,0-34.28-8.155,2.305,2.305,0,0,1-1.611-.832.975.975,0,0,1-.146-.789c.25-.982.477-1.969.674-2.931.132-.642.915-1.073,1.947-1.073.105,0,.213,0,.319.014a220.087,220.087,0,0,1,35.479,6.04,2.622,2.622,0,0,1,1.632,1.106,1.219,1.219,0,0,1,.144.953c-.463,1.642-.986,3.3-1.555,4.94A1.576,1.576,0,0,1,88.129,86.439Zm-36-9.729a1.48,1.48,0,0,0,.871.355,197.816,197.816,0,0,1,34.465,8.2,2.124,2.124,0,0,0,.667.115h0c.375,0,.574-.121.6-.186.562-1.615,1.079-3.257,1.536-4.878a.216.216,0,0,0-.041-.136,1.619,1.619,0,0,0-.976-.609,219.028,219.028,0,0,0-35.308-6.01c-.076-.007-.153-.01-.227-.01a1.357,1.357,0,0,0-.912.243C52.6,74.75,52.374,75.731,52.125,76.71Z" transform="translate(-40.76 -22.423)" fill="#a22c2c"/>
                <path id="パス_54996" data-name="パス 54996" d="M56.69,92.3q-2.329-1.245-4.611-2.585a.97.97,0,0,1-.178-1.462,106.247,106.247,0,0,1,17.468-17.86,1.429,1.429,0,0,1,1.53-.256q1.3.851,2.623,1.656c.378.23.331.732-.1,1.147A91.617,91.617,0,0,0,58.186,91.8a1.17,1.17,0,0,1-1.5.5" transform="translate(-40.513 -23.449)" fill="#fff"/>
                <path id="パス_54997" data-name="パス 54997" d="M57.3,93.1a1.491,1.491,0,0,1-.7-.173c-1.576-.842-3.134-1.716-4.629-2.6a1.37,1.37,0,0,1-.66-.933,1.641,1.641,0,0,1,.329-1.309A106.881,106.881,0,0,1,69.19,70.137a2.227,2.227,0,0,1,1.37-.5,1.429,1.429,0,0,1,.782.214c.855.559,1.733,1.113,2.61,1.647a1.032,1.032,0,0,1,.5.783,1.483,1.483,0,0,1-.514,1.2,91.134,91.134,0,0,0-15.147,18.75A1.772,1.772,0,0,1,57.3,93.1Zm13.264-22.4a1.183,1.183,0,0,0-.7.266,105.819,105.819,0,0,0-17.381,17.77.584.584,0,0,0-.13.459.317.317,0,0,0,.155.223c1.485.873,3.03,1.739,4.594,2.575a.422.422,0,0,0,.2.048.727.727,0,0,0,.59-.356A92.192,92.192,0,0,1,73.209,72.711.548.548,0,0,0,73.4,72.4h0c-.886-.54-1.774-1.1-2.637-1.665A.383.383,0,0,0,70.561,70.695Z" transform="translate(-40.668 -23.604)" fill="#a22c2c"/>
              </g>
            </g>
          </g>
          <path id="パス_54998" data-name="パス 54998" d="M28.308,105.983l-2.971-3.227.584-.539,1.281,1.155,1.76-3.132-2.9-3.147-3.268,1.5,1.11,1.439-.584.539-3.09-3.355.584-.539,1.109.969,10.609-4.669,1.141,1.239L28.148,104.4l.745,1.042ZM32.3,94.27l-5.285,2.4,2.443,2.654Z" transform="translate(8.376 38.489)" fill="#a22c2c"/>
          <path id="パス_54999" data-name="パス 54999" d="M46.01,106.5l-8.539,7.5-1.39-.926,3.31-10.039-8.013,6.914-1.391-.923L33.7,98.326l-.932-.81.44-.662,3.71,2.465-.441.663-1.637-.9L31.429,108.5l8.15-7.036,1.285.854L37.54,112.583l7.476-6.739-1.5-1.189.44-.662,3.617,2.4-.44.663Z" transform="translate(12.414 40.094)" fill="#a22c2c"/>
          <path id="パス_55000" data-name="パス 55000" d="M51.23,118.308,47.1,116.824l.269-.748,1.671.431.106-3.6-4.027-1.447-2.2,2.843,1.653.762-.269.749L40,114.279l.269-.749,1.432.344,7.24-9.064,1.588.571-.174,11.6,1.145.58Zm-1.895-12.241-3.57,4.584,3.4,1.219Z" transform="translate(16.559 43.388)" fill="#a22c2c"/>
          <path id="パス_55001" data-name="パス 55001" d="M57.626,108.169,55.86,108l-1.745,9.37c-.527,2.831-2.033,3.877-4.364,3.443a3.441,3.441,0,0,1-.8-.23l.174-.937a4.466,4.466,0,0,0,.618.163c1.8.337,2.694-.387,3.136-2.766l1.728-9.276-2.114-.556.146-.782,5.131.954Z" transform="translate(20.265 44.059)" fill="#a22c2c"/>
          <path id="パス_55002" data-name="パス 55002" d="M59.453,118.486l1.735.277-.055.793-4.789-.327.054-.792,1.755-.04.682-9.991L57.1,108.13l.054-.793,4.791.327-.055.792-1.756.041Z" transform="translate(23.324 44.434)" fill="#a22c2c"/>
          <path id="パス_55003" data-name="パス 55003" d="M67.589,108.567a5.042,5.042,0,0,0-1.878-.206,1.918,1.918,0,0,0-2.053,2.131c.085,1.253.816,1.681,2.491,2.221,2.3.735,3.611,1.314,3.748,3.328.143,2.108-1.521,3.386-3.71,3.533a8.037,8.037,0,0,1-3.488-.462l-.2-2.934.952-.065.339,2.176a6.9,6.9,0,0,0,2.3.257c1.84-.124,2.575-1.035,2.491-2.24-.09-1.348-1.014-1.8-2.983-2.409-1.513-.471-3.064-1.019-3.2-3.064-.133-1.951,1.144-3.345,3.316-3.493a8.154,8.154,0,0,1,2.935.294l.185,2.712-.952.065Z" transform="translate(25.823 44.427)" fill="#a22c2c"/>
          <path id="パス_55004" data-name="パス 55004" d="M82.471,115.856l1.729-.308.209.768-4.632,1.264-.211-.766,1.646-.615-1.226-4.5-6.5,1.776,1.226,4.5,1.729-.308.209.768L72.013,119.7l-.208-.766,1.644-.615-2.636-9.664-1.731.308-.208-.768,4.632-1.263.209.766-1.644.614,1.15,4.218,6.506-1.775-1.152-4.219-1.729.308-.209-.768,4.632-1.264.211.766-1.646.615Z" transform="translate(28.512 43.388)" fill="#a22c2c"/>
          <path id="パス_55005" data-name="パス 55005" d="M86.479,113.231l1.646-.609.342.718-4.332,2.066-.342-.718,1.509-.9-4.308-9.04-1.646.609L79,104.645l4.332-2.066.342.718-1.51.894Z" transform="translate(32.705 42.464)" fill="#a22c2c"/>
          <path id="パス_55006" data-name="パス 55006" d="M101,105.472l1.424-.858.475.638-3.781,2.81-.475-.639,1.3-1.161L94,98.277l-.04.03,3,10.757-1.008.749-9.411-5.992-.038.03,5.933,7.982,1.487-.908.475.641-3.744,2.78-.472-.638,1.244-1.126-5.98-8.045-1.437.868-.475-.638,3.129-2.327,8.945,5.687-2.89-10.185,3.065-2.278.475.638-1.246,1.124Z" transform="translate(34.582 39.602)" fill="#a22c2c"/>
          <path id="パス_55007" data-name="パス 55007" d="M108.5,95.112l-2.824,3.364-.609-.51.983-1.42L102.708,95.2l-2.75,3.279,1.9,3.051,1.29-1.287.608.51-2.934,3.5-.611-.512.822-1.223-6-9.935,1.085-1.291,10.824,4.178.94-.872Zm-12.143-2.46,3.064,4.938,2.322-2.767Z" transform="translate(39.342 37.793)" fill="#a22c2c"/>
          <path id="パス_55008" data-name="パス 55008" d="M37.548,53.564a4.674,4.674,0,0,1-3.447-1.54,3.591,3.591,0,0,0-5.472,0,4.627,4.627,0,0,1-6.893,0,3.583,3.583,0,0,0-5.465,0,4.618,4.618,0,0,1-6.887,0,3.64,3.64,0,0,0-2.73-1.265V49.7A4.666,4.666,0,0,1,10.1,51.239a3.579,3.579,0,0,0,5.46,0,4.623,4.623,0,0,1,6.891,0,3.587,3.587,0,0,0,5.468,0,4.631,4.631,0,0,1,6.9,0A3.649,3.649,0,0,0,37.548,52.5Z" transform="translate(2.755 20.573)" fill="#a22c2c"/>
          <path id="パス_55009" data-name="パス 55009" d="M37.548,59.678a4.674,4.674,0,0,1-3.447-1.54,3.591,3.591,0,0,0-5.472,0,4.627,4.627,0,0,1-6.893,0,3.583,3.583,0,0,0-5.465,0,4.618,4.618,0,0,1-6.887,0,3.64,3.64,0,0,0-2.73-1.265v-1.06A4.665,4.665,0,0,1,10.1,57.353a3.579,3.579,0,0,0,5.46,0,4.623,4.623,0,0,1,6.891,0,3.587,3.587,0,0,0,5.468,0,4.631,4.631,0,0,1,6.9,0,3.649,3.649,0,0,0,2.735,1.265Z" transform="translate(2.755 23.104)" fill="#a22c2c"/>
          <path id="パス_55010" data-name="パス 55010" d="M37.548,65.791a4.674,4.674,0,0,1-3.447-1.54,3.591,3.591,0,0,0-5.472,0,4.627,4.627,0,0,1-6.893,0,3.583,3.583,0,0,0-5.465,0,4.618,4.618,0,0,1-6.887,0,3.64,3.64,0,0,0-2.73-1.265v-1.06A4.665,4.665,0,0,1,10.1,63.466a3.579,3.579,0,0,0,5.46,0,4.623,4.623,0,0,1,6.891,0,3.587,3.587,0,0,0,5.468,0,4.631,4.631,0,0,1,6.9,0,3.649,3.649,0,0,0,2.735,1.265Z" transform="translate(2.755 25.635)" fill="#a22c2c"/>
          <path id="パス_55011" data-name="パス 55011" d="M37.548,71.9a4.674,4.674,0,0,1-3.447-1.54,3.591,3.591,0,0,0-5.472,0,4.627,4.627,0,0,1-6.893,0,3.583,3.583,0,0,0-5.465,0,4.618,4.618,0,0,1-6.887,0A3.64,3.64,0,0,0,6.654,69.1v-1.06a4.666,4.666,0,0,1,3.443,1.54,3.579,3.579,0,0,0,5.46,0,4.623,4.623,0,0,1,6.891,0,3.587,3.587,0,0,0,5.468,0,4.631,4.631,0,0,1,6.9,0,3.649,3.649,0,0,0,2.735,1.265Z" transform="translate(2.755 28.166)" fill="#a22c2c"/>
          <path id="パス_55012" data-name="パス 55012" d="M37.548,78.018a4.674,4.674,0,0,1-3.447-1.54,3.591,3.591,0,0,0-5.472,0,4.627,4.627,0,0,1-6.893,0,3.583,3.583,0,0,0-5.465,0,4.618,4.618,0,0,1-6.887,0,3.64,3.64,0,0,0-2.73-1.265v-1.06a4.666,4.666,0,0,1,3.443,1.54,3.579,3.579,0,0,0,5.46,0,4.623,4.623,0,0,1,6.891,0,3.587,3.587,0,0,0,5.468,0,4.631,4.631,0,0,1,6.9,0,3.649,3.649,0,0,0,2.735,1.265Z" transform="translate(2.755 30.696)" fill="#a22c2c"/>
          <path id="パス_55013" data-name="パス 55013" d="M124.04,53.564a4.674,4.674,0,0,1-3.447-1.54,3.591,3.591,0,0,0-5.472,0,4.627,4.627,0,0,1-6.893,0,3.583,3.583,0,0,0-5.465,0,4.618,4.618,0,0,1-6.887,0,3.64,3.64,0,0,0-2.73-1.265V49.7a4.666,4.666,0,0,1,3.443,1.541,3.579,3.579,0,0,0,5.46,0,4.623,4.623,0,0,1,6.891,0,3.587,3.587,0,0,0,5.468,0,4.631,4.631,0,0,1,6.9,0A3.649,3.649,0,0,0,124.04,52.5Z" transform="translate(38.559 20.573)" fill="#a22c2c"/>
          <path id="パス_55014" data-name="パス 55014" d="M124.04,59.678a4.674,4.674,0,0,1-3.447-1.54,3.591,3.591,0,0,0-5.472,0,4.627,4.627,0,0,1-6.893,0,3.583,3.583,0,0,0-5.465,0,4.618,4.618,0,0,1-6.887,0,3.64,3.64,0,0,0-2.73-1.265v-1.06a4.665,4.665,0,0,1,3.443,1.541,3.579,3.579,0,0,0,5.46,0,4.623,4.623,0,0,1,6.891,0,3.587,3.587,0,0,0,5.468,0,4.631,4.631,0,0,1,6.9,0,3.649,3.649,0,0,0,2.735,1.265Z" transform="translate(38.559 23.104)" fill="#a22c2c"/>
          <path id="パス_55015" data-name="パス 55015" d="M124.04,65.791a4.674,4.674,0,0,1-3.447-1.54,3.591,3.591,0,0,0-5.472,0,4.627,4.627,0,0,1-6.893,0,3.583,3.583,0,0,0-5.465,0,4.618,4.618,0,0,1-6.887,0,3.64,3.64,0,0,0-2.73-1.265v-1.06a4.665,4.665,0,0,1,3.443,1.541,3.579,3.579,0,0,0,5.46,0,4.623,4.623,0,0,1,6.891,0,3.587,3.587,0,0,0,5.468,0,4.631,4.631,0,0,1,6.9,0,3.649,3.649,0,0,0,2.735,1.265Z" transform="translate(38.559 25.635)" fill="#a22c2c"/>
          <path id="パス_55016" data-name="パス 55016" d="M124.04,71.9a4.674,4.674,0,0,1-3.447-1.54,3.591,3.591,0,0,0-5.472,0,4.627,4.627,0,0,1-6.893,0,3.583,3.583,0,0,0-5.465,0,4.618,4.618,0,0,1-6.887,0,3.64,3.64,0,0,0-2.73-1.265v-1.06a4.666,4.666,0,0,1,3.443,1.54,3.579,3.579,0,0,0,5.46,0,4.623,4.623,0,0,1,6.891,0,3.587,3.587,0,0,0,5.468,0,4.631,4.631,0,0,1,6.9,0,3.649,3.649,0,0,0,2.735,1.265Z" transform="translate(38.559 28.166)" fill="#a22c2c"/>
          <path id="パス_55017" data-name="パス 55017" d="M124.04,78.018a4.674,4.674,0,0,1-3.447-1.54,3.591,3.591,0,0,0-5.472,0,4.627,4.627,0,0,1-6.893,0,3.583,3.583,0,0,0-5.465,0,4.619,4.619,0,0,1-6.887,0,3.64,3.64,0,0,0-2.73-1.265v-1.06a4.666,4.666,0,0,1,3.443,1.54,3.579,3.579,0,0,0,5.46,0,4.623,4.623,0,0,1,6.891,0,3.587,3.587,0,0,0,5.468,0,4.631,4.631,0,0,1,6.9,0,3.649,3.649,0,0,0,2.735,1.265Z" transform="translate(38.559 30.696)" fill="#a22c2c"/>
        </g>
      </g>
    </g>
  </g>
</svg>
