<svg id="_レイヤー_1-2" xmlns="http://www.w3.org/2000/svg" width="121.729" height="121.739" viewBox="0 0 121.729 121.739">
  <g id="グループ_8794" data-name="グループ 8794">
    <path id="パス_55066" data-name="パス 55066" d="M60.864,121.739A60.869,60.869,0,0,1,60.864,0C96.7,0,121.729,25.027,121.729,60.864a60.932,60.932,0,0,1-60.864,60.864Zm0-119.764a58.89,58.89,0,1,0,58.89,58.89C119.764,26.192,95.547,1.975,60.864,1.975Z" fill="#a22c2c"/>
    <path id="パス_55067" data-name="パス 55067" d="M61.215,100.739a38.989,38.989,0,0,1-33.7-19.5L28.8,80.5A37.489,37.489,0,0,0,61.215,99.258c14.848,0,27.209-9.724,32.412-18.758l1.283.74c-5.4,9.389-18.254,19.5-33.7,19.5Z" transform="translate(-0.351 -1.026)" fill="#a22c2c"/>
    <path id="パス_55068" data-name="パス 55068" d="M28.813,42.539,27.53,41.8c5.4-9.389,18.254-19.5,33.7-19.5a38.989,38.989,0,0,1,33.7,19.5l-1.283.74A37.489,37.489,0,0,0,61.225,23.781c-14.848,0-27.209,9.724-32.412,18.758Z" transform="translate(-0.351 -0.284)" fill="#a22c2c"/>
    <g id="グループ_8791" data-name="グループ 8791" transform="translate(25.629 8.672)">
      <path id="パス_55069" data-name="パス 55069" d="M37.847,25.295l-5.8,4.581-.4-.513,1.007-.958-5.084-6.447-1.2.79-.4-.513,3.495-2.764.4.513L28.408,21.3l5.074,6.427,3.228-2.547-.7-1.688L36.622,23l1.234,2.3Z" transform="translate(-25.96 -8.92)" fill="#a22c2c"/>
      <path id="パス_55070" data-name="パス 55070" d="M46.754,15.519c1.264,2.922.3,5.41-2.251,6.516-2.7,1.165-4.956.128-6.19-2.715-1.264-2.922-.3-5.41,2.251-6.516,2.7-1.165,4.956-.128,6.19,2.715Zm-1.007.464c-1.106-2.557-2.824-3.268-4.976-2.33-1.935.839-2.478,2.833-1.451,5.2,1.106,2.557,2.824,3.268,4.976,2.33C46.231,20.347,46.774,18.352,45.747,15.983Z" transform="translate(-26.11 -8.829)" fill="#a22c2c"/>
      <path id="パス_55071" data-name="パス 55071" d="M57.516,9.787a6.175,6.175,0,0,0-2.132-.049c-2.32.316-3.534,2.053-3.189,4.6.355,2.636,1.9,3.811,4.541,3.446a9.151,9.151,0,0,0,2.863-.879l.118.869a8.775,8.775,0,0,1-3.11.918c-3.12.425-5.1-1.106-5.519-4.186a4.77,4.77,0,0,1,4.324-5.637,8.859,8.859,0,0,1,2.972.089l.336,2.508-.77.109-.425-1.787Z" transform="translate(-26.28 -8.784)" fill="#a22c2c"/>
      <path id="パス_55072" data-name="パス 55072" d="M72.691,14.488c-.425,3.149-2.537,4.788-5.292,4.413-2.9-.395-4.314-2.448-3.89-5.519.425-3.149,2.537-4.778,5.292-4.413,2.9.395,4.314,2.448,3.89,5.519Zm-1.106-.118c.375-2.764-.731-4.255-3.051-4.571-2.093-.286-3.584,1.145-3.929,3.7-.375,2.764.721,4.255,3.051,4.571C69.748,18.358,71.239,16.927,71.585,14.37Z" transform="translate(-26.438 -8.785)" fill="#a22c2c"/>
      <path id="パス_55073" data-name="パス 55073" d="M81.712,23.157,74.9,20.3l.247-.6,1.323.415,3.169-7.572-1.274-.671.247-.6,4.117,1.718-.247.6-1.856-.632-3.159,7.553,3.8,1.589L82.4,20.669l.721.306-1.412,2.192Z" transform="translate(-26.584 -8.815)" fill="#a22c2c"/>
      <path id="パス_55074" data-name="パス 55074" d="M94.568,26.22c-1.945,2.518-4.591,2.883-6.782,1.185-2.32-1.787-2.518-4.275-.622-6.733,1.945-2.518,4.591-2.883,6.782-1.185C96.266,21.273,96.463,23.761,94.568,26.22Zm-.889-.652c1.7-2.211,1.491-4.048-.365-5.479-1.668-1.283-3.682-.8-5.252,1.244-1.7,2.211-1.491,4.048.365,5.479,1.668,1.293,3.682.8,5.252-1.244Z" transform="translate(-26.724 -8.907)" fill="#a22c2c"/>
    </g>
    <g id="グループ_8792" data-name="グループ 8792" transform="translate(19.982 90.127)">
      <path id="パス_55075" data-name="パス 55075" d="M25.867,102.053,23.794,99.8l.4-.375.9.81,1.234-2.192-2.024-2.2-2.281,1.046.78,1.007-.4.375-2.162-2.34.4-.375.77.671,7.4-3.258.8.869-3.86,7.118.523.731-.4.375Zm2.784-8.174-3.692,1.678,1.708,1.856,1.984-3.534Z" transform="translate(-20.24 -91.311)" fill="#a22c2c"/>
      <path id="パス_55076" data-name="パス 55076" d="M41.176,103.593l-5.963,5.242-.968-.642,2.31-7.01-5.6,4.828-.968-.642,2.6-7.474-.652-.563.306-.464,2.587,1.718-.306.464-1.145-.622L31,105l5.687-4.917.9.592-2.32,7.167,5.223-4.709-1.046-.829.306-.464,2.527,1.678-.306.464-.78-.385Z" transform="translate(-20.364 -91.361)" fill="#a22c2c"/>
      <path id="パス_55077" data-name="パス 55077" d="M47.839,114.238,44.956,113.2l.188-.523,1.165.3.079-2.508-2.814-1.007-1.54,1.984,1.155.533L43,112.5l-3-1.076.188-.523,1,.237,5.055-6.328,1.106.395-.118,8.1.8.4-.188.523Zm-1.323-8.55-2.5,3.2,2.369.849.118-4.048Z" transform="translate(-20.492 -91.462)" fill="#a22c2c"/>
      <path id="パス_55078" data-name="パス 55078" d="M55.012,107.645l-1.234-.118-1.214,6.546c-.365,1.975-1.422,2.705-3.051,2.409a2.823,2.823,0,0,1-.553-.158l.118-.652c.118.039.336.1.434.118,1.254.237,1.886-.267,2.192-1.935l1.2-6.476-1.481-.385.1-.543,3.584.661-.1.543Z" transform="translate(-20.606 -91.483)" fill="#a22c2c"/>
      <path id="パス_55079" data-name="パス 55079" d="M58.512,115.119l1.214.2-.039.553-3.347-.227.039-.553,1.224-.03.474-6.98-1.214-.2.039-.553,3.347.227-.039.553-1.224.03Z" transform="translate(-20.7 -91.494)" fill="#a22c2c"/>
      <path id="パス_55080" data-name="パス 55080" d="M66.013,108.189a3.619,3.619,0,0,0-1.313-.148,1.334,1.334,0,0,0-1.432,1.491c.059.879.573,1.175,1.738,1.55,1.6.513,2.518.918,2.616,2.32.1,1.471-1.066,2.36-2.587,2.468a5.6,5.6,0,0,1-2.439-.326l-.138-2.053.661-.049.237,1.52a4.771,4.771,0,0,0,1.6.178c1.283-.089,1.8-.721,1.738-1.56-.059-.938-.711-1.254-2.083-1.678-1.056-.326-2.142-.711-2.241-2.142a2.231,2.231,0,0,1,2.31-2.439,5.632,5.632,0,0,1,2.053.207l.128,1.9-.661.049-.2-1.283Z" transform="translate(-20.777 -91.494)" fill="#a22c2c"/>
      <path id="パス_55081" data-name="パス 55081" d="M78.367,112.521l1.2-.217.148.533-3.238.879-.148-.533,1.145-.425-.859-3.139-4.541,1.244L72.937,114l1.2-.217.148.533-3.238.879-.148-.533,1.145-.425L70.213,107.5l-1.2.217-.148-.533L72.1,106.3l.148.533-1.145.425.8,2.942,4.541-1.244-.8-2.942-1.2.217-.148-.533,3.238-.879.148.533-1.145.425,1.846,6.743Z" transform="translate(-20.86 -91.462)" fill="#a22c2c"/>
      <path id="パス_55082" data-name="パス 55082" d="M84.223,110.014l1.145-.425.237.5-3.021,1.441-.237-.5,1.056-.622L80.392,104.1l-1.145.425-.237-.5,3.021-1.441.237.5-1.056.622Z" transform="translate(-20.989 -91.434)" fill="#a22c2c"/>
      <path id="パス_55083" data-name="パス 55083" d="M95.723,102.512l1-.6.336.444-2.636,1.965-.336-.444.908-.81-4.146-5.578-.03.02,2.093,7.513-.7.523-6.575-4.186-.03.02,4.146,5.578,1.037-.632.336.444-2.616,1.945-.326-.444.869-.79-4.176-5.617-1.007.6-.336-.444,2.182-1.629,6.249,3.969-2.014-7.108L92.09,95.66l.336.444-.869.78,4.176,5.617Z" transform="translate(-21.047 -91.346)" fill="#a22c2c"/>
      <path id="パス_55084" data-name="パス 55084" d="M104.429,93.956l-1.975,2.35-.425-.355.691-.987-2.33-.938-1.925,2.29L99.8,98.448l.9-.9.425.355-2.053,2.439-.425-.355.573-.859-4.186-6.94.76-.9,7.562,2.922.661-.612.425.355Zm-8.481-1.718,2.142,3.446,1.619-1.935-3.761-1.52Z" transform="translate(-21.193 -91.29)" fill="#a22c2c"/>
    </g>
    <g id="グループ_8793" data-name="グループ 8793" transform="translate(6.555 47.438)">
      <path id="パス_55085" data-name="パス 55085" d="M28.221,50.755a3.262,3.262,0,0,1-2.409-1.076,2.551,2.551,0,0,0-1.905-.879,2.608,2.608,0,0,0-1.915.879,3.234,3.234,0,0,1-4.818,0,2.551,2.551,0,0,0-1.905-.879,2.586,2.586,0,0,0-1.905.879,3.234,3.234,0,0,1-4.818,0A2.534,2.534,0,0,0,6.64,48.8v-.74a3.28,3.28,0,0,1,2.409,1.076,2.534,2.534,0,0,0,1.905.879,2.568,2.568,0,0,0,1.905-.879,3.234,3.234,0,0,1,4.818,0,2.505,2.505,0,0,0,3.811,0,3.234,3.234,0,0,1,4.818,0,2.551,2.551,0,0,0,1.905.879v.74Z" transform="translate(-6.64 -48.05)" fill="#a22c2c"/>
      <path id="パス_55086" data-name="パス 55086" d="M28.221,56.875A3.262,3.262,0,0,1,25.813,55.8a2.551,2.551,0,0,0-1.905-.879,2.608,2.608,0,0,0-1.915.879,3.234,3.234,0,0,1-4.818,0,2.551,2.551,0,0,0-1.905-.879,2.586,2.586,0,0,0-1.905.879,3.234,3.234,0,0,1-4.818,0A2.534,2.534,0,0,0,6.64,54.92v-.74a3.28,3.28,0,0,1,2.409,1.076,2.534,2.534,0,0,0,1.905.879,2.568,2.568,0,0,0,1.905-.879,3.234,3.234,0,0,1,4.818,0,2.505,2.505,0,0,0,3.811,0,3.234,3.234,0,0,1,4.818,0,2.551,2.551,0,0,0,1.905.879v.74Z" transform="translate(-6.64 -48.128)" fill="#a22c2c"/>
      <path id="パス_55087" data-name="パス 55087" d="M28.221,62.985a3.262,3.262,0,0,1-2.409-1.076,2.551,2.551,0,0,0-1.905-.879,2.608,2.608,0,0,0-1.915.879,3.234,3.234,0,0,1-4.818,0,2.551,2.551,0,0,0-1.905-.879,2.586,2.586,0,0,0-1.905.879,3.234,3.234,0,0,1-4.818,0A2.534,2.534,0,0,0,6.64,61.03v-.74a3.28,3.28,0,0,1,2.409,1.076,2.534,2.534,0,0,0,1.905.879,2.568,2.568,0,0,0,1.905-.879,3.234,3.234,0,0,1,4.818,0,2.505,2.505,0,0,0,3.811,0,3.234,3.234,0,0,1,4.818,0,2.551,2.551,0,0,0,1.905.879v.74Z" transform="translate(-6.64 -48.206)" fill="#a22c2c"/>
      <path id="パス_55088" data-name="パス 55088" d="M28.221,69.1a3.262,3.262,0,0,1-2.409-1.076,2.516,2.516,0,0,0-3.821,0,3.234,3.234,0,0,1-4.818,0,2.505,2.505,0,0,0-3.811,0,3.234,3.234,0,0,1-4.818,0A2.534,2.534,0,0,0,6.64,67.14V66.4a3.238,3.238,0,0,1,2.4,1.076,2.505,2.505,0,0,0,3.811,0,3.234,3.234,0,0,1,4.818,0,2.505,2.505,0,0,0,3.811,0,3.234,3.234,0,0,1,4.818,0,2.551,2.551,0,0,0,1.905.879v.74Z" transform="translate(-6.64 -48.284)" fill="#a22c2c"/>
      <path id="パス_55089" data-name="パス 55089" d="M28.221,75.215a3.262,3.262,0,0,1-2.409-1.076,2.551,2.551,0,0,0-1.905-.879,2.608,2.608,0,0,0-1.915.879,3.234,3.234,0,0,1-4.818,0,2.551,2.551,0,0,0-1.905-.879,2.586,2.586,0,0,0-1.905.879,3.234,3.234,0,0,1-4.818,0A2.534,2.534,0,0,0,6.64,73.26v-.74A3.28,3.28,0,0,1,9.049,73.6a2.534,2.534,0,0,0,1.905.879A2.568,2.568,0,0,0,12.86,73.6a3.234,3.234,0,0,1,4.818,0,2.505,2.505,0,0,0,3.811,0,3.234,3.234,0,0,1,4.818,0,2.551,2.551,0,0,0,1.905.879v.74Z" transform="translate(-6.64 -48.362)" fill="#a22c2c"/>
      <path id="パス_55090" data-name="パス 55090" d="M114.722,50.755a3.262,3.262,0,0,1-2.409-1.076,2.505,2.505,0,0,0-3.811,0,3.234,3.234,0,0,1-4.818,0,2.505,2.505,0,0,0-3.811,0,3.223,3.223,0,0,1-4.808,0A2.534,2.534,0,0,0,93.16,48.8v-.74a3.28,3.28,0,0,1,2.409,1.076,2.534,2.534,0,0,0,1.905.879,2.568,2.568,0,0,0,1.905-.879,3.223,3.223,0,0,1,4.808,0,2.551,2.551,0,0,0,1.905.879,2.58,2.58,0,0,0,1.915-.889,3.234,3.234,0,0,1,4.818,0,2.551,2.551,0,0,0,1.905.879v.74Z" transform="translate(-7.743 -48.05)" fill="#a22c2c"/>
      <path id="パス_55091" data-name="パス 55091" d="M114.722,56.875a3.262,3.262,0,0,1-2.409-1.076,2.505,2.505,0,0,0-3.811,0,3.234,3.234,0,0,1-4.818,0,2.505,2.505,0,0,0-3.811,0,3.223,3.223,0,0,1-4.808,0,2.534,2.534,0,0,0-1.905-.879v-.74a3.28,3.28,0,0,1,2.409,1.076,2.534,2.534,0,0,0,1.905.879,2.568,2.568,0,0,0,1.905-.879,3.223,3.223,0,0,1,4.808,0,2.551,2.551,0,0,0,1.905.879,2.58,2.58,0,0,0,1.915-.889,3.234,3.234,0,0,1,4.818,0,2.551,2.551,0,0,0,1.905.879v.74Z" transform="translate(-7.743 -48.128)" fill="#a22c2c"/>
      <path id="パス_55092" data-name="パス 55092" d="M114.722,62.985a3.262,3.262,0,0,1-2.409-1.076,2.505,2.505,0,0,0-3.811,0,3.234,3.234,0,0,1-4.818,0,2.505,2.505,0,0,0-3.811,0,3.223,3.223,0,0,1-4.808,0,2.534,2.534,0,0,0-1.905-.879v-.74a3.28,3.28,0,0,1,2.409,1.076,2.534,2.534,0,0,0,1.905.879,2.568,2.568,0,0,0,1.905-.879,3.223,3.223,0,0,1,4.808,0,2.551,2.551,0,0,0,1.905.879,2.58,2.58,0,0,0,1.915-.889,3.234,3.234,0,0,1,4.818,0,2.551,2.551,0,0,0,1.905.879v.74Z" transform="translate(-7.743 -48.206)" fill="#a22c2c"/>
      <path id="パス_55093" data-name="パス 55093" d="M114.722,69.1a3.262,3.262,0,0,1-2.409-1.076,2.505,2.505,0,0,0-3.811,0,3.234,3.234,0,0,1-4.818,0,2.505,2.505,0,0,0-3.811,0,3.223,3.223,0,0,1-4.808,0,2.534,2.534,0,0,0-1.905-.879V66.4a3.28,3.28,0,0,1,2.409,1.076,2.505,2.505,0,0,0,3.811,0,3.223,3.223,0,0,1,4.808,0,2.551,2.551,0,0,0,1.905.879,2.608,2.608,0,0,0,1.915-.879,3.234,3.234,0,0,1,4.818,0,2.551,2.551,0,0,0,1.905.879v.74Z" transform="translate(-7.743 -48.284)" fill="#a22c2c"/>
      <path id="パス_55094" data-name="パス 55094" d="M114.722,75.215a3.262,3.262,0,0,1-2.409-1.076,2.505,2.505,0,0,0-3.811,0,3.234,3.234,0,0,1-4.818,0,2.505,2.505,0,0,0-3.811,0,3.223,3.223,0,0,1-4.808,0,2.534,2.534,0,0,0-1.905-.879v-.74A3.28,3.28,0,0,1,95.569,73.6a2.534,2.534,0,0,0,1.905.879A2.568,2.568,0,0,0,99.38,73.6a3.223,3.223,0,0,1,4.808,0,2.551,2.551,0,0,0,1.905.879,2.58,2.58,0,0,0,1.915-.889,3.234,3.234,0,0,1,4.818,0,2.551,2.551,0,0,0,1.905.879v.74Z" transform="translate(-7.743 -48.362)" fill="#a22c2c"/>
    </g>
    <path id="パス_55095" data-name="パス 55095" d="M78.946,77.415a1.831,1.831,0,0,0-1.135-.77c-.118-.03-.247-.059-.375-.089.069-.464.158-.928.217-1.392a.82.82,0,0,0-.188-.622,1.641,1.641,0,0,0-1.106-.533c-1.2-.109-2.409-.2-3.623-.276a10.594,10.594,0,0,0,3.347-6.654A15.157,15.157,0,0,0,73.891,57.1a.527.527,0,0,0-.563-.217.516.516,0,0,0-.395.454,2.1,2.1,0,0,1-.869,1.649,2.024,2.024,0,0,1-1.8.01,1.219,1.219,0,0,1-.721-.632c-.395-.879.168-2.389.582-3.485.1-.267.2-.523.267-.74,1.2-3.633-3.554-9.349-6.338-11.265a16.5,16.5,0,0,0-1.432-.849A10.563,10.563,0,0,1,60.7,40.778c-.819-.721-1.017-.958-.958-2.754a.522.522,0,0,0-.365-.513.515.515,0,0,0-.592.207,5.851,5.851,0,0,0-1.066,3.821,11.9,11.9,0,0,1-3.169,10.5,4.812,4.812,0,0,0-.089-1.678.5.5,0,0,0-.553-.395.522.522,0,0,0-.484.494,6.2,6.2,0,0,1-1.836,3.594c-.4.434-.859.839-1.343,1.274A10.438,10.438,0,0,0,47.729,58.2a9.757,9.757,0,0,0-.02,6.822,6.012,6.012,0,0,1-1.54-2.261.526.526,0,0,0-.987.336c.592,2.824,1.817,6.644,3.307,8.086.454.434.918.839,1.392,1.224a.718.718,0,0,0-.138.523,1.24,1.24,0,0,0,.711.839c.257.138.5.276.76.415-.03.138-.059.286-.1.425-1.53.089-3.06.2-4.581.336a1.561,1.561,0,0,0-1.106.533.82.82,0,0,0-.188.622c.069.513.158,1.027.237,1.55-.2.069-.4.128-.6.2a1.732,1.732,0,0,0-1.017.819.826.826,0,0,0-.039.681c.415,1.1.859,2.2,1.343,3.288a1.035,1.035,0,0,0,1.007.543,1.841,1.841,0,0,0,.77-.168c1.965-.839,3.959-1.619,5.963-2.35q-.755.918-1.481,1.866a1.139,1.139,0,0,0-.227.908.959.959,0,0,0,.464.652c1.056.622,2.142,1.234,3.228,1.807a1.042,1.042,0,0,0,.494.118,1.229,1.229,0,0,0,1.046-.6,59.251,59.251,0,0,1,4.038-5.845,65.106,65.106,0,0,1,7.029,5.262,1.628,1.628,0,0,0,1.056.415,1.111,1.111,0,0,0,.76-.276h0c.958-.908,1.9-1.846,2.774-2.764a.9.9,0,0,0,.247-.731,1.189,1.189,0,0,0-.306-.681c1.382.415,2.754.839,4.127,1.3a2.223,2.223,0,0,0,.7.118,1.106,1.106,0,0,0,1.116-.622c.395-1.135.76-2.29,1.086-3.446a.838.838,0,0,0-.1-.661Zm-2.567,3.919c-2.024-.681-4.058-1.3-6.121-1.9-.365-.109-.731-.2-1.1-.306-.415-.109-.819-.227-1.234-.336-.474-.128-.958-.247-1.432-.365l-1.422-.355-1.244-.3c-.079-.02-.148-.03-.227-.049-.316-.069-.632-.148-.958-.217-.158-.039-.316-.069-.464-.109a.865.865,0,0,0,.079-.1c.03-.03.049-.069.079-.1a1.805,1.805,0,0,0,.128-.158.494.494,0,0,1,.069-.079l.237-.267h0c.109-.118.207-.237.316-.355l.207-.237c.02-.03.049-.049.069-.079.059-.069.118-.138.188-.207s.109-.118.158-.178c.03-.03.059-.069.089-.1.1-.109.188-.217.286-.316l.01-.01c.109-.118.227-.237.346-.355.069-.079.148-.148.217-.227l.908.148c.2.03.395.069.6.109.168.03.336.059.513.089h0c.592.109,1.185.207,1.777.326.178.04.365.079.543.109.089.02.178.039.257.049a.692.692,0,0,1,.138.03c.069.01.138.03.217.039.059.01.128.03.188.039h.02c.118.02.247.049.365.069,2.152.434,4.285.918,6.417,1.451.118.03.237.059.365.089s.237.059.365.089c.1.03.2.049.306.079a1.124,1.124,0,0,1,.681.425.17.17,0,0,1,.03.1c-.326,1.145-.681,2.29-1.076,3.406-.03.079-.375.217-.879.049Zm-4.788.158a.2.2,0,0,1-.049.158c-.879.918-1.807,1.836-2.754,2.745-.138.138-.523.1-.81-.158a64.458,64.458,0,0,0-7.059-5.292c.1-.128.2-.247.3-.375q1.155-.059,2.31-.089c2.152.5,4.3,1.046,6.427,1.649.444.306.889.592,1.333.918a.665.665,0,0,1,.306.454ZM59.842,79.123A63.364,63.364,0,0,0,55.795,85a.45.45,0,0,1-.553.217c-1.076-.573-2.162-1.185-3.209-1.8a.224.224,0,0,1-.109-.158.394.394,0,0,1,.089-.316c.731-.958,1.491-1.886,2.281-2.814l.474-.563.5-.563v-.01c.118-.138.237-.267.365-.4s.237-.267.355-.4c.2-.217.4-.434.6-.652.079-.089.158-.168.237-.247a1.184,1.184,0,0,0,.109-.118.137.137,0,0,0,.03-.039l.118-.118c.059-.069.118-.128.188-.2h0l.079-.079c.079-.079.148-.158.227-.247l.247-.247.306-.306.306-.306.306-.306c.079-.069.148-.148.227-.227l.069-.069c.1-.1.2-.2.306-.3h.01a3.785,3.785,0,0,0,.286-.276l.1-.1.03-.03a.457.457,0,0,0,.069-.069c.069-.069.148-.138.217-.207.039-.03.069-.069.109-.1h0a.6.6,0,0,0,.079-.079l.1-.1c.049-.049.109-.1.158-.148a1.766,1.766,0,0,0,.138-.128c.01,0,.02-.02.03-.03.059-.049.118-.109.178-.158,1.056-.958,2.142-1.9,3.258-2.794a.7.7,0,0,1,.632-.158c.612.395,1.224.78,1.846,1.155a.346.346,0,0,1-.138.227c-.267.257-.533.523-.79.78-.148.148-.306.3-.454.454l-.454.454-.02.02c-.118.118-.237.247-.355.375l-.02.02c-.109.109-.207.217-.306.326l-.03.03c-.089.089-.168.178-.257.267,0,.01-.02.02-.03.03-.1.109-.207.217-.306.326s-.217.247-.326.365l-.01.01c-.039.049-.079.089-.118.138a1.719,1.719,0,0,0-.128.148c-.059.069-.128.138-.188.207-.02.03-.049.049-.069.079l-.237.267-.217.247c-.1.109-.2.227-.286.336s-.168.207-.257.306c-.01.02-.03.03-.039.049a.691.691,0,0,0-.079.1c-.049.049-.089.109-.138.158-.01.02-.03.03-.039.049a3.072,3.072,0,0,0-.227.276l-.02.02a.429.429,0,0,0-.059.069c-.059.069-.109.138-.168.2-.01.01-.02.03-.03.039-.049.069-.109.128-.168.2l-.118.148c-.079.1-.158.207-.237.306-.02.03-.039.049-.059.079-.059.069-.109.138-.168.217-.079.1-.158.2-.227.3Zm-14,3.169c-.474-1.076-.918-2.172-1.323-3.258a.215.215,0,0,1,.02-.1,1.063,1.063,0,0,1,.582-.434c.158-.059.326-.109.484-.158l.355-.118c.118-.039.227-.079.346-.109,1.945-.632,3.9-1.234,5.864-1.777h.039c.237.03.474.079.711.109l.365.059.365.059c.5.079,1,.148,1.5.237.326.049.642.118.968.168-.059.069-.128.128-.188.2-.118.128-.237.247-.355.375-.227.247-.444.494-.661.74-.128.138-.247.276-.375.415s-.247.276-.365.415l-.326.385q-3.658,1.288-7.207,2.794c-.425.178-.78.089-.819,0Zm.178-6.388a.928.928,0,0,1,.6-.257c1.451-.138,2.9-.237,4.364-.326a.666.666,0,0,0,.109.444.639.639,0,0,0,.079.089c-1.668.474-3.327.987-4.976,1.52-.069-.484-.128-.977-.178-1.471ZM51.9,74.532v-.01c.03-.128.059-.247.089-.375.02-.079.039-.168.059-.247a.6.6,0,0,1,.03-.128c.02-.089.039-.168.059-.257.01-.059.03-.118.039-.178a.465.465,0,0,1,.2-.109,1.308,1.308,0,0,1,.444-.069h.158c.731.059,1.451.138,2.182.207.237.02.474.039.711.069l.79.089c.306.03.6.069.908.109l1.037.118.523.059a.668.668,0,0,1,.138.02.93.93,0,0,0-.1.1.429.429,0,0,1-.069.059c-.1.1-.207.188-.306.286l-.049.049a.136.136,0,0,1-.039.03l-.118.118c-.089.079-.168.168-.257.247l-.039.039-.02.02-.267.267-.049.049-.326.326-.3.3-.3.3c-.1.1-.2.207-.3.316a.168.168,0,0,1-.069-.01c-.355-.059-.711-.128-1.076-.2-.346-.059-.7-.109-1.046-.168-.207-.03-.425-.069-.632-.1l-.2-.03-.365-.059c-.109-.02-.227-.039-.336-.049h-.03c-.217-.03-.444-.069-.661-.109a.465.465,0,0,1-.168-.039,1.6,1.6,0,0,1-.444-.178l.03-.118c.03-.128.059-.257.089-.375s.059-.247.089-.375ZM50.819,73.09a1.09,1.09,0,0,1-.267-.2c.089.069.178.138.267.2Zm-2.587-7.118a.524.524,0,0,0,.454-.879c-1.116-1.155-1.007-5.153-.276-6.595a9.611,9.611,0,0,1,2.35-2.656c.474-.425.958-.859,1.392-1.323a8.338,8.338,0,0,0,1.668-2.527,4.533,4.533,0,0,1-.1.5.525.525,0,0,0,.227.582.506.506,0,0,0,.622-.059,12.624,12.624,0,0,0,3.89-11.66A4.54,4.54,0,0,1,59,38.813a2.836,2.836,0,0,0,1.214,2.508,11.23,11.23,0,0,0,2.053,1.333c.464.257.938.513,1.372.81,2.656,1.826,7.089,7.316,6.052,10.425-.069.207-.158.444-.257.711-.464,1.224-1.1,2.893-.573,4.048A1.982,1.982,0,0,0,70,59.674,2.743,2.743,0,0,0,72.44,59.6a2.577,2.577,0,0,0,1.116-1.639,14.823,14.823,0,0,1,1.777,9.024,10,10,0,0,1-3.663,6.684c-.138.118-.276.237-.415.346s-.3.237-.444.346a.693.693,0,0,0-.1.079c-.2.148-.415.267-.622.395-.03.02-.049.03-.079.049l-.3-.059c-.138-.03-.267-.059-.4-.079l-1.856-.355c.049-.049.109-.1.158-.148.128-.118.247-.237.375-.365.109-.109.207-.237.316-.355.138-.168.276-.346.415-.543.069-.1.128-.2.2-.3s.118-.207.178-.316a7.326,7.326,0,0,0,.829-2.725,10.443,10.443,0,0,0-1.264-6.338.452.452,0,0,0-.484-.207.463.463,0,0,0-.355.4,1.214,1.214,0,0,1-.454.958.939.939,0,0,1-.829-.03c-.661-.276-.375-1.3,0-2.429.059-.168.109-.326.158-.464.7-2.34-2.053-5.983-3.663-7.207a9.205,9.205,0,0,0-.829-.543,5.743,5.743,0,0,1-1.066-.76c-.425-.4-.533-.513-.5-1.639a.472.472,0,0,0-.326-.464.446.446,0,0,0-.513.2h0a4.061,4.061,0,0,0-.622,2.478c.395,2.192-.671,4.581-3.465,7.75-.227.276-.494.533-.75.79a6.534,6.534,0,0,0-1.461,1.846,7.223,7.223,0,0,0-.267,3.534c-.1-.188-.207-.4-.326-.671a.454.454,0,0,0-.553-.257.466.466,0,0,0-.316.533,20.152,20.152,0,0,0,.889,3.248c.059.158.118.316.188.464.079.178.158.355.237.513a3.809,3.809,0,0,0,.6.908c.089.1.188.188.286.286l-1.2-.118a1.755,1.755,0,0,0-1.333.355c-.257-.168-.5-.346-.75-.523-.1-.069-.2-.148-.3-.227s-.2-.148-.3-.227c-.454-.375-.908-.76-1.353-1.185C47.936,69.6,46.939,67,46.278,64.472a2.866,2.866,0,0,0,1.935,1.51ZM65.44,73.831c.118-.118.247-.237.365-.365l.247-.247c.148-.148.306-.306.464-.454s.306-.306.464-.454l.03-.03a1.052,1.052,0,0,0,.365-.839.713.713,0,0,0-.355-.543c-.612-.375-1.224-.76-1.826-1.155a1.363,1.363,0,0,0-1.5.2q-1.94,1.57-3.742,3.238l-1.145-.148c-.385-.049-.77-.089-1.155-.138s-.79-.1-1.185-.138c-.336-.039-.671-.069-1.007-.109-.257-.217-.5-.454-.75-.7-.069-.069-.138-.128-.207-.207a2.754,2.754,0,0,1-.316-.434,4.462,4.462,0,0,1-.276-.533,14.407,14.407,0,0,1-.74-2.1,1.371,1.371,0,0,0,.731.375.437.437,0,0,0,.464-.237.46.46,0,0,0-.059-.533c-.592-.681-.533-3.149-.138-4.008a5.923,5.923,0,0,1,1.3-1.629c.276-.276.553-.543.79-.829,2.952-3.347,4.067-5.924,3.633-8.362a2.256,2.256,0,0,1,.079-.889,1.923,1.923,0,0,0,.652.968,6.507,6.507,0,0,0,1.195.859c.257.158.523.316.77.5,1.708,1.293,3.929,4.63,3.4,6.407-.039.128-.089.276-.148.434-.355,1.037-.958,2.784.4,3.347a1.6,1.6,0,0,0,1.491-.02,1.545,1.545,0,0,0,.632-.77,10.175,10.175,0,0,1,.819,5.242,6.492,6.492,0,0,1-.829,2.587c-.079.128-.148.257-.227.375-.1.138-.188.276-.286.4-.168.207-.346.395-.513.573-.128.128-.257.247-.385.365a4.042,4.042,0,0,1-.326.276,1.033,1.033,0,0,1-.109.079c-.415-.069-.819-.148-1.234-.217.049-.049.1-.109.158-.168Zm11.274,2.547c-1.866-.464-3.742-.9-5.637-1.283l.089-.059c.257-.188.513-.395.78-.6,1.451.089,2.893.188,4.334.326a.824.824,0,0,1,.632.326c-.059.434-.138.879-.207,1.313Z" transform="translate(-0.558 -0.478)" fill="#a22c2c"/>
  </g>
</svg>
