<svg id="_イヤー_1-2" xmlns="http://www.w3.org/2000/svg" width="140.652" height="140.652" viewBox="0 0 140.652 140.652">
  <g id="グループ_8641" data-name="グループ 8641">
    <path id="パス_55011" data-name="パス 55011" d="M70.326,140.652A70.326,70.326,0,1,1,70.326,0c41.409,0,70.326,28.915,70.326,70.321a70.4,70.4,0,0,1-70.326,70.321Zm0-138.371a68.039,68.039,0,1,0,68.045,68.039C138.382,30.261,110.4,2.281,70.326,2.281Z" fill="#a22c2c"/>
    <path id="パス_55012" data-name="パス 55012" d="M66.451,103.886A45.047,45.047,0,0,1,27.52,81.356L29,80.5a43.314,43.314,0,0,0,37.449,21.675c17.156,0,31.437-11.237,37.449-21.675l1.483.856C99.143,92.2,84.292,103.886,66.451,103.886Z" transform="translate(3.875 11.319)" fill="#a22c2c"/>
    <path id="パス_55013" data-name="パス 55013" d="M106.022,49.337c-8.4-18.458-19.049-25.326-39.32-25.326A43.276,43.276,0,0,0,27.383,49.337L25.82,48.63A45.012,45.012,0,0,1,66.7,22.3c21.069,0,32.156,7.13,40.882,26.33Z" transform="translate(3.635 3.135)" fill="#a22c2c"/>
    <g id="グループ_8638" data-name="グループ 8638" transform="translate(17.021 9.821)">
      <path id="パス_55014" data-name="パス 55014" d="M26.944,35.92l-3.8,6.195-.548-.331.6-1.221-6.89-4.221-.844,1.141-.548-.331,2.293-3.742.548.331-.9,1.711,6.868,4.21L25.849,36.2l-1.221-1.323.4-.65,1.917,1.7Z" transform="translate(-14.92 -5.117)" fill="#a22c2c"/>
      <path id="パス_55015" data-name="パス 55015" d="M29.782,25.606c2.282,2.133,2.4,4.769.525,6.754-1.974,2.11-4.426,2.065-6.651-.023-2.282-2.133-2.4-4.769-.525-6.754C25.1,23.472,27.557,23.518,29.782,25.606Zm-.73.81c-2.008-1.871-3.822-1.837-5.407-.16-1.415,1.517-1.129,3.525.73,5.259,2.008,1.871,3.822,1.837,5.407.148,1.415-1.517,1.129-3.525-.73-5.259Z" transform="translate(-13.948 -6.44)" fill="#a22c2c"/>
      <path id="パス_55016" data-name="パス 55016" d="M34.695,17.617a6.177,6.177,0,0,0-1.894.913c-1.894,1.323-2.179,3.388-.73,5.464,1.494,2.145,3.365,2.487,5.533.981a9.336,9.336,0,0,0,2.122-2.053l.491.707a8.6,8.6,0,0,1-2.316,2.2c-2.544,1.768-4.974,1.323-6.719-1.186a4.688,4.688,0,0,1,1.266-6.879,8.768,8.768,0,0,1,2.635-1.255l1.426,2.042L35.881,19l-1.175-1.369Z" transform="translate(-12.77 -7.497)" fill="#a22c2c"/>
      <path id="パス_55017" data-name="パス 55017" d="M47.713,15.474c1.2,2.886.217,5.328-2.3,6.377-2.658,1.107-4.883.057-6.046-2.761-1.2-2.886-.217-5.328,2.3-6.377C44.325,11.607,46.55,12.656,47.713,15.474Zm-.992.445c-1.05-2.533-2.727-3.251-4.86-2.361-1.917.8-2.476,2.749-1.506,5.1,1.05,2.533,2.727,3.251,4.86,2.361,1.917-.8,2.476-2.749,1.506-5.1Z" transform="translate(-11.552 -8.092)" fill="#a22c2c"/>
      <path id="パス_55018" data-name="パス 55018" d="M57.505,18.438l-7.141,1.38-.125-.627L51.55,18.8l-1.54-7.94L48.6,11l-.125-.627,4.312-.833.125.627-1.871.491,1.529,7.917,3.981-.776.148-1.791.753-.148.034,2.567Z" transform="translate(-10.199 -8.478)" fill="#a22c2c"/>
      <path id="パス_55019" data-name="パス 55019" d="M67.275,13.561c-.046,3.126-1.928,4.974-4.666,4.928-2.886-.046-4.495-1.894-4.449-4.951.046-3.126,1.928-4.974,4.666-4.928C65.712,8.656,67.321,10.5,67.275,13.561Zm-1.1,0c.046-2.749-1.2-4.073-3.514-4.107-2.076-.034-3.377,1.54-3.411,4.073-.046,2.749,1.209,4.073,3.514,4.107,2.076.034,3.377-1.54,3.411-4.073Z" transform="translate(-8.836 -8.609)" fill="#a22c2c"/>
      <path id="パス_55020" data-name="パス 55020" d="M81.687,13.273l-5.681,7.472-1.266-.411-.194-9.355-.935-.434L73.8,9.93l3.6,1.152-.194.616-1.62-.376.057,8.465,5.077-6.822-1.551-.627.194-.616,3.445,1.1-.194.616Z" transform="translate(-6.662 -8.423)" fill="#a22c2c"/>
      <path id="パス_55021" data-name="パス 55021" d="M82.932,23.511,80.08,22.1l.251-.513,1.038.365,2.225-4.483-.924-.593.251-.513,1.871.924L82.259,22.4l.924.593-.251.513Zm1.917-8.921a.577.577,0,0,1,.878-.308.59.59,0,0,1,.331.9.637.637,0,0,1-.924.308A.623.623,0,0,1,84.849,14.59Z" transform="translate(-5.752 -7.824)" fill="#a22c2c"/>
      <path id="パス_55022" data-name="パス 55022" d="M86.3,23.968c-.331.525-.274.787.262,1.118a3.267,3.267,0,0,0,.4.205l-.354.57a3.031,3.031,0,0,1-.753-.342c-.867-.536-.992-1.129-.548-1.837l4.2-6.754-.981-.6.331-.525,1.951.947L86.315,23.98Z" transform="translate(-5.051 -7.597)" fill="#a22c2c"/>
      <path id="パス_55023" data-name="パス 55023" d="M89.879,26.446c-.376.491-.342.753.148,1.129a3.608,3.608,0,0,0,.376.24l-.4.525a3.374,3.374,0,0,1-.719-.411c-.81-.627-.878-1.221-.376-1.882l4.826-6.32-.913-.7.376-.491,1.848,1.129-5.168,6.776Z" transform="translate(-4.555 -7.211)" fill="#a22c2c"/>
      <path id="パス_55024" data-name="パス 55024" d="M95.644,30.992c-.57.57-.422.867-.034,1.243a1.976,1.976,0,0,0,.24.194l-.422.433a2.635,2.635,0,0,1-.65-.479c-.5-.491-.627-.97-.342-1.426a2.744,2.744,0,0,1-2.179-.867c-.935-.913-1.015-1.848-.274-2.59,1.015-1.038,2.225-.639,4.415,1.312l.388-.388a1.317,1.317,0,0,0-.057-2.156,2.623,2.623,0,0,0-.878-.582l-.924.764-.559-.548,1.072-1.084a4.264,4.264,0,0,1,2,1.05c1.038,1.015,1.2,2.11.194,3.126l-1.985,2.019Zm.24-1.666c-1.768-1.677-2.544-1.711-3.08-1.175-.548.559-.342,1.118.171,1.62a2.1,2.1,0,0,0,1.8.673l1.107-1.129Z" transform="translate(-4.148 -6.327)" fill="#a22c2c"/>
      <path id="パス_55025" data-name="パス 55025" d="M98.731,36.139c.8,1.061.7,2.065-.1,2.658-1.164.867-2.578.354-3.822-1.3-1.175-1.563-1.358-2.715-.479-3.388a1.978,1.978,0,0,1,2-.137,1.2,1.2,0,0,1,.491-1.107,1.836,1.836,0,0,1,1.711-.194,2.069,2.069,0,0,1,.9-1.609,2.208,2.208,0,0,1,3.422.525,3.325,3.325,0,0,1,.5.947,2.237,2.237,0,0,1,1.985,1.1l-.707.536c-.513-.673-.81-.981-1.175-1.072a2.045,2.045,0,0,1-.9,1.791,2.207,2.207,0,0,1-3.422-.513,3.084,3.084,0,0,1-.548-1.1,1.07,1.07,0,0,0-.97.137c-.445.331-.388.764.023,1.312l1.072,1.426ZM96.769,35a2.182,2.182,0,0,1-.285-.491,1.461,1.461,0,0,0-1.278.171c-.6.456-.559,1.266.3,2.4.719.958,1.62,1.609,2.4,1.027.479-.365.513-.947-.08-1.723L96.781,35Zm3.411-3.217a1.4,1.4,0,0,0-.434,2.179,1.334,1.334,0,0,0,2.11.183,1.386,1.386,0,0,0,.422-2.179,1.321,1.321,0,0,0-2.1-.183Z" transform="translate(-3.825 -5.531)" fill="#a22c2c"/>
      <path id="パス_55026" data-name="パス 55026" d="M102.178,43.124a6.032,6.032,0,0,1-1.312-1.711c-1.015-1.871-.559-3.331,1.2-4.278,1.939-1.05,3.662-.742,4.575.924a2.45,2.45,0,0,1-.958,3.5l-.844.456L102.657,38a2.127,2.127,0,0,0-.958,3.274,5.552,5.552,0,0,0,1.152,1.494l-.673.365Zm2.92-2.453a1.59,1.59,0,0,0,.821-2.327c-.513-.947-1.346-1.164-2.59-.662l1.654,3.057.114-.057Z" transform="translate(-2.902 -4.679)" fill="#a22c2c"/>
    </g>
    <g id="グループ_8639" data-name="グループ 8639" transform="translate(23.086 104.124)">
      <path id="パス_55027" data-name="パス 55027" d="M26.743,103.465l-2.4-2.6.468-.434,1.038.935,1.426-2.533L24.94,96.29,22.3,97.5l.9,1.164-.468.433-2.5-2.7.468-.433.89.776,8.556-3.765.924,1L26.617,102.2l.6.844-.468.434ZM29.96,94.02l-4.267,1.939L27.667,98.1,29.96,94.02Z" transform="translate(-20.24 -91.053)" fill="#a22c2c"/>
      <path id="パス_55028" data-name="パス 55028" d="M42.915,104.639l-6.89,6.058-1.118-.742,2.669-8.1-6.468,5.578-1.118-.742,3-8.636-.753-.65.354-.536,2.989,1.985-.354.536L33.9,98.672l-2.749,7.6,6.571-5.681,1.038.684-2.681,8.282,6.035-5.442-1.209-.958.354-.536,2.92,1.939-.354.536-.9-.445Z" transform="translate(-18.867 -90.504)" fill="#a22c2c"/>
      <path id="パス_55029" data-name="パス 55029" d="M49.058,115.7l-3.331-1.2.217-.6,1.346.342.091-2.9-3.251-1.164-1.78,2.293,1.335.616-.217.6L40,112.453l.217-.6,1.152.274,5.841-7.313,1.278.456-.137,9.355.924.468-.217.6Zm-1.529-9.879-2.886,3.7,2.738.981.137-4.677Z" transform="translate(-17.458 -89.386)" fill="#a22c2c"/>
      <path id="パス_55030" data-name="パス 55030" d="M55.953,107.83l-1.426-.137-1.4,7.563c-.422,2.282-1.643,3.126-3.525,2.784a3.26,3.26,0,0,1-.639-.183l.137-.753c.137.046.388.114.5.137,1.449.274,2.179-.308,2.533-2.236l1.392-7.484-1.711-.445.114-.627,4.141.764-.114.627Z" transform="translate(-16.196 -89.156)" fill="#a22c2c"/>
      <path id="パス_55031" data-name="パス 55031" d="M58.85,116.331l1.4.228-.046.639-3.867-.262.046-.639,1.415-.034.548-8.065-1.4-.228.046-.639,3.867.262-.046.639-1.415.034Z" transform="translate(-15.157 -89.032)" fill="#a22c2c"/>
      <path id="パス_55032" data-name="パス 55032" d="M66.58,108.326a4.182,4.182,0,0,0-1.517-.171,1.541,1.541,0,0,0-1.654,1.723c.068,1.015.662,1.358,2.008,1.791,1.848.593,2.909,1.061,3.023,2.681.114,1.7-1.232,2.727-2.989,2.852a6.467,6.467,0,0,1-2.818-.376l-.16-2.373.764-.057.274,1.757a5.513,5.513,0,0,0,1.848.205c1.483-.1,2.076-.833,2.008-1.8-.068-1.084-.821-1.449-2.407-1.939-1.221-.376-2.476-.821-2.59-2.476a2.578,2.578,0,0,1,2.669-2.818,6.509,6.509,0,0,1,2.373.24l.148,2.19-.764.057-.228-1.483Z" transform="translate(-14.309 -89.035)" fill="#a22c2c"/>
      <path id="パス_55033" data-name="パス 55033" d="M79.846,113.718l1.392-.251.171.616L77.667,115.1l-.171-.616,1.323-.491-.993-3.628L72.579,111.8l.992,3.628,1.392-.251.171.616-3.742,1.015-.171-.616,1.323-.491-2.122-7.792-1.392.251-.171-.616,3.742-1.015.171.616-1.323.491.924,3.4,5.248-1.437-.924-3.4-1.392.251-.171-.616,3.742-1.015.171.616-1.323.491,2.133,7.792Z" transform="translate(-13.394 -89.385)" fill="#a22c2c"/>
      <path id="パス_55034" data-name="パス 55034" d="M85.033,111.17l1.323-.491.274.582-3.491,1.666-.274-.582,1.221-.719-3.479-7.29-1.323.491-.274-.582L82.5,102.58l.274.582-1.221.719Z" transform="translate(-11.965 -89.7)" fill="#a22c2c"/>
      <path id="パス_55035" data-name="パス 55035" d="M97.619,103.577l1.152-.7.388.513-3.046,2.27-.388-.513,1.05-.935L91.983,97.77l-.034.023,2.419,8.681-.81.6-7.6-4.837-.034.023,4.791,6.446,1.2-.73.388.513-3.023,2.247-.376-.513,1-.913-4.826-6.491-1.164.7-.388-.513,2.521-1.882,7.221,4.586L90.945,97.5l2.476-1.837.388.513-1,.9,4.826,6.491Z" transform="translate(-11.329 -90.675)" fill="#a22c2c"/>
      <path id="パス_55036" data-name="パス 55036" d="M105.9,94.37l-2.282,2.715-.491-.411.8-1.141-2.692-1.084L99.01,97.1l1.54,2.464,1.038-1.038.491.411-2.373,2.818-.491-.411.662-.992-4.837-8.02.878-1.038,8.739,3.377.764-.707.491.411Zm-9.8-1.985,2.476,3.981,1.871-2.236L96.1,92.374Z" transform="translate(-9.708 -91.29)" fill="#a22c2c"/>
    </g>
    <g id="グループ_8640" data-name="グループ 8640" transform="translate(7.598 56.688)">
      <path id="パス_55037" data-name="パス 55037" d="M31.575,52.813a3.769,3.769,0,0,1-2.784-1.243,2.948,2.948,0,0,0-2.2-1.015,2.9,2.9,0,0,0-2.2,1.027,3.737,3.737,0,0,1-5.567,0,2.895,2.895,0,0,0-4.4,0,3.724,3.724,0,0,1-5.556,0,2.928,2.928,0,0,0-2.2-1.015V49.71a3.742,3.742,0,0,1,2.772,1.243,2.895,2.895,0,0,0,4.4,0,3.737,3.737,0,0,1,5.567,0,2.956,2.956,0,0,0,2.2,1.027,2.9,2.9,0,0,0,2.2-1.027,3.737,3.737,0,0,1,5.567,0,2.962,2.962,0,0,0,2.213,1.027v.856Z" transform="translate(-6.66 -49.699)" fill="#a22c2c"/>
      <path id="パス_55038" data-name="パス 55038" d="M31.575,58.933a3.769,3.769,0,0,1-2.784-1.243,2.948,2.948,0,0,0-2.2-1.015,2.9,2.9,0,0,0-2.2,1.027,3.737,3.737,0,0,1-5.567,0,2.895,2.895,0,0,0-4.4,0,3.724,3.724,0,0,1-5.556,0,2.928,2.928,0,0,0-2.2-1.015V55.83a3.742,3.742,0,0,1,2.772,1.243,2.895,2.895,0,0,0,4.4,0,3.737,3.737,0,0,1,5.567,0A2.956,2.956,0,0,0,21.6,58.1a2.9,2.9,0,0,0,2.2-1.027,3.737,3.737,0,0,1,5.567,0A2.962,2.962,0,0,0,31.586,58.1v.856Z" transform="translate(-6.66 -48.837)" fill="#a22c2c"/>
      <path id="パス_55039" data-name="パス 55039" d="M31.575,65.043A3.769,3.769,0,0,1,28.791,63.8a2.948,2.948,0,0,0-2.2-1.015,2.9,2.9,0,0,0-2.2,1.027,3.737,3.737,0,0,1-5.567,0,2.895,2.895,0,0,0-4.4,0,3.724,3.724,0,0,1-5.556,0A2.928,2.928,0,0,0,6.66,62.8V61.94a3.742,3.742,0,0,1,2.772,1.243,2.895,2.895,0,0,0,4.4,0,3.737,3.737,0,0,1,5.567,0,2.956,2.956,0,0,0,2.2,1.027,2.9,2.9,0,0,0,2.2-1.027,3.737,3.737,0,0,1,5.567,0,2.962,2.962,0,0,0,2.213,1.027v.856Z" transform="translate(-6.66 -47.977)" fill="#a22c2c"/>
      <path id="パス_55040" data-name="パス 55040" d="M31.575,71.154a3.769,3.769,0,0,1-2.784-1.243,2.895,2.895,0,0,0-4.4,0,3.737,3.737,0,0,1-5.567,0,2.948,2.948,0,0,0-2.2-1.015,2.988,2.988,0,0,0-2.2,1.015,3.724,3.724,0,0,1-5.556,0A2.928,2.928,0,0,0,6.66,68.9V68.04a3.742,3.742,0,0,1,2.772,1.243,2.928,2.928,0,0,0,2.2,1.015,2.968,2.968,0,0,0,2.2-1.015,3.737,3.737,0,0,1,5.567,0,2.895,2.895,0,0,0,4.4,0,3.737,3.737,0,0,1,5.567,0,2.962,2.962,0,0,0,2.213,1.027v.856Z" transform="translate(-6.66 -47.118)" fill="#a22c2c"/>
      <path id="パス_55041" data-name="パス 55041" d="M31.575,77.274a3.769,3.769,0,0,1-2.784-1.243,2.895,2.895,0,0,0-4.4,0,3.737,3.737,0,0,1-5.567,0,2.948,2.948,0,0,0-2.2-1.015,2.988,2.988,0,0,0-2.2,1.015,3.724,3.724,0,0,1-5.556,0,2.928,2.928,0,0,0-2.2-1.015V74.16A3.742,3.742,0,0,1,9.432,75.4a2.928,2.928,0,0,0,2.2,1.015,2.968,2.968,0,0,0,2.2-1.015,3.737,3.737,0,0,1,5.567,0,2.895,2.895,0,0,0,4.4,0,3.737,3.737,0,0,1,5.567,0,2.962,2.962,0,0,0,2.213,1.027v.856Z" transform="translate(-6.66 -46.256)" fill="#a22c2c"/>
      <path id="パス_55042" data-name="パス 55042" d="M118.075,52.814a3.769,3.769,0,0,1-2.784-1.243,2.956,2.956,0,0,0-2.2-1.027,2.9,2.9,0,0,0-2.2,1.027,3.737,3.737,0,0,1-5.567,0,2.895,2.895,0,0,0-4.4,0,3.724,3.724,0,0,1-5.556,0,2.928,2.928,0,0,0-2.2-1.015V49.7a3.742,3.742,0,0,1,2.772,1.243,2.895,2.895,0,0,0,4.4,0,3.737,3.737,0,0,1,5.567,0,2.956,2.956,0,0,0,2.2,1.027,2.9,2.9,0,0,0,2.2-1.027,3.737,3.737,0,0,1,5.567,0,2.956,2.956,0,0,0,2.2,1.027v.856Z" transform="translate(5.511 -49.7)" fill="#a22c2c"/>
      <path id="パス_55043" data-name="パス 55043" d="M118.075,58.934a3.769,3.769,0,0,1-2.784-1.243,2.956,2.956,0,0,0-2.2-1.027,2.9,2.9,0,0,0-2.2,1.027,3.737,3.737,0,0,1-5.567,0,2.895,2.895,0,0,0-4.4,0,3.724,3.724,0,0,1-5.556,0,2.928,2.928,0,0,0-2.2-1.015V55.82a3.742,3.742,0,0,1,2.772,1.243,2.895,2.895,0,0,0,4.4,0,3.737,3.737,0,0,1,5.567,0,2.956,2.956,0,0,0,2.2,1.027,2.9,2.9,0,0,0,2.2-1.027,3.737,3.737,0,0,1,5.567,0,2.956,2.956,0,0,0,2.2,1.027v.856Z" transform="translate(5.511 -48.838)" fill="#a22c2c"/>
      <path id="パス_55044" data-name="パス 55044" d="M118.075,65.044a3.769,3.769,0,0,1-2.784-1.243,2.956,2.956,0,0,0-2.2-1.027,2.9,2.9,0,0,0-2.2,1.027,3.737,3.737,0,0,1-5.567,0,2.895,2.895,0,0,0-4.4,0,3.724,3.724,0,0,1-5.556,0,2.928,2.928,0,0,0-2.2-1.015V61.93a3.742,3.742,0,0,1,2.772,1.243,2.895,2.895,0,0,0,4.4,0,3.737,3.737,0,0,1,5.567,0,2.956,2.956,0,0,0,2.2,1.027,2.9,2.9,0,0,0,2.2-1.027,3.737,3.737,0,0,1,5.567,0,2.956,2.956,0,0,0,2.2,1.027v.856Z" transform="translate(5.511 -47.978)" fill="#a22c2c"/>
      <path id="パス_55045" data-name="パス 55045" d="M118.075,71.154a3.769,3.769,0,0,1-2.784-1.243,2.895,2.895,0,0,0-4.4,0,3.737,3.737,0,0,1-5.567,0,2.948,2.948,0,0,0-2.2-1.015,2.988,2.988,0,0,0-2.2,1.015,3.724,3.724,0,0,1-5.556,0,2.928,2.928,0,0,0-2.2-1.015V68.04a3.742,3.742,0,0,1,2.772,1.243,2.928,2.928,0,0,0,2.2,1.015,2.968,2.968,0,0,0,2.2-1.015,3.737,3.737,0,0,1,5.567,0,2.895,2.895,0,0,0,4.4,0,3.737,3.737,0,0,1,5.567,0,2.948,2.948,0,0,0,2.2,1.015Z" transform="translate(5.511 -47.118)" fill="#a22c2c"/>
      <path id="パス_55046" data-name="パス 55046" d="M118.075,77.274a3.769,3.769,0,0,1-2.784-1.243,2.895,2.895,0,0,0-4.4,0,3.737,3.737,0,0,1-5.567,0,2.948,2.948,0,0,0-2.2-1.015,2.988,2.988,0,0,0-2.2,1.015,3.724,3.724,0,0,1-5.556,0,2.928,2.928,0,0,0-2.2-1.015V74.16A3.742,3.742,0,0,1,95.932,75.4a2.928,2.928,0,0,0,2.2,1.015,2.968,2.968,0,0,0,2.2-1.015,3.737,3.737,0,0,1,5.567,0,2.895,2.895,0,0,0,4.4,0,3.737,3.737,0,0,1,5.567,0,2.948,2.948,0,0,0,2.2,1.015Z" transform="translate(5.511 -46.256)" fill="#a22c2c"/>
    </g>
    <path id="パス_55047" data-name="パス 55047" d="M84.418,83.245a2.116,2.116,0,0,0-1.312-.89c-.137-.034-.285-.068-.434-.1.08-.536.183-1.072.251-1.609a.948.948,0,0,0-.217-.719,1.9,1.9,0,0,0-1.278-.616c-1.392-.125-2.784-.228-4.187-.319A12.242,12.242,0,0,0,81.109,71.3a17.514,17.514,0,0,0-2.533-11.533.609.609,0,0,0-.65-.251.6.6,0,0,0-.456.525,2.426,2.426,0,0,1-1,1.905,2.339,2.339,0,0,1-2.076.011,1.408,1.408,0,0,1-.833-.73c-.456-1.015.194-2.761.673-4.027.114-.308.228-.6.308-.856,1.392-4.2-4.107-10.8-7.324-13.016a19.068,19.068,0,0,0-1.654-.981,12.206,12.206,0,0,1-2.225-1.437c-.947-.833-1.175-1.107-1.107-3.183a.6.6,0,0,0-.422-.593.6.6,0,0,0-.684.24,6.76,6.76,0,0,0-1.232,4.415,13.753,13.753,0,0,1-3.662,12.138,5.561,5.561,0,0,0-.1-1.939.573.573,0,0,0-.639-.456.6.6,0,0,0-.559.57,7.159,7.159,0,0,1-2.122,4.153c-.468.5-.992.97-1.551,1.472a12.062,12.062,0,0,0-2.909,3.32,11.274,11.274,0,0,0-.023,7.883,6.947,6.947,0,0,1-1.78-2.612A.607.607,0,0,0,45.4,66.7c.684,3.263,2.1,7.678,3.822,9.343.525.5,1.061.97,1.609,1.415a.83.83,0,0,0-.16.6,1.433,1.433,0,0,0,.821.97c.3.16.582.319.878.479-.034.16-.068.331-.114.491-1.768.1-3.536.228-5.293.388a1.8,1.8,0,0,0-1.278.616.948.948,0,0,0-.217.719c.08.593.183,1.186.274,1.791-.228.08-.468.148-.7.228a2,2,0,0,0-1.175.947.955.955,0,0,0-.046.787c.479,1.266.992,2.544,1.551,3.8a1.2,1.2,0,0,0,1.164.627,2.128,2.128,0,0,0,.89-.194c2.27-.97,4.575-1.871,6.89-2.715q-.873,1.061-1.711,2.156a1.316,1.316,0,0,0-.262,1.05,1.108,1.108,0,0,0,.536.753c1.221.719,2.476,1.426,3.73,2.088a1.2,1.2,0,0,0,.57.137,1.42,1.42,0,0,0,1.209-.7,68.466,68.466,0,0,1,4.666-6.754,75.23,75.23,0,0,1,8.122,6.08,1.881,1.881,0,0,0,1.221.479,1.284,1.284,0,0,0,.878-.319h0c1.107-1.05,2.19-2.133,3.206-3.194a1.041,1.041,0,0,0,.285-.844,1.374,1.374,0,0,0-.354-.787c1.6.479,3.183.97,4.769,1.506a2.569,2.569,0,0,0,.81.137,1.278,1.278,0,0,0,1.289-.719c.456-1.312.878-2.647,1.255-3.981a.968.968,0,0,0-.114-.764Zm-2.966,4.529c-2.339-.787-4.689-1.506-7.073-2.19-.422-.125-.844-.228-1.266-.354-.479-.125-.947-.262-1.426-.388-.548-.148-1.107-.285-1.654-.422l-1.643-.411-1.437-.342c-.091-.023-.171-.034-.262-.057-.365-.08-.73-.171-1.107-.251-.183-.046-.365-.08-.536-.125a1,1,0,0,0,.091-.114c.034-.034.057-.08.091-.114a2.081,2.081,0,0,0,.148-.183.572.572,0,0,1,.08-.091l.274-.308h0c.125-.137.24-.274.365-.411l.24-.274.08-.091c.068-.08.137-.16.217-.24s.125-.137.183-.205c.034-.034.068-.08.1-.114.114-.125.217-.251.331-.365h.011c.125-.148.262-.285.4-.422.08-.091.171-.171.251-.262l1.05.171c.228.034.456.08.7.125.194.034.388.068.593.1h0c.684.125,1.369.24,2.053.376.205.046.422.091.627.125.1.023.205.046.3.057a.8.8,0,0,1,.16.034c.08.011.16.034.251.046.068.011.148.034.217.046h.023c.137.034.285.057.422.091,2.487.5,4.951,1.061,7.415,1.677.137.034.274.068.422.1s.274.068.422.1c.114.034.228.057.354.091a1.3,1.3,0,0,1,.787.491.2.2,0,0,1,.034.114c-.376,1.323-.787,2.647-1.243,3.936-.034.091-.433.251-1.015.057Zm-5.533.183a.235.235,0,0,1-.057.183c-1.015,1.061-2.088,2.122-3.183,3.171-.16.16-.6.114-.935-.183a74.48,74.48,0,0,0-8.157-6.115c.114-.148.228-.285.342-.434q1.335-.068,2.669-.1c2.487.582,4.974,1.209,7.427,1.905.513.354,1.027.684,1.54,1.061a.769.769,0,0,1,.354.525ZM62.343,85.218a73.218,73.218,0,0,0-4.677,6.788.52.52,0,0,1-.639.251c-1.243-.662-2.5-1.369-3.708-2.076A.259.259,0,0,1,53.194,90a.456.456,0,0,1,.1-.365c.844-1.107,1.723-2.179,2.635-3.251l.548-.65.582-.65h0c.137-.171.274-.319.422-.479s.274-.308.411-.468c.228-.251.468-.5.7-.753.091-.1.183-.194.274-.285l.125-.137.034-.046.137-.137c.068-.08.137-.148.217-.228h0a.652.652,0,0,1,.091-.091c.091-.091.171-.183.262-.285l.285-.285.354-.354.354-.354.354-.354c.091-.08.171-.171.262-.262l.08-.08c.114-.114.228-.228.354-.342h.011c.114-.114.228-.217.331-.319l.114-.114.034-.034.08-.08c.08-.08.171-.16.251-.24.046-.034.08-.08.125-.114h0l.091-.091.114-.114c.057-.057.125-.114.183-.171a2.043,2.043,0,0,0,.16-.148l.034-.034c.068-.057.137-.125.205-.183,1.221-1.107,2.476-2.19,3.765-3.228a.8.8,0,0,1,.73-.183c.707.456,1.415.9,2.133,1.335a.4.4,0,0,1-.16.262c-.308.3-.616.6-.913.9-.171.171-.354.342-.525.525l-.525.525-.023.023c-.137.137-.274.285-.411.433l-.023.023c-.125.125-.24.251-.354.376l-.034.034c-.1.1-.194.205-.3.308l-.034.034c-.114.125-.24.251-.354.376s-.251.285-.376.422H66.1c-.046.068-.091.114-.137.171a1.982,1.982,0,0,0-.148.171c-.068.08-.148.16-.217.24l-.08.091-.274.308-.251.285c-.114.125-.228.262-.331.388s-.194.24-.3.354l-.046.057s-.068.08-.091.114c-.057.057-.1.125-.16.183l-.046.057a3.551,3.551,0,0,0-.262.319l-.023.023-.068.08c-.068.08-.125.16-.194.228l-.034.046c-.057.08-.125.148-.194.228l-.137.171c-.091.114-.183.24-.274.354-.023.034-.046.057-.068.091-.068.08-.125.16-.194.251-.091.114-.183.228-.262.342ZM46.167,88.88c-.548-1.243-1.061-2.51-1.529-3.765A.248.248,0,0,1,44.661,85a1.229,1.229,0,0,1,.673-.5c.183-.068.376-.125.559-.183l.411-.137c.137-.046.262-.091.4-.125,2.247-.73,4.506-1.426,6.776-2.053h.046c.274.034.548.091.821.125l.422.068.422.068c.582.091,1.152.171,1.734.274.376.057.742.137,1.118.194-.068.08-.148.148-.217.228-.137.148-.274.285-.411.434-.262.285-.513.57-.764.856-.148.16-.285.319-.433.479s-.285.319-.422.479l-.376.445q-4.227,1.489-8.328,3.228c-.491.205-.9.1-.947,0Zm.205-7.381a1.072,1.072,0,0,1,.7-.3c1.677-.16,3.354-.274,5.042-.376a.77.77,0,0,0,.125.513.738.738,0,0,0,.091.1c-1.928.548-3.844,1.141-5.75,1.757C46.5,82.64,46.429,82.07,46.372,81.5Zm6.8-1.586h0q.051-.24.1-.445c.023-.091.046-.194.068-.285a.7.7,0,0,1,.034-.148c.023-.1.046-.194.068-.3.011-.068.034-.137.046-.205a.538.538,0,0,1,.228-.125,1.511,1.511,0,0,1,.513-.08h.183c.844.068,1.677.16,2.521.24.274.023.548.046.821.08l.913.1c.354.034.7.08,1.05.125l1.2.137.6.068.16.023a1,1,0,0,0-.114.114.5.5,0,0,1-.08.068c-.114.114-.24.217-.354.331l-.057.057-.046.034-.137.137c-.1.091-.194.194-.3.285l-.046.046-.023.023-.308.308-.057.057-.376.376-.342.342-.342.342c-.114.114-.228.24-.342.365h-.08c-.411-.091-.821-.171-1.243-.24-.4-.068-.81-.125-1.209-.194-.24-.034-.491-.08-.73-.114l-.228-.034-.422-.068c-.125-.023-.262-.046-.388-.057h-.034c-.251-.046-.513-.091-.764-.125a.537.537,0,0,1-.194-.046,1.854,1.854,0,0,1-.513-.205l.034-.137c.034-.148.068-.3.1-.434s.068-.285.1-.434Zm-1.255-1.666a1.26,1.26,0,0,1-.308-.228c.1.08.205.16.308.228Zm-2.989-8.225a.605.605,0,0,0,.525-1.015c-1.289-1.335-1.164-5.955-.319-7.621a11.105,11.105,0,0,1,2.715-3.069c.548-.491,1.107-.992,1.609-1.529a9.634,9.634,0,0,0,1.928-2.92,5.24,5.24,0,0,1-.114.582.607.607,0,0,0,.262.673.585.585,0,0,0,.719-.068,14.587,14.587,0,0,0,4.495-13.473,5.246,5.246,0,0,1,.627-2.943,3.277,3.277,0,0,0,1.4,2.9,12.976,12.976,0,0,0,2.373,1.54c.536.3,1.084.593,1.586.935,3.069,2.11,8.191,8.453,6.993,12.047-.08.24-.183.513-.3.821-.536,1.415-1.266,3.343-.662,4.677a2.291,2.291,0,0,0,1.312,1.186,3.17,3.17,0,0,0,2.818-.08,2.978,2.978,0,0,0,1.289-1.894A17.128,17.128,0,0,1,80.242,71.2a11.551,11.551,0,0,1-4.232,7.723c-.16.137-.319.274-.479.4s-.342.274-.513.4a.8.8,0,0,0-.114.091c-.228.171-.479.308-.719.456-.034.023-.057.034-.091.057l-.342-.068c-.16-.034-.308-.068-.468-.091l-2.145-.411c.057-.057.125-.114.183-.171.148-.137.285-.274.433-.422.125-.125.24-.274.365-.411.16-.194.319-.4.479-.627.08-.114.148-.228.228-.342s.137-.24.205-.365a8.465,8.465,0,0,0,.958-3.149,12.067,12.067,0,0,0-1.46-7.324.522.522,0,0,0-.559-.24.535.535,0,0,0-.411.468,1.4,1.4,0,0,1-.525,1.107,1.085,1.085,0,0,1-.958-.034c-.764-.319-.434-1.506,0-2.806.068-.194.125-.376.183-.536.81-2.7-2.373-6.913-4.232-8.328a10.638,10.638,0,0,0-.958-.627,6.636,6.636,0,0,1-1.232-.878c-.491-.468-.616-.593-.582-1.894a.545.545,0,0,0-.376-.536.515.515,0,0,0-.593.228h0a4.692,4.692,0,0,0-.719,2.863c.456,2.533-.776,5.293-4,8.955-.262.319-.57.616-.867.913a7.55,7.55,0,0,0-1.688,2.133,8.346,8.346,0,0,0-.308,4.084c-.114-.217-.24-.468-.376-.776a.524.524,0,0,0-.639-.3.538.538,0,0,0-.365.616,23.287,23.287,0,0,0,1.027,3.753c.068.183.137.365.217.536.091.205.183.411.274.593a4.4,4.4,0,0,0,.7,1.05c.1.114.217.217.331.331l-1.392-.137a2.027,2.027,0,0,0-1.54.411c-.3-.194-.582-.4-.867-.6-.114-.08-.228-.171-.342-.262s-.228-.171-.342-.262c-.525-.434-1.05-.878-1.563-1.369-1.232-1.186-2.384-4.187-3.149-7.107A3.311,3.311,0,0,0,48.9,70.034ZM68.811,79.1c.137-.137.285-.274.422-.422l.285-.285c.171-.171.354-.354.536-.525s.354-.354.536-.525l.034-.034a1.215,1.215,0,0,0,.422-.97.824.824,0,0,0-.411-.627c-.707-.434-1.415-.878-2.11-1.335a1.575,1.575,0,0,0-1.734.228q-2.242,1.814-4.324,3.742l-1.323-.171c-.445-.057-.89-.1-1.335-.16s-.913-.114-1.369-.16c-.388-.046-.776-.08-1.164-.125-.3-.251-.582-.525-.867-.81-.08-.08-.16-.148-.24-.24a3.183,3.183,0,0,1-.365-.5,5.155,5.155,0,0,1-.319-.616,16.648,16.648,0,0,1-.856-2.43,1.584,1.584,0,0,0,.844.434.505.505,0,0,0,.536-.274.531.531,0,0,0-.068-.616c-.684-.787-.616-3.639-.16-4.632a6.844,6.844,0,0,1,1.506-1.882c.319-.319.639-.627.913-.958,3.411-3.867,4.7-6.845,4.2-9.663a2.607,2.607,0,0,1,.091-1.027,2.222,2.222,0,0,0,.753,1.118,7.519,7.519,0,0,0,1.38.992c.3.183.6.365.89.582,1.974,1.494,4.54,5.35,3.924,7.4-.046.148-.1.319-.171.5-.411,1.2-1.107,3.217.468,3.867a1.853,1.853,0,0,0,1.723-.023,1.786,1.786,0,0,0,.73-.89,11.757,11.757,0,0,1,.947,6.058,7.5,7.5,0,0,1-.958,2.989c-.091.148-.171.3-.262.433-.114.16-.217.319-.331.468-.194.24-.4.456-.593.662-.148.148-.3.285-.445.422a4.675,4.675,0,0,1-.376.319,1.2,1.2,0,0,1-.125.091c-.479-.08-.947-.171-1.426-.251.057-.057.114-.125.183-.194Zm13.028,2.943c-2.156-.536-4.324-1.038-6.514-1.483l.1-.068c.3-.217.593-.456.9-.7,1.677.1,3.343.217,5.008.376a.952.952,0,0,1,.73.376c-.068.5-.16,1.015-.24,1.517Z" transform="translate(6.158 5.215)" fill="#a22c2c"/>
  </g>
</svg>
