<svg xmlns="http://www.w3.org/2000/svg" xmlns:xlink="http://www.w3.org/1999/xlink" width="1260" height="47" viewBox="0 0 1260 47">
  <defs>
    <clipPath id="clip-path">
      <rect width="1260" height="47" fill="none"/>
    </clipPath>
  </defs>
  <g id="リピートグリッド_4" data-name="リピートグリッド 4" clip-path="url(#clip-path)" style="isolation: isolate">
    <g transform="translate(-140 -1708)">
      <path id="パス_55058" data-name="パス 55058" d="M411.771,1091.451c-12.819,0-23.351-5-36.835-12.07a68.881,68.881,0,0,0-66.322,0c-13.486,7.067-24.023,12.07-36.842,12.07v25.737h140Z" transform="translate(-131.771 638.129)" fill="#53a2b7" opacity="0.15"/>
    </g>
    <g transform="translate(0 -1708)">
      <path id="パス_55058-2" data-name="パス 55058" d="M411.771,1091.451c-12.819,0-23.351-5-36.835-12.07a68.881,68.881,0,0,0-66.322,0c-13.486,7.067-24.023,12.07-36.842,12.07v25.737h140Z" transform="translate(-131.771 638.129)" fill="#53a2b7" opacity="0.15"/>
    </g>
    <g transform="translate(140 -1708)">
      <path id="パス_55058-3" data-name="パス 55058" d="M411.771,1091.451c-12.819,0-23.351-5-36.835-12.07a68.881,68.881,0,0,0-66.322,0c-13.486,7.067-24.023,12.07-36.842,12.07v25.737h140Z" transform="translate(-131.771 638.129)" fill="#53a2b7" opacity="0.15"/>
    </g>
    <g transform="translate(280 -1708)">
      <path id="パス_55058-4" data-name="パス 55058" d="M411.771,1091.451c-12.819,0-23.351-5-36.835-12.07a68.881,68.881,0,0,0-66.322,0c-13.486,7.067-24.023,12.07-36.842,12.07v25.737h140Z" transform="translate(-131.771 638.129)" fill="#53a2b7" opacity="0.15"/>
    </g>
    <g transform="translate(420 -1708)">
      <path id="パス_55058-5" data-name="パス 55058" d="M411.771,1091.451c-12.819,0-23.351-5-36.835-12.07a68.881,68.881,0,0,0-66.322,0c-13.486,7.067-24.023,12.07-36.842,12.07v25.737h140Z" transform="translate(-131.771 638.129)" fill="#53a2b7" opacity="0.15"/>
    </g>
    <g transform="translate(560 -1708)">
      <path id="パス_55058-6" data-name="パス 55058" d="M411.771,1091.451c-12.819,0-23.351-5-36.835-12.07a68.881,68.881,0,0,0-66.322,0c-13.486,7.067-24.023,12.07-36.842,12.07v25.737h140Z" transform="translate(-131.771 638.129)" fill="#53a2b7" opacity="0.15"/>
    </g>
    <g transform="translate(700 -1708)">
      <path id="パス_55058-7" data-name="パス 55058" d="M411.771,1091.451c-12.819,0-23.351-5-36.835-12.07a68.881,68.881,0,0,0-66.322,0c-13.486,7.067-24.023,12.07-36.842,12.07v25.737h140Z" transform="translate(-131.771 638.129)" fill="#53a2b7" opacity="0.15"/>
    </g>
    <g transform="translate(840 -1708)">
      <path id="パス_55058-8" data-name="パス 55058" d="M411.771,1091.451c-12.819,0-23.351-5-36.835-12.07a68.881,68.881,0,0,0-66.322,0c-13.486,7.067-24.023,12.07-36.842,12.07v25.737h140Z" transform="translate(-131.771 638.129)" fill="#53a2b7" opacity="0.15"/>
    </g>
    <g transform="translate(980 -1708)">
      <path id="パス_55058-9" data-name="パス 55058" d="M411.771,1091.451c-12.819,0-23.351-5-36.835-12.07a68.881,68.881,0,0,0-66.322,0c-13.486,7.067-24.023,12.07-36.842,12.07v25.737h140Z" transform="translate(-131.771 638.129)" fill="#53a2b7" opacity="0.15"/>
    </g>
  </g>
</svg>
